<?xml version="1.0" encoding="UTF-8"?>
<svg id="a" data-name="Laag 1" xmlns="http://www.w3.org/2000/svg" viewBox="0 0 118.39 81.03">
  <defs>
    <style>
      .b {
        fill: #fff;
      }
    </style>
  </defs>
  <g>
    <path class="b" d="M7.22,68.27v5.63c0,.49-.02.9-.06,1.25-.04.34-.14.69-.28,1.04-.24.59-.65,1.05-1.21,1.38-.56.33-1.25.5-2.05.5-.73,0-1.34-.11-1.82-.34-.49-.23-.88-.6-1.18-1.11-.16-.27-.28-.59-.38-.95-.1-.36-.15-.7-.15-1.02,0-.34.1-.6.29-.78.19-.18.43-.27.73-.27.29,0,.51.08.65.25.15.17.26.43.34.78.08.38.17.68.25.9.08.22.22.42.42.58.19.16.47.24.84.24.96,0,1.44-.71,1.44-2.12v-5.95c0-.44.1-.77.29-.99.19-.22.46-.33.79-.33s.6.11.8.33c.2.22.3.55.3.99Z"/>
    <path class="b" d="M15.03,74.49h-3.91c0,.46.1.86.27,1.2.18.35.42.61.71.79.3.18.62.26.98.26.24,0,.46-.03.66-.09.2-.06.39-.14.58-.26.19-.12.36-.25.51-.38.16-.14.36-.32.61-.56.1-.09.25-.13.44-.13.21,0,.37.06.5.17.13.11.19.27.19.48,0,.18-.07.39-.21.63-.14.24-.35.47-.64.7-.29.22-.65.41-1.08.55-.43.15-.93.22-1.49.22-1.29,0-2.29-.37-3-1.1-.71-.73-1.07-1.73-1.07-2.98,0-.59.09-1.14.26-1.65.18-.51.43-.94.77-1.3.34-.36.75-.64,1.25-.83.49-.19,1.04-.29,1.64-.29.78,0,1.45.16,2.01.5.56.33.98.76,1.26,1.28.28.52.42,1.05.42,1.6,0,.5-.14.83-.43.98-.29.15-.69.22-1.22.22ZM11.12,73.35h3.63c-.05-.69-.23-1.2-.55-1.54-.32-.34-.74-.51-1.27-.51-.5,0-.91.17-1.23.52-.32.34-.52.86-.58,1.53Z"/>
    <path class="b" d="M23.57,76.93v-.26c-.24.3-.49.56-.75.76-.26.21-.55.36-.87.46-.31.1-.67.15-1.07.15-.48,0-.92-.1-1.3-.3-.38-.2-.68-.48-.89-.83-.25-.42-.37-1.04-.37-1.83v-3.97c0-.4.09-.7.27-.9.18-.2.42-.3.72-.3s.55.1.73.3c.19.2.28.5.28.89v3.2c0,.46.04.85.12,1.17.08.32.22.56.42.74.2.18.48.27.82.27s.65-.1.95-.3c.3-.2.52-.46.65-.79.11-.28.17-.9.17-1.86v-2.43c0-.4.09-.69.28-.89.19-.2.43-.3.73-.3.3,0,.54.1.72.3.18.2.27.5.27.9v5.8c0,.38-.08.67-.26.86-.17.19-.4.29-.67.29-.27,0-.5-.1-.68-.3-.18-.2-.27-.47-.27-.83Z"/>
    <path class="b" d="M34.8,71.39v5.81c0,.66-.07,1.24-.21,1.72-.14.48-.37.88-.68,1.19-.31.31-.72.54-1.23.7-.51.15-1.14.23-1.89.23-.69,0-1.31-.1-1.85-.29-.54-.19-.96-.44-1.25-.75-.29-.31-.44-.62-.44-.94,0-.24.08-.44.25-.6.17-.15.37-.23.6-.23.29,0,.55.13.77.39.11.13.22.26.33.4.11.13.24.25.38.34.14.1.31.17.5.21.19.05.42.07.67.07.52,0,.92-.07,1.21-.22.29-.14.49-.35.6-.61.11-.26.18-.54.2-.83.02-.29.03-.77.04-1.43-.31.43-.66.76-1.07.98-.4.23-.88.34-1.44.34-.67,0-1.26-.17-1.76-.51-.5-.34-.89-.82-1.16-1.44s-.4-1.33-.4-2.13c0-.6.08-1.14.25-1.63.16-.48.4-.89.7-1.22.3-.33.65-.58,1.05-.75.4-.17.83-.25,1.3-.25.57,0,1.06.11,1.47.33.42.22.8.56,1.16,1.02v-.27c0-.35.08-.62.26-.81.17-.19.39-.29.66-.29.39,0,.64.12.77.38.13.25.19.62.19,1.09ZM29,73.92c0,.81.18,1.43.53,1.84.35.42.81.62,1.37.62.33,0,.65-.09.94-.27.29-.18.54-.45.72-.81.19-.36.28-.8.28-1.31,0-.82-.18-1.45-.54-1.91-.36-.46-.83-.68-1.42-.68-.57,0-1.03.22-1.37.65-.34.44-.52,1.05-.52,1.85Z"/>
    <path class="b" d="M42.3,76.91v-.2c-.27.31-.53.56-.8.75-.26.19-.54.34-.85.44-.31.1-.64.15-1,.15-.48,0-.92-.1-1.33-.3-.41-.2-.76-.49-1.06-.87-.3-.38-.52-.82-.68-1.33-.15-.51-.23-1.06-.23-1.65,0-1.25.3-2.23.92-2.93.61-.7,1.41-1.05,2.41-1.05.58,0,1.06.1,1.46.3.4.2.78.5,1.16.91v-2.95c0-.41.08-.72.24-.93.16-.21.4-.32.7-.32s.54.1.7.29c.16.19.25.48.25.85v8.83c0,.38-.09.67-.26.86-.18.19-.4.29-.68.29s-.5-.1-.68-.3c-.18-.2-.27-.48-.27-.85ZM38.37,73.97c0,.54.08,1,.25,1.39.17.38.4.67.69.86.29.19.61.29.96.29.35,0,.67-.09.96-.27.29-.18.52-.46.7-.84.17-.38.26-.85.26-1.42,0-.53-.09-.99-.26-1.38-.17-.38-.41-.68-.7-.88-.3-.2-.62-.3-.97-.3s-.69.1-.98.31c-.29.21-.51.51-.67.89-.16.39-.24.84-.24,1.35Z"/>
    <path class="b" d="M52.86,74.13v2.66c0,.42-.09.74-.28.95-.19.21-.44.31-.75.32-.3,0-.55-.11-.74-.31-.19-.21-.28-.53-.28-.95v-3.19c0-.5-.02-.89-.05-1.17-.03-.28-.13-.51-.28-.69-.15-.18-.39-.27-.72-.27-.65,0-1.09.23-1.29.67-.21.45-.31,1.1-.31,1.94v2.71c0,.42-.09.73-.28.94-.19.21-.44.32-.74.32s-.55-.11-.74-.32c-.19-.21-.29-.53-.29-.94v-5.73c0-.38.09-.66.26-.86.17-.2.4-.29.69-.29s.5.09.68.28c.18.18.27.44.27.76v.19c.35-.41.72-.72,1.11-.92.4-.2.84-.29,1.32-.29s.94.1,1.3.3c.36.2.66.5.9.91.34-.41.7-.71,1.08-.91.39-.2.81-.3,1.28-.3.55,0,1.02.11,1.42.32.39.22.69.52.89.92.17.36.26.93.26,1.71v3.91c0,.42-.09.74-.28.95-.19.21-.44.31-.75.31s-.55-.11-.74-.32c-.19-.21-.29-.53-.29-.94v-3.37c0-.43-.02-.78-.06-1.03-.04-.26-.14-.48-.3-.65-.16-.18-.41-.26-.73-.26-.26,0-.52.08-.75.24-.24.16-.42.37-.55.63-.15.34-.22.93-.22,1.79Z"/>
    <path class="b" d="M66.98,73.98c0,.6-.09,1.15-.28,1.65-.19.5-.45.94-.81,1.3-.35.36-.77.64-1.26.83-.49.19-1.04.29-1.65.29-.61,0-1.15-.1-1.64-.29-.48-.2-.9-.48-1.26-.84-.35-.36-.62-.79-.81-1.29-.18-.5-.28-1.04-.28-1.65s.09-1.16.28-1.66c.19-.5.45-.93.8-1.29.35-.36.77-.63,1.26-.83.49-.19,1.04-.29,1.64-.29s1.16.1,1.65.29c.49.2.92.47,1.27.83.35.36.62.79.8,1.29.18.5.28,1.05.28,1.65ZM64.97,73.98c0-.82-.18-1.45-.54-1.91-.36-.45-.84-.68-1.45-.68-.39,0-.74.1-1.03.3-.3.2-.53.5-.69.9-.16.4-.24.86-.24,1.39s.08.98.24,1.37c.16.39.39.69.68.9.3.21.64.31,1.04.31.61,0,1.09-.23,1.45-.69.36-.46.54-1.09.54-1.9Z"/>
    <path class="b" d="M70.38,71.01v.24c.35-.46.74-.81,1.15-1.02.42-.22.9-.33,1.44-.33.53,0,1,.11,1.42.34.41.23.72.56.93.97.13.24.22.51.26.79.04.28.06.64.06,1.09v3.72c0,.4-.09.7-.27.91-.18.21-.42.31-.71.31s-.54-.11-.72-.31c-.19-.21-.28-.51-.28-.9v-3.34c0-.66-.09-1.16-.28-1.51-.18-.35-.55-.52-1.1-.52-.36,0-.68.11-.97.32-.29.21-.51.5-.65.88-.1.3-.15.86-.15,1.67v2.51c0,.41-.09.71-.28.91-.19.2-.43.3-.73.3s-.53-.11-.71-.31c-.19-.21-.28-.51-.28-.9v-5.78c0-.38.08-.67.25-.85.17-.19.39-.28.68-.28.18,0,.33.04.48.12.14.08.26.21.34.37.08.17.13.37.13.61Z"/>
    <path class="b" d="M83.11,76.9v-.2c-.27.31-.54.56-.8.75-.26.19-.55.34-.85.44-.3.1-.64.15-1,.15-.48,0-.92-.1-1.33-.3-.41-.2-.76-.49-1.06-.87-.3-.38-.53-.82-.68-1.33-.15-.51-.23-1.06-.23-1.65,0-1.25.3-2.23.92-2.93.61-.7,1.41-1.05,2.41-1.05.58,0,1.06.1,1.46.3.4.2.78.5,1.16.91v-2.95c0-.41.08-.72.24-.93.16-.21.4-.32.7-.32s.54.1.7.29c.16.19.25.48.25.85v8.83c0,.38-.09.67-.26.86-.18.19-.4.29-.68.29s-.5-.1-.68-.3c-.18-.2-.27-.48-.27-.85ZM79.17,73.96c0,.54.08,1,.25,1.39.17.38.4.67.69.86.29.19.61.29.96.29.35,0,.67-.09.96-.28.29-.18.52-.46.7-.84.17-.38.26-.85.26-1.42,0-.53-.09-.99-.26-1.37-.17-.38-.41-.68-.7-.88-.29-.2-.62-.3-.97-.3-.37,0-.69.1-.98.31-.29.21-.51.51-.67.9-.16.39-.24.84-.24,1.35Z"/>
    <path class="b" d="M92.45,72.2l-3.66,4.1h3.92c.32,0,.56.07.72.22.16.15.24.34.24.57s-.08.41-.24.55c-.16.14-.4.21-.72.21h-5.42c-.38,0-.67-.08-.86-.25-.19-.17-.28-.39-.28-.68,0-.17.06-.34.2-.52.13-.17.41-.49.82-.96.44-.49.84-.93,1.2-1.33.36-.4.69-.77,1-1.11.31-.34.56-.64.77-.88.2-.24.37-.44.49-.62h-2.98c-.41,0-.72-.04-.93-.11-.21-.07-.32-.27-.32-.58,0-.23.08-.41.24-.55.16-.14.38-.21.68-.21h4.6c.42,0,.75.06.98.18.23.12.34.35.34.67,0,.11-.02.22-.07.33-.04.11-.09.21-.15.28-.05.07-.13.16-.22.27-.09.11-.21.23-.34.38Z"/>
    <path class="b" d="M102.13,73.97c0,.6-.09,1.15-.28,1.65-.19.5-.45.94-.81,1.3-.35.36-.77.64-1.26.83-.49.19-1.04.29-1.65.29-.61,0-1.15-.1-1.63-.29-.48-.2-.9-.47-1.26-.84-.35-.36-.62-.79-.81-1.29-.18-.5-.28-1.04-.28-1.65s.09-1.16.28-1.67c.19-.5.45-.93.8-1.29.35-.36.77-.63,1.26-.83.49-.19,1.04-.29,1.63-.29s1.16.1,1.65.29c.49.2.92.47,1.27.83.35.36.62.79.8,1.29.18.5.27,1.05.27,1.65ZM100.12,73.97c0-.82-.18-1.45-.54-1.91-.36-.46-.84-.68-1.45-.68-.39,0-.74.1-1.03.3-.3.2-.53.5-.69.9-.16.4-.24.86-.24,1.39s.08.98.24,1.37c.16.39.39.69.68.9.3.21.64.31,1.04.31.61,0,1.09-.23,1.45-.69.36-.46.54-1.09.54-1.9Z"/>
    <path class="b" d="M105.69,75.15v1.67c0,.41-.09.71-.29.91-.19.2-.43.3-.73.3-.29,0-.53-.1-.71-.31-.19-.21-.28-.51-.28-.91v-5.57c0-.9.32-1.35.97-1.35.33,0,.57.11.72.32.15.21.23.52.24.93.24-.41.48-.72.74-.93.25-.21.59-.32,1.01-.32s.83.11,1.22.31c.4.21.59.49.59.84,0,.25-.08.45-.25.61-.17.16-.35.24-.55.24-.07,0-.25-.04-.53-.13-.28-.09-.53-.14-.74-.14-.29,0-.53.08-.72.23-.19.15-.33.38-.43.69-.1.3-.17.66-.21,1.08-.04.42-.06.93-.06,1.53Z"/>
    <path class="b" d="M117.27,71.36v5.81c0,.66-.07,1.24-.21,1.72s-.37.87-.68,1.19c-.31.31-.72.54-1.23.7-.5.15-1.13.23-1.89.23-.69,0-1.3-.1-1.85-.29-.54-.19-.96-.44-1.25-.75-.29-.31-.44-.62-.44-.94,0-.24.08-.44.25-.6.17-.15.37-.23.6-.23.29,0,.55.13.77.39.11.13.22.27.33.4.12.13.24.25.38.34.14.1.31.17.5.21.2.05.42.07.67.07.52,0,.92-.07,1.21-.22.29-.14.49-.35.6-.61.11-.26.18-.54.2-.83.02-.29.03-.77.04-1.43-.31.43-.66.76-1.07.98-.4.23-.88.34-1.44.34-.67,0-1.25-.17-1.75-.51-.5-.34-.89-.82-1.16-1.44-.27-.62-.4-1.33-.4-2.13,0-.6.08-1.14.25-1.63s.4-.89.7-1.22c.3-.33.65-.58,1.05-.75.4-.17.83-.25,1.3-.25.57,0,1.06.11,1.47.33.41.22.8.56,1.16,1.02v-.27c0-.35.08-.62.26-.81.17-.19.39-.29.66-.29.39,0,.64.13.77.38.13.25.19.61.19,1.09ZM111.47,73.9c0,.81.18,1.42.53,1.84.35.42.81.62,1.37.62.33,0,.65-.09.94-.27.29-.18.54-.45.72-.81.19-.36.28-.79.28-1.31,0-.82-.18-1.45-.54-1.91-.36-.45-.83-.68-1.42-.68s-1.03.22-1.37.65c-.34.44-.52,1.05-.52,1.85Z"/>
  </g>
  <g>
    <polygon class="b" points="92.42 28.52 92.42 28.58 92.54 28.52 92.51 28.46 92.42 28.52"/>
    <polygon class="b" points="93.76 28.56 93.99 28.56 93.99 28.47 93.76 28.47 93.76 28.56"/>
    <polygon class="b" points="93.82 28.18 93.82 28.27 93.96 28.27 93.96 28.18 93.82 28.18"/>
    <path class="b" d="M95.74,28.05c-.25.02-.7.06-1.34.13.1.02.98-.02,2.64-.12-.31-.06-.74-.06-1.31-.01Z"/>
    <rect class="b" x="97.25" y="28.04" width=".09" height=".06"/>
    <polygon class="b" points="91.64 28.25 91.73 28.25 91.73 28.16 91.64 28.16 91.64 28.25"/>
    <polygon class="b" points="92.27 29.3 92.74 29.3 92.74 29.25 92.27 29.24 92.27 29.3"/>
    <path class="b" d="M91.89,30.2s.04-.09.06-.14h-.17c0,.1.04.14.12.14Z"/>
    <polygon class="b" points="92.37 28.46 91.96 28.46 91.96 28.54 92.36 28.55 92.37 28.46"/>
    <path class="b" d="M92.35,30.14s-.06,0-.06-.03c.02-.02.02-.03,0-.03-.04,0-.1.03-.17.09.23,0,.37,0,.41-.03-.02-.02-.05-.04-.09-.06,0,.04-.03.06-.09.06Z"/>
    <path class="b" d="M92.79,30.23h0s-.01,0,0,0Z"/>
    <polygon class="b" points="98.09 28.33 98.55 28.37 98.55 28.31 98.09 28.28 98.09 28.33"/>
    <polygon class="b" points="97.74 28.65 98.41 28.68 98.41 28.63 97.74 28.59 97.74 28.65"/>
    <polygon class="b" points="98.09 28.04 97.74 28.04 97.74 28.1 98.09 28.1 98.09 28.04"/>
    <polygon class="b" points="98.24 28.07 98.24 28.16 98.44 28.16 98.44 28.08 98.24 28.07"/>
    <polygon class="b" points="98.14 29.03 97.94 29.03 97.94 29.09 98.14 29.09 98.14 29.03"/>
    <polygon class="b" points="98.29 32.49 98.34 32.52 98.4 32.34 98.37 32.32 98.29 32.49"/>
    <path class="b" d="M96.6,29.96h.02s0,0,0,0c0,0-.01,0-.02,0Z"/>
    <path class="b" d="M97.17,29.89c.08.02.19.01.35-.03-.06-.08-.13-.12-.2-.12-.04.02-.09.07-.15.14Z"/>
    <polygon class="b" points="98.14 32.75 98.2 32.75 98.22 32.66 98.17 32.63 98.14 32.75"/>
    <polygon class="b" points="95.65 35.28 95.23 35.98 95.29 36.01 95.71 35.28 95.65 35.28"/>
    <polygon class="b" points="96.3 33.81 96.36 33.84 96.39 33.75 96.36 33.72 96.3 33.81"/>
    <polygon class="b" points="101.61 27.52 101.46 27.52 101.46 27.61 101.61 27.61 101.61 27.52"/>
    <polygon class="b" points="96.41 37.38 96.47 37.41 96.53 37.3 96.47 37.29 96.41 37.38"/>
    <polygon class="b" points="95.92 34.47 95.71 34.82 95.77 34.85 95.94 34.5 95.92 34.47"/>
    <polygon class="b" points="95.46 39.93 95.49 39.93 95.55 39.84 95.49 39.81 95.46 39.93"/>
    <polygon class="b" points="95.34 40.13 95.4 40.16 95.46 39.99 95.43 39.96 95.34 40.13"/>
    <path class="b" d="M95.29,27.64c-.86.07-1.51.1-1.93.1.23.04.58.04,1.05,0,.48-.04.83-.05,1.05-.05,2.03.02,3.18.05,3.45.09-.31-.16-.87-.24-1.68-.25-.43,0-1.07.03-1.93.1Z"/>
    <polygon class="b" points="96.43 35.46 96.49 35.47 96.64 35.21 96.58 35.17 96.43 35.46"/>
    <polygon class="b" points="95.55 39.81 95.58 39.84 95.84 39.41 95.79 39.38 95.55 39.81"/>
    <polygon class="b" points="95.88 34.85 95.94 34.88 96.24 34.33 96.21 34.3 95.88 34.85"/>
    <polygon class="b" points="94.94 36.5 95 36.53 95.26 36.04 95.2 36.01 94.94 36.5"/>
    <path class="b" d="M101.84,24.24c-.08.08-.12.14-.12.2h.12v-.2Z"/>
    <polygon class="b" points="96.8 36.72 96.82 36.75 96.88 36.66 96.83 36.63 96.8 36.72"/>
    <polygon class="b" points="97.44 35.53 97.5 35.56 97.56 35.45 97.5 35.45 97.44 35.53"/>
    <polygon class="b" points="101.66 25.75 101.57 25.75 101.57 25.81 101.65 25.81 101.66 25.75"/>
    <polygon class="b" points="96.87 34.77 96.93 34.77 97.2 34.25 97.14 34.25 96.87 34.77"/>
    <polygon class="b" points="97.24 35.94 97.27 35.97 97.33 35.85 97.27 35.85 97.24 35.94"/>
    <polygon class="b" points="97.39 35.68 97.41 35.71 97.47 35.59 97.42 35.59 97.39 35.68"/>
    <polygon class="b" points="97.17 34.22 97.23 34.25 97.34 34.08 97.28 34.05 97.17 34.22"/>
    <polygon class="b" points="101.66 25.6 101.57 25.6 101.57 25.66 101.66 25.66 101.66 25.6"/>
    <polygon class="b" points="82.38 17.19 82.38 17.27 82.62 17.15 82.58 17.11 82.38 17.19"/>
    <polygon class="b" points="81.68 17.59 81.72 17.67 81.89 17.55 81.84 17.51 81.68 17.59"/>
    <path class="b" d="M83.73,16.43c-.03.06-.07.08-.12.08v.2l.49-.24c-.33,0-.45-.02-.37-.04Z"/>
    <polygon class="b" points="84.44 14.72 82.88 15.93 82.92 16.01 84.48 14.76 84.44 14.72"/>
    <path class="b" d="M79.67,18.59c.16-.02.41-.09.74-.2-.03-.05-.07-.11-.12-.16-.16.05-.37.17-.62.36Z"/>
    <path class="b" d="M87.42,10.9l-.12.12c-.08,0-.15.03-.2.08.14,0,.25-.07.33-.2Z"/>
    <path class="b" d="M89.13,29.97c0-.08.03-.12.09-.11.06,0,.14.02.23.06.04.04.09.08.14.12.04-.08.26-.15.67-.23-.48-.18-.87-.27-1.16-.27-.02,0-.04.01-.06.04-.02.03-.04.04-.06.04l-.15-.06c-.06-.04-.16-.02-.32.05.02.08.05.18.09.32.21,0,.38.01.52.03Z"/>
    <path class="b" d="M91.33,24.5c.06,0,.12.04.2.1.08.07.13.1.14.1.04,0,.09-.02.15-.07.06-.05.11-.07.15-.07l.06.09c.06,0,.22.02.49.06.17.02.34.02.49,0l.06-.06c.19.04.47.05.84.04.33-.02.62-.02.87-.02l.12-.06s.21.05.52.03c-.83-.26-1.75-.35-2.76-.29-.06-.04-.16-.06-.29-.06-.33,0-.82.08-1.48.25.06,0,.13,0,.22-.03.09-.02.16-.03.22-.03Z"/>
    <path class="b" d="M77.54,37.85c0-.05.01-.12.04-.2l.04.08c.05,0,.18-.04.37-.12,0-.16-.08-.35-.24-.57l-.04.08c0-.08.04-.22.13-.41-.16-.03-.28.13-.35.47-.07.34-.13.52-.19.55-.03-.05-.08-.12-.16-.21-.03.11.01.24.12.39.11.15.22.21.32.19-.03-.08-.04-.16-.04-.25Z"/>
    <rect class="b" x="77.33" y="29.32" width=".08" height=".41"/>
    <path class="b" d="M82.5,12.94l-.08.12c.49-.38,1.25-.94,2.26-1.69-.3.05-1.13.58-2.51,1.57.11,0,.19-.02.25-.08l.08.08Z"/>
    <polygon class="b" points="83.67 13.77 83.92 13.65 83.88 13.57 83.67 13.69 83.67 13.77"/>
    <rect class="b" x="87.21" y="15.15" width=".08" height=".16" transform="translate(71.23 102.34) rotate(-89.48)"/>
    <polygon class="b" points="82.53 14.05 82.82 13.89 82.78 13.8 82.49 13.96 82.53 14.05"/>
    <polygon class="b" points="95.32 25.84 95.58 25.84 95.58 25.75 95.32 25.75 95.32 25.84"/>
    <polygon class="b" points="83.55 13.89 83.63 13.77 83.55 13.73 83.51 13.85 83.55 13.89"/>
    <polygon class="b" points="82.42 12.04 82.34 12.04 82.26 12.17 82.34 12.21 82.42 12.04"/>
    <polygon class="b" points="84.65 13.7 85.27 13.25 85.23 13.17 84.61 13.66 84.65 13.7"/>
    <path class="b" d="M85.9,15.87c.6-.16,1.02-.36,1.27-.6-.22.05-.53.17-.94.36-.14.08-.74.27-1.8.56.9-.18,1.39-.29,1.47-.31Z"/>
    <rect class="b" x="83.3" y="11.46" width=".08" height=".12" transform="translate(71.14 94.77) rotate(-89.53)"/>
    <polygon class="b" points="100.58 29 100.55 28.99 100.49 29.08 100.55 29.11 100.58 29"/>
    <polygon class="b" points="99.39 29.25 99.45 29.27 99.62 28.99 99.56 28.99 99.39 29.25"/>
    <path class="b" d="M94.56,26.68h.32c2.32.02,3.84.09,4.56.22-.62-.16-1.55-.25-2.79-.26-.62,0-1.32,0-2.09.04Z"/>
    <polygon class="b" points="99.33 29.39 99.39 29.42 99.42 29.27 99.36 29.27 99.33 29.39"/>
    <path class="b" d="M100.64,29.2c.02.1.05.14.09.12.06-.12.13-.26.21-.43-.02-.02-.03-.06-.03-.12l-.27.43Z"/>
    <polygon class="b" points="100.55 29.49 100.61 29.52 100.69 29.37 100.64 29.34 100.55 29.49"/>
    <polygon class="b" points="97.18 26.38 97.18 26.44 97.38 26.44 97.38 26.38 97.18 26.38"/>
    <polygon class="b" points="96.04 27.21 96.04 27.15 95.8 27.15 95.8 27.21 96.04 27.21"/>
    <path class="b" d="M97.58,26.38c.73.1,1.39.23,1.97.37-.91-.24-1.57-.36-1.97-.37Z"/>
    <polygon class="b" points="96.94 27.19 96.94 27.13 96.59 27.13 96.59 27.19 96.94 27.19"/>
    <polygon class="b" points="100.34 26.29 100.4 26.15 100.43 26.15 100.46 26.06 100.43 26.03 100.37 26.15 100.34 26.15 100.29 26.29 100.34 26.29"/>
    <path class="b" d="M100.96,28.82c.04-.12.09-.28.15-.49-.12.23-.18.39-.18.46,0,.02,0,.03.03.03Z"/>
    <polygon class="b" points="95.87 25.76 95.61 25.75 95.61 25.84 95.87 25.85 95.87 25.76"/>
    <path class="b" d="M100.32,25.45s-.03-.12-.14-.23c.04-.04.05-.08.03-.12-.25.04-.44.05-.55.05.08,0,.13.05.17.15v.12c-.33,0-.5-.07-.49-.21,0-.06.03-.11.09-.14-.08,0-.22-.03-.44-.09l-.21.2.09.03s-.12.02-.23,0c.23.06.73.22,1.51.48l.18-.23Z"/>
    <path class="b" d="M99.73,26.29c.06-.02.19-.11.41-.29l-.03-.2c-.48-.08-.85-.12-1.1-.12-.23,0-.38.03-.44.08.16.04.39.13.7.27-.17-.02-.6-.08-1.28-.19-.54-.08-.98-.12-1.31-.13-.08,0-.19,0-.35.03-.15.02-.27.03-.35.03,1.24.01,2.1.08,2.58.2.87.22,1.25.33,1.16.33Z"/>
    <path class="b" d="M96.38,24.51s-.07.07-.09.14h.26s-.1-.09-.17-.14Z"/>
    <rect class="b" x="100.9" y="26.12" width=".15" height=".15" transform="translate(74.09 126.98) rotate(-89.61)"/>
    <polygon class="b" points="100.45 27.08 100.54 26.93 100.48 26.9 100.39 27.05 100.45 27.08"/>
    <polygon class="b" points="100.81 26.03 100.75 26 100.66 26.18 100.72 26.21 100.81 26.03"/>
    <polygon class="b" points="100.69 26.73 100.63 26.7 100.51 26.84 100.57 26.9 100.69 26.73"/>
    <path class="b" d="M92.28,45.04l.09.03c.33-.42,1.24-1.88,2.71-4.36-.82,1.13-1.98,2.91-3.47,5.31.45-.33.67-.65.68-.98Z"/>
    <rect class="b" x="89.14" y="50.7" width=".06" height=".09" transform="translate(35.41 138.12) rotate(-88.05)"/>
    <polygon class="b" points="96.9 47.87 96.9 47.79 96.82 47.78 96.82 47.84 96.82 47.87 96.9 47.87"/>
    <path class="b" d="M87.66,48.08c.17.1.22.15.14.15.29,0,.46-.03.5-.08-.06-.16-.24-.21-.55-.18-.02.06-.05.1-.09.12Z"/>
    <polygon class="b" points="89.24 46.93 89.21 46.99 89.39 47.11 89.42 47.05 89.24 46.93"/>
    <polygon class="b" points="89.61 44.73 89.55 44.73 89.52 44.82 89.55 44.84 89.61 44.73"/>
    <path class="b" d="M89.68,51.14c.18.02.36.05.55.06-.2-.02-.37-.04-.55-.06Z"/>
    <polygon class="b" points="90.65 45.61 90.77 45.35 90.71 45.35 90.59 45.58 90.65 45.61"/>
    <polygon class="b" points="90.49 43.87 90.43 43.87 90.17 44.27 90.22 44.3 90.49 43.87"/>
    <polygon class="b" points="91.25 47.1 91.36 47.1 91.36 47.04 91.25 47.04 91.25 47.1"/>
    <path class="b" d="M91.15,44.16c-.33.5-.74,1.11-1.24,1.82.06.02.11.02.15,0,.31-.44.68-1.05,1.09-1.82Z"/>
    <path class="b" d="M87.34,48.02l-.03.15h.21c-.04-.1-.1-.15-.17-.15Z"/>
    <path class="b" d="M94.78,48.41c-.78,0-1.43.09-1.98.3,1.12.24,2.36.37,3.71.38,1.08.01,2.71-.09,4.87-.29,2.16-.2,3.78-.3,4.87-.29l.06-.14-.64.11-.09-.09h-.49s.93-.2.93-.2h-.58s-.06-.12-.06-.12l-.09.09-.03-.06c-.33-.04-.7,0-1.1.14l-.09-.06s-.04,0-.06.01v.04s-.18,0-.18,0h0c-.12.02-.27.03-.46.03-.19,0-.49-.02-.9-.05-.41-.03-.71-.05-.9-.05-.62,0-1.08.09-1.37.28l-.09-.09c-.35.11-1.06.18-2.12.21l-.09-.09c-.45.05-.93.08-1.45.07l-.09.06c-.08.02-.53.05-1.37.1-.54.03-1,.02-1.36-.04.58-.05,1.4-.11,2.47-.15-.49-.06-.93-.09-1.34-.1Z"/>
    <polygon class="b" points="89.46 44.96 89.41 44.93 89.37 45.05 89.4 45.05 89.46 44.96"/>
    <polygon class="b" points="96.67 47.9 96.81 47.9 96.82 47.84 96.67 47.84 96.67 47.9"/>
    <path class="b" d="M104.87,50.12c-.5.03-.9.04-1.19.02l.29-.06c-1.28.12-2.75.18-4.42.16-.7,0-1.74-.03-3.12-.07-1.38-.04-2.42-.07-3.12-.07-.74,0-1.41,0-2,.01l.46.15-1.42.08v.03c.68.08,1.3.13,1.86.13.29,0,.56,0,.81-.02l.14.15.47-.08-.43-.15h2.06s-.5.1-.5.1l.64-.07v-.04s.09-.06.09-.06l.03.06-.08.04.87-.09h.2s-.58.11-.58.11c.78-.05,2.6-.06,5.49-.04,2.25.02,4.04-.08,5.38-.29-.22-.03-.45-.05-.71-.05-.21,0-.62.01-1.22.05Z"/>
    <path class="b" d="M104.02,48.14h-.17s0,.09,0,.09c.07-.01.13-.03.18-.04v-.04Z"/>
    <polygon class="b" points="91.45 43.73 91.39 43.73 91.33 43.84 91.39 43.87 91.45 43.73"/>
    <path class="b" d="M88.62,48.09c.08-.06.14-.09.17-.09.02,0,.04,0,.07.03.03.02.05.03.07.03l-.23-.15c-.09,0-.19.04-.29.11.08.08.14.1.2.06Z"/>
    <polygon class="b" points="89.34 45.13 89.29 45.13 88.84 45.91 88.9 45.91 89.34 45.13"/>
    <path class="b" d="M87.99,47.04l.06.09c.14-.02.33-.04.58-.05-.04-.06-.1-.12-.17-.18-.04.02-.09.06-.15.12-.08-.06-.42-.12-1.04-.18v.09h-.12s-.05-.06-.09-.06c-.08,0-.16.08-.26.23.39.12.54.18.46.18.06,0,.3-.08.73-.23Z"/>
    <path class="b" d="M90.37,47.03h-.17s.01-.09.03-.15c-.21,0-.36.04-.44.11.1.1.23.15.41.15.04,0,.1-.04.18-.12Z"/>
    <polygon class="b" points="94.88 36.64 94.82 36.61 94.73 36.73 94.79 36.79 94.88 36.64"/>
    <polygon class="b" points="94.11 38.2 94.05 38.17 93.58 38.95 93.64 38.98 94.11 38.2"/>
    <polygon class="b" points="91.54 43.58 91.62 43.47 91.57 43.44 91.48 43.56 91.54 43.58"/>
    <polygon class="b" points="92.05 40.8 92 40.77 91.91 40.94 91.97 40.97 92.05 40.8"/>
    <polygon class="b" points="95.03 36.03 94.97 36 94.74 36.41 94.79 36.44 95.03 36.03"/>
    <path class="b" d="M97.92,51.16h-.23c-.16.02-.27.02-.35.02.35,0,.54,0,.58-.02Z"/>
    <polygon class="b" points="91.85 41.09 91.82 41.09 91.64 41.38 91.7 41.41 91.85 41.09"/>
    <polygon class="b" points="95.71 34.94 95.65 34.91 95.21 35.69 95.24 35.72 95.71 34.94"/>
    <polygon class="b" points="95.21 35.72 95.18 35.71 95.12 35.83 95.18 35.86 95.21 35.72"/>
    <polygon class="b" points="95.14 40.48 95.22 40.48 95.25 40.31 95.2 40.3 95.14 40.48"/>
    <polygon class="b" points="91.86 43.07 91.92 42.92 91.86 42.92 91.83 43.06 91.86 43.07"/>
    <polygon class="b" points="93.58 38.98 93.52 38.98 90.46 43.84 90.52 43.87 93.58 38.98"/>
    <polygon class="b" points="93.24 41.3 93.33 41.19 93.27 41.16 93.18 41.27 93.24 41.3"/>
    <polygon class="b" points="91.77 43.27 91.8 43.15 91.74 43.15 91.71 43.24 91.77 43.27"/>
    <polygon class="b" points="91.35 41.93 91.29 41.9 90.61 43.05 90.67 43.05 91.35 41.93"/>
    <polygon class="b" points="90.64 43.08 90.58 43.05 90.55 43.14 90.58 43.17 90.64 43.08"/>
    <polygon class="b" points="91.61 41.52 91.56 41.49 91.5 41.61 91.55 41.61 91.61 41.52"/>
    <polygon class="b" points="91.46 41.78 91.41 41.75 91.35 41.84 91.41 41.87 91.46 41.78"/>
    <polygon class="b" points="91.61 41.41 91.58 41.49 91.61 41.52 91.67 41.41 91.61 41.41"/>
    <polygon class="b" points="94.76 36.82 94.73 36.79 94.67 36.9 94.73 36.9 94.76 36.82"/>
    <path class="b" d="M96.47,40.43c-.04.06-.11.11-.2.14.02.02.03.05.03.09.1-.04.16-.12.18-.23Z"/>
    <path class="b" d="M94.96,43.58c-.08-.02-.11-.08-.09-.17l.09.06c.04-.13.12-.26.23-.38.16-.41.26-.72.3-.96-.04.02-.12.07-.23.14.02.04-.03.11-.15.2-.12.09-.19.21-.21.33-.02.12-.04.26-.06.39l-.35.43c-.06.19-.16.45-.3.78v.15c.06,0,.12,0,.17-.03-.04-.31.16-.63.59-.96Z"/>
    <polygon class="b" points="93.08 46.56 92.9 46.56 92.9 46.62 93.08 46.62 93.08 46.56"/>
    <path class="b" d="M96.68,39.97l.15-.12c.12-.25.3-.58.53-.98-.04,0-.08-.02-.12-.06-.22.33-.46.81-.74,1.45.1-.06.18-.14.23-.26-.04,0-.06,0-.06-.03Z"/>
    <polygon class="b" points="106.34 47.78 106.26 47.81 106.26 47.87 106.34 47.81 106.34 47.78"/>
    <polygon class="b" points="98.65 47.16 98.83 47.19 98.83 47.13 98.65 47.1 98.65 47.16"/>
    <polygon class="b" points="102.17 46.52 102.05 46.52 102.05 46.61 102.17 46.61 102.17 46.52"/>
    <polygon class="b" points="98.69 46.29 98.4 46.29 98.4 46.35 98.69 46.35 98.69 46.29"/>
    <polygon class="b" points="92.5 46.56 92.32 46.55 92.32 46.61 92.5 46.61 92.5 46.56"/>
    <path class="b" d="M94.03,47.53l.09-.03v.03c.31,0,.77-.03,1.38-.09.61-.06,1.07-.09,1.38-.09.27,0,.46.03.58.09-.04,0-.52.06-1.45.19.31,0,1.24-.02,2.79-.06l-.32-.15c.27-.08.59-.11.96-.11.25,0,.53.02.84.07-.2.08-.48.12-.84.14.46,0,1.15-.02,2.06-.08.91-.06,1.6-.09,2.06-.08.52,0,1,.04,1.42.1l.09-.12h-.55c.25-.06.52-.09.81-.09.27,0,.57.04.9.09-.17-.17-.55-.26-1.13-.27-.04,0-.4.02-1.07.05-.37.02-.66.01-.87,0l.26-.03c-.08,0-.58-.03-1.51-.07-.48-.02-.99-.03-1.51-.01-.64.01-1.14.05-1.51.1l.73.09-.06.09c-3.39-.11-5.37-.03-5.96.24h.44Z"/>
    <path class="b" d="M93.23,45.66c.21.21.36.32.43.32.1,0,.17-.07.23-.2-.02.02-.17.02-.46,0,.04-.1.11-.14.2-.14.08,0,.16.02.23.06-.04-.19.08-.51.36-.95-.08-.08-.12-.16-.11-.23-.23.02-.37.16-.41.43,0,.04-.01.09-.03.15-.1.09-.23.24-.41.43.04.04.07.08.09.12-.04-.04-.08-.03-.12.03Z"/>
    <polygon class="b" points="82.37 13.07 82 13.27 82.04 13.35 82.41 13.11 82.37 13.07"/>
    <polygon class="b" points="92.98 44.44 93.01 44.47 93.07 44.38 93.01 44.35 92.98 44.44"/>
    <path class="b" d="M92.05,47.45s-.08,0-.12.03c-.04.02-.08.03-.12.03h-.78c-.12,0-.27-.02-.46-.04h-.32c.85.1,1.56.16,2.12.16.5,0,.88-.03,1.13-.11-.06-.06-.26-.08-.61-.06-.02.08-.04.12-.06.12-.04,0-.08-.03-.12-.09l-.09.06c-.13-.02-.29-.04-.46-.06-.06-.02-.1-.03-.12-.03Z"/>
    <polygon class="b" points="95.08 40.65 95.13 40.65 95.19 40.48 95.11 40.48 95.08 40.65"/>
    <polygon class="b" points="92.48 45.22 92.54 45.22 92.6 45.13 92.54 45.1 92.48 45.22"/>
    <polygon class="b" points="92.33 45.42 92.39 45.45 92.51 45.25 92.45 45.22 92.33 45.42"/>
    <polygon class="b" points="92.19 45.68 92.24 45.71 92.3 45.59 92.25 45.59 92.19 45.68"/>
    <polygon class="b" points="92.22 45.71 92.16 45.68 92.01 45.97 92.07 46 92.22 45.71"/>
    <polygon class="b" points="92.27 45.57 92.33 45.59 92.36 45.51 92.3 45.48 92.27 45.57"/>
    <polygon class="b" points="106.83 49.06 106.91 49.15 106.97 49.12 106.88 49 106.83 49.06"/>
    <path class="b" d="M102.79,47.76c.29,0,.5-.01.64-.03-.09,0-.31.01-.64.03Z"/>
    <polygon class="b" points="106.43 47.87 106.37 47.87 106.34 47.95 106.37 47.98 106.43 47.87"/>
    <rect class="b" x="99.43" y="48.18" width=".12" height=".06"/>
    <path class="b" d="M106.22,48.88c-.17-.04-.37-.06-.58-.06-.27,0-.67.04-1.19.12-.52.08-.92.12-1.19.12-3.25-.03-5.22-.02-5.9.04.74-.03,1.85-.02,3.34.03-.37.06-1.78.1-4.24.14l-.09.12,3.63-.09c1.3-.03,2.51,0,3.63.06l-.79.05c.29-.02,1.33-.07,3.1-.15-.12,0-.23-.02-.34-.05l.76-.11-.64-.06.5-.14Z"/>
    <polygon class="b" points="99.75 48.27 99.75 48.25 99.66 48.19 99.66 48.24 99.75 48.27"/>
    <rect class="b" x="98.95" y="47.73" width=".06" height=".09" transform="translate(49.73 146.03) rotate(-89.14)"/>
    <path class="b" d="M98.58,48.23c.06,0,.14.03.26.09,0-.02,0-.05.03-.09h-.29Z"/>
    <path class="b" d="M106.85,46.07s.07-.03.09-.03c.08,0,.17.03.29.09.14,0,.24-.08.32-.23-.13,0-.54-.02-1.22-.07l.43.24h.09Z"/>
    <path class="b" d="M102.13,47.76c-.14,0-.3-.02-.49-.04-.33-.03-.56-.05-.7-.05-.04,0-.09,0-.16.03-.07.02-.12.03-.16.03h-1.6c1.32.02,2.35.03,3.11.03Z"/>
    <path class="b" d="M100.14,48.28s0-.03.04-.03h.12c-.1,0-.24-.01-.43-.03.13.06.21.09.23.09.04,0,.05,0,.04-.03Z"/>
    <polygon class="b" points="106.63 48.62 106.8 48.63 106.8 48.57 106.63 48.57 106.63 48.62"/>
    <polygon class="b" points="97.04 49.12 97.04 49.18 97.3 49.18 97.3 49.12 97.04 49.12"/>
    <polygon class="b" points="106.52 47.64 106.49 47.72 106.52 47.75 106.58 47.67 106.52 47.64"/>
    <rect class="b" x="97.71" y="48.26" width=".12" height=".06"/>
    <path class="b" d="M103.13,49.75s.06.02.09.07c.08,0,.45-.02,1.1-.08.45-.04.81-.04,1.1-.02l.03.03-.06-.09c-.87.04-1.61.07-2.27.09Z"/>
    <polygon class="b" points="99.99 49.79 100.25 49.79 100.25 49.73 99.99 49.73 99.99 49.79"/>
    <polygon class="b" points="100.89 49.8 100.89 49.74 100.69 49.73 100.69 49.79 100.89 49.8"/>
    <path class="b" d="M100.98,49.77c.39.06,1.07.08,2.06.05.01-.04.03-.05.04-.06-.88.02-1.6.03-2.1.02Z"/>
    <polygon class="b" points="100.6 49.79 100.6 49.73 100.34 49.73 100.34 49.79 100.6 49.79"/>
    <polygon class="b" points="78.36 14.66 78.03 14.74 78.03 14.82 78.4 14.71 78.36 14.66"/>
    <rect class="b" x="8.17" y="27.03" width=".08" height=".2"/>
    <polygon class="b" points="35.57 39.21 35.6 39.24 35.71 39.14 35.67 39.11 35.57 39.21"/>
    <path class="b" d="M34.29,41.51c-.3.11-.52.28-.69.51.02,0,.07.01.14.04.07.02.12.03.17.04.25,0,.38-.12.38-.37v-.21Z"/>
    <path class="b" d="M27.81,19.18v-.24s-.27,0-.27,0l.03.51c.05-.07.13-.16.24-.27Z"/>
    <rect class="b" x="33.01" y="39.8" width=".07" height=".1"/>
    <path class="b" d="M81.84.13c-.48.04-.95.09-1.41.14.31.02.71,0,1.41-.14Z"/>
    <path class="b" d="M27.57,30.28l.1.14c.06,1.2.1,2.42.14,3.65.1,1.41.33,2.59.68,3.55.47,1.3,1.15,2.08,2.06,2.33l.71.21c.23.09.42.23.58.42.39-.36,1-.87,1.82-1.52l.21-.58.07.07c1.38-1.76,2.07-3.56,2.09-5.4,0-.77-.12-1.5-.39-2.18.02-.09-.09-.55-.33-1.37-.18,0-.27-.04-.27-.1,0-.02.01-.03.04-.03.04-.02.1-.02.17,0-.26-1-.84-2.24-1.74-3.73-.29-.43-1.05-1.6-2.29-3.49-1.03,1.08-1.79,3.22-2.27,6.42,0,.07-.23,2.45-.68,7.15-.08-.93-.12-1.84-.11-2.73.03-3.59.72-6.74,2.06-9.45.49-.97.73-1.55.73-1.73,0-.29-.13-.56-.4-.79-.87.79-1.43,1.95-1.67,3.5l-.27.3-.15,1.22-.28.37c.09.14.12.29.1.44-.05.18-.16.27-.34.27l-.03-.48c-.26.57-.38,1.14-.39,1.73,0,.52.08.99.26,1.4l-.21.41ZM35.1,30.93h.21s0,.07,0,.07h-.21s0-.07,0-.07Z"/>
    <path class="b" d="M33.72,40.25c-.14,0-.3.12-.48.37.23.07.45-.02.68-.27-.05-.07-.11-.1-.2-.1Z"/>
    <path class="b" d="M33.86,43.79h.17s-.03-.05-.1-.1c-.02.02-.05.06-.07.1Z"/>
    <polygon class="b" points="32.83 40.96 32.86 40.99 32.93 40.86 32.87 40.86 32.83 40.96"/>
    <rect class="b" x="26.06" y="35.69" width=".07" height=".17"/>
    <polygon class="b" points="8.11 24.21 8.03 24.21 8.02 24.87 8.11 24.87 8.11 24.21"/>
    <polygon class="b" points="8.15 24.91 8.06 24.91 8.02 25.07 8.1 25.07 8.15 24.91"/>
    <polygon class="b" points="8.18 25.97 8.1 25.97 8.13 26.34 8.22 26.34 8.18 25.97"/>
    <polygon class="b" points="8.1 25.28 8.1 25.89 8.18 25.89 8.14 25.28 8.1 25.28"/>
    <polygon class="b" points="26.06 35.55 26.03 35.45 25.96 35.48 26.03 35.55 26.06 35.55"/>
    <path class="b" d="M19.33,21c.19-.11.31.15.36.78v-1.27c.07-.08.08-.18.05-.29-.08-.03-.14-.05-.16-.08,0,.08-.03.2-.08.37-.11-.22-.25-.55-.44-.98-.06,0-.08.04-.08.12,0,.49.14.87.44,1.15-.06.05-.08.12-.08.2Z"/>
    <path class="b" d="M26.27,27.44s-.03-.01-.03-.03c.02-.07.06-.16.1-.27.02-.11.02-.32,0-.61-.02-.36-.05-.56-.1-.58-.02.09-.07.21-.14.37l.06,1.57c0-.18.04-.33.11-.44Z"/>
    <path class="b" d="M19.44,21.9c0,.6-.09,1.22-.26,1.88.2-.49.29-1.04.3-1.67,0-.33-.02-.67-.07-1.02.02.27.04.55.03.82Z"/>
    <path class="b" d="M29.91,19.88c.07.02.14.08.2.17l.1-.1-.03-.07h.14c.02-.07.05-.17.07-.3-.02-.14-.04-.36-.06-.68l.07-.58-.07-.14c.27-.13.41-.69.42-1.67-.07,0-.14-.04-.2-.1-.02.02-.16.1-.41.23-.14.07-.21.19-.21.37,0,.16.04.4.13.72.09.32.13.56.13.72,0,.14-.04.23-.1.27.07.23.08.38.03.44-.02-.07-.07-.17-.13-.31-.05,0-.1.1-.17.31l-.06-.17c-.05.09-.13.19-.24.3-.07.23-.11.74-.12,1.53l.62-.5c-.11-.09-.15-.24-.1-.44ZM30.62,16.82v.31c0,.07-.04.19-.12.37-.08.18-.12.31-.12.37,0-.32.08-.67.25-1.05Z"/>
    <path class="b" d="M55.96,19.34c.04-.08.16-.11.35-.09.17.02.29.03.38.04-.19-.13-.39-.19-.6-.19-.1,0-.22.02-.35.06l.09.19h.13Z"/>
    <path class="b" d="M45.42,27.36s-.08.06-.13.12c.04.02.11.04.22.07v-.32c-.08-.08-.16-.13-.25-.13-.02.04-.03.11-.03.19.02-.02.06-.05.13-.09.04.04.06.09.06.16Z"/>
    <path class="b" d="M56.65,20.48v-.16s-.09-.11-.15-.19c-.06.19-.08.31-.03.38l.19-.03Z"/>
    <path class="b" d="M56.54,21.84c0-.13-.06-.19-.19-.19-.02-.02-.04-.08-.06-.19-.25-.11-.42-.16-.5-.16-.04,0-.09.03-.16.09.13.02.33.08.6.16l-.09.09-.57.09c.29.09.54.13.73.13.1,0,.19,0,.25-.03Z"/>
    <path class="b" d="M56.11,21.11c-.02-.1,0-.17.03-.23-.06,0-.24.01-.57.01,0,.15.18.22.53.22Z"/>
    <path class="b" d="M56.28,19.73s-.06.04-.06.12l-.09-.03c-.06,0-.14.03-.22.09.1.04.24.06.41.07-.02-.06-.03-.15-.03-.25Z"/>
    <polygon class="b" points="56.56 19.38 56.4 19.44 56.4 19.5 56.56 19.44 56.56 19.38"/>
    <polygon class="b" points="56.42 21.18 56.2 21.14 56.2 21.21 56.42 21.24 56.42 21.18"/>
    <polygon class="b" points="56.34 19.91 56.34 20.01 56.4 20.01 56.4 19.92 56.34 19.91"/>
    <path class="b" d="M50.95,22.83s.01-.07.03-.09c.02.02.03.05.03.09h.16c-.02-.08-.11-.19-.28-.32-.09.08-.13.17-.13.25.06,0,.1,0,.13-.03.04.02.06.05.06.1Z"/>
    <polygon class="b" points="47.22 38.22 47.22 38.5 47.31 38.51 47.32 38.22 47.22 38.22"/>
    <path class="b" d="M47.25,38.73c.06-.02.13-.02.19,0-.08-.17-.12-.24-.12-.22l-.06.22Z"/>
    <polygon class="b" points="47.23 37.56 47.16 37.56 47.16 37.68 47.23 37.68 47.23 37.56"/>
    <path class="b" d="M46.91,23.68c.06-.04.2-.14.41-.31-.15-.06-.26-.17-.34-.32l.13-.12s.08-.06.13-.06c.02,0,.05.01.09.03.02,0,.03-.02.03-.05,0-.03.01-.05.03-.05.04,0,.09.02.16.06v-.41c-.21-.06-.41-.1-.59-.1-.1,0-.12-.03-.03-.09l-.1.09c-.08-.08-.15-.11-.19-.06-.11.08-.17.12-.19.12.02.15.02.27,0,.38-.02.06-.04.16-.06.28,0,.11.06.23.18.38.12.15.24.22.35.22Z"/>
    <path class="b" d="M46.81,31.09c.06-.06.12-.09.16-.09-.02-.02-.06-.14-.12-.35-.06.15-.08.29-.04.44Z"/>
    <polygon class="b" points="47.41 41.57 47.32 41.56 47.32 41.88 47.41 41.88 47.41 41.57"/>
    <polygon class="b" points="47.35 41.34 47.29 41.34 47.29 41.47 47.35 41.47 47.35 41.34"/>
    <path class="b" d="M47.28,38.95c0,.97.11,2.03.35,3.19l.16-.09c-.1-.38-.22-1.47-.35-3.28-.11.02-.16.08-.16.19Z"/>
    <rect class="b" x="47.38" y="41.97" width=".06" height=".13"/>
    <polygon class="b" points="9.13 33.98 9.05 33.98 9.09 34.31 9.17 34.31 9.13 33.98"/>
    <path class="b" d="M10.21,26.85h.16c.03-.08.04-.2.04-.37-.05.03-.12.07-.2.12v.25Z"/>
    <polygon class="b" points="9.51 42.03 9.55 42.03 9.55 41.79 9.51 41.79 9.51 42.03"/>
    <polygon class="b" points="9.29 34.35 9.4 35.86 9.44 35.86 9.33 34.35 9.29 34.35"/>
    <path class="b" d="M10.56,19.95l.28.49.25-.24.32,4.99c.05.74.15,1.1.32,1.11.22,0,1.34-1.15,3.36-3.44,2.02-2.3,3.03-3.61,3.04-3.94,0-.71-.6-1.46-1.82-2.26-.08-.08-.99-.61-2.72-1.58l-.08.08c-.46-.25-.9-.37-1.3-.38-.19,0-.33.04-.41.12-.28,1.33-.76,3.02-1.43,5.05l-.53.2c-.12.71-.17,1.33-.18,1.88-.01,1.14.2,1.96.63,2.46.02-2.56.12-4.07.28-4.53Z"/>
    <path class="b" d="M9.55,32.52c.05-.14.08-.3.09-.49,0-.33-.08-.72-.23-1.19,0,.76.04,1.32.15,1.68Z"/>
    <path class="b" d="M56.73,21.62c0-.06.02-.12.06-.16h-.32c.08,0,.17.05.25.16Z"/>
    <rect class="b" x="9.12" y="34.76" width=".08" height=".08"/>
    <polygon class="b" points="9.05 33.94 9.13 33.94 9.13 33.82 9.05 33.82 9.05 33.94"/>
    <rect class="b" x="9.12" y="34.92" width=".08" height=".16"/>
    <path class="b" d="M10.06,34.01c0-.1-.04-.3-.11-.63-.08.11-.11.26-.08.45.03.08.08.22.16.41.02-.14.03-.21.03-.23Z"/>
    <rect class="b" x="8.94" y="25.26" width=".29" height=".08" transform="translate(-16.32 34.11) rotate(-89.37)"/>
    <path class="b" d="M15.85,54.11c-.51.62-.93.97-1.29,1.15-.12.12-.21.18-.24.13.07-.02.16-.09.24-.13.89-.83,3.27-5.43,1.74-1.95.68-1.02.89-1.64,1.17-2.3.07-.17.15-.34.25-.52.11-.18.21-.37.49-.6.08-.06.15-.11.32-.16.16-.04.25-.04.34-.04.18,0,.36.04.53.09.33.1.64.27.95.49-.14.02-.58-.13-.93-.14-.31-.01-.47.05-.31.16,1.94.46,5.65,4.93,9.62,6.51.08.02.13.02.16.01-1.06-.45-1.69-.88-2.17-1.21-.47-.33-.78-.59-1.1-.86-.64-.55-1.31-1.18-3.27-3,1.14.56,1.57,1.14,2.18,1.89.87.53,1.13.52,2.16,1.15-.18.12.44.68,1.19,1.16.75.49,1.64.83,1.79.97.73.08,1.42-.05,2.08-.27.67-.02.97-.07,1.02-.02.05.04-.14.15-.43.27-.36.17-.9.29-1.29.41.76,0,1.55-.16,2.34-.42.04-.04.1-.08.16-.12.41-.28,1.22-.71,2.26-1.31-.23.34.03.3.49.08,1.54-.89,2.91-1.91,3.88-2.6-.53.26-1.02.46-1.4.61,1.02-.9,1.36-1.05,1.73-1.17.18-.06.37-.11.67-.23.08-.03.16-.06.27-.08.16-.03.23.05.34.09.22.08.48.17.81.27-.11,0-.21-.03-.31-.04.86.28,2.3.73,3.82,1.1.99.12,2.01.21,2.74.31.76,0,1.23-.08,1.56-.17l.87-.26c.55-.15,1.23-.24,3.2-.54-1.37.52-4.55.55-3.61.96,1.22-.09,2.43-.21,3.65-.37,1.64-.3,2.95-.63,3.99-.96.17-.14.29-.26.32-.37-.06-.03-.07-.08.01-.15.02.04,0,.09-.01.15.09.05.34.06.76,0,3.55-1.35,3.56-2.7,6.64-3.01.43-.04.87.02,1.29.17.3.09.49.19.6.24.08.04.11.07.13.09,1.14.63,2.25,1.77,3.32,2.98.3.21.62.46,1.02.83,0,.1-.14.08-.12.2.37.43.73.84,1.08,1.24.23.14.45.26.71.42.36.21.79.54,1.47.93.24.09.48.19.73.3-.28-.08-.49-.17-.73-.3-.47-.19-.94-.3-1.44-.57.48.49.94.9,1.39,1.18.14.03.29.08.51.16.27.08.67.29,1.35.08,2.78-1.2,4.29-3.92,4.29-3.92,0,0,16.25,7.77,33.56,2.93,1.46-.41,2.33-1.91,2.73-3.82.02-.11.05-.23.07-.34,0-.05.02-.1.03-.15.15-1.03.16-1.99-.21-3.33.18-.08.31.14.39.51-.03-.84-.11-1.69-.25-2.5-.02-.04-.04-.07-.06-.12-.2-.44-.39-1.17-.86-2.35,0-.21-.03-.5-.1-.82-.33-.67-.72-1.21-1.15-1.56-.6-.48-1.56-.79-2.69-.97-.2.18-.42.33-1.85.07.85,0,.79-.11.7-.22-.83-.07-1.71-.1-2.59-.09.22.15,1,.31-.74.25.28-.1.39-.18.38-.25-1.88.03-3.74.2-5.08.36-.27.4-.52.78-.75,1.15l-.61-.98c-.08.01-.15.02-.22.03-.05.08-.11.17-.17.25l-.04-.07s-.01.02-.02.03l-.05-.09-.03.03-.06-.1s-.07.01-.07.01l.04-.05-.06-.1s.03,0,.04,0l-.06-.1s.02,0,.03,0l-.04-.06.32-.07.1-.15-.62-.99.5-.11c-.56.38-.11.37.72.24l3.07-4.39s1.09-1.28,2.43-3.14c-.05-.11-.15-.18-.18-.3-.08-.25.09-.69,1.16-2.12.51-.51.44-.02.56.13,0,0,0,0,0,0,1.69-2.66,3.27-5.79,3.27-8.23,0-4.03-4.36-5.62-6.34-6.14-.3,0-.68-.02-1,.01h.06c-.36.13-.64.27-.56.39l.56-.12s-.06,0-.1,0h.12s-.03,0-.03,0c.52.04,1.08.12,1.61.23-.06.11-.78.01-1.59-.04-1.32.27-2.92.45-2.99.19.11.1-.29.25-.05.33.17,0,.34.02.5.05-.27,0-.42-.02-.5-.05-1.29-.03-2.85.61-3.54.33,2.41-.26,1.38-.6-.6-.51,1.97-.09,4.37-.35,4.65-.64-.93.12-1.03.06-.84-.06l-2.3.22c-.11.03-.21.05-.33.08l.05-.05-1.58.15c-.96.1-2.07.22-3.15.4l-.18.04c-.1.22-.19.45-.29.67l-.35-.54-.77.16-.47.1.2-.51.15-.38c-.04.13-.08.27-.13.39l-.18.49.43-.11c.24-.06.51-.1.76-.15l-.11-.17-.5.05s-.04.05-.05.08l-.05-.08h-.07s.01-.02.04-.06l-.05-.07s.06,0,.09,0c.05-.1.14-.26.24-.48l-.45-.69c.28-.04.56-.09.83-.13.25-.55.52-1.23.78-2.01,0-.04,0-.08,0-.12l-.16.43c-.12.36-.18.52-.04.09l.04-.09c.23-.68.52-2.14.24-2-.48,1.86-.69,1.79-1.01,2.25-.13.28-.32.61-.6.99.29-.53.46-.8.6-.99.35-.76.29-1.19.3-1.65,0-.47.09-.95.56-1.95-.02.74-.1,1.49-.23,2.23.53-1.82.65-2.22.86-2.44.08-.09.16-.16.24-.29.09-.79.1-1.59.02-2.38-.12-.33-.25-.61-.38-.92l-.47-1.1c-.2-.44-.46-1-.94-1.67-.22-.35-.2-.46-.06-.44-.37-.39-.81-.75-1.33-1.08-.64-.38-1.32-.69-2.02-.93-1.02-.28-1.88-.31-2.5-.26.82.16,1.95.27,2.89.57.95.29,1.66.75,1.63,1.12-1-.47-1.01-.45-1-.54,0-.06.04-.22-1.07-.64l-.34.37c1.16.5,1.89.89,2.71,1.42-.26-.11-.75-.44-1.46-.75-.7-.32-1.61-.62-2.56-.81-1.9-.39-3.89-.35-4.36-.16-2.47.08-4.75.14-5.99-.01-.03.05-.07.1-.12.14.1.05,0,.12-.24.2-.55.33-1.43.51-1.05.64-2.16.13.15-.37,1.05-.64.1-.06.18-.13.24-.2-.02,0,.01-.02-.02-.03-1.01.05-2.03.14-3.04.27l.68-.22c-.96.25-2.55.44-4.09.82-.54.13-1.06.29-1.55.47-.3.12-.59.25-.88.37-.52.25-.95.53-1.22.83-.63.35-.43.12-.37-.08-2.5,1.27-4.36,2.67-5.87,3.87-.04.04-.08.08-.12.12.61-.45,1.22-.88,1.85-1.3-2,1.4-2.11,1.77-2.29,2.09-.09.17-.18.33-.52.64-.36.29-.9.81-2.16,1.41.13-.31.15-.46.08-.56-1.55.91-2.8.84-4.53-1.19-.28-.26-.55-.52-.81-.8-.48-.49-1.02-.9-1.59-1.15-1.16-.53-2.34-.33-3.31.06-.98.4-1.8.94-2.41,1.39.89-.65.77-.77.74-.93-.01-.08,0-.16.19-.3.19-.14.54-.35,1.25-.59-1.18.34-2.43.92-3.89,1.62-.73.35-1.51.74-2.41,1.06-.45.16-.94.3-1.5.33-.54.04-1.19-.1-1.67-.51-.2,0-.6-.24-.94-.71-.18-.25-.31-.5-.46-.71-.15-.22-.31-.45-.5-.65-.37-.42-.81-.7-1.29-.77-.47-.08-1.02.01-1.52.19.07-.18.56-.38,1.01-.45.45-.08.85,0,.87-.14-.9-.29-1.73-.12-2.41,0-.68.14-1.24.29-1.72.44-.98.31-1.66.64-2.57,1.59-.22-.04-.54-.11-.25-.44-.76.38-1.49.71-2.14.9-.24.09-.48.15-.69.15-.05,0-.09,0-.13,0-.88.05-1.57-.33-1.96-1.48-.04-.13-.11-.25-.16-.37-.05-.07-.11-.15-.16-.19-.31-.28-.49-.19-.68-.15-.19.05-.38.06-.73-.24-.38-.28-.87-.91-2.23-1.75-.31-.35.26-.23.61-.15.18.04.3.05.23-.05-.07-.1-.33-.32-.97-.67-.17.07-.33.15-.49.23,0,.06-.06.1-.22.11l.22-.11c.02-.17-.66-.54-1.59-.83-.92-.3-2.08-.51-2.92-.66.61.08,2.04.27,3.34.64,1.31.34,2.44.9,2.78.94-1.08-.64-2.09-1.04-3.01-1.36-.92-.32-1.78-.56-2.63-.75-1.71-.36-3.45-.56-5.82-.26.9-.15,1.59-.36,2.18-.57-2.91-.11-5.95.18-8.69.76-1.16.25-2.02,1.45-2.64,3.32.21-.12.26.42.41.17-.16.23-.3.47-.44.71.06,1.37-.26,2.13.3,2.38-.39,2.31-.53,4.51-.62,6.6-.08,2.09-.09,4.1-.08,6.1.04,4,.19,8,.41,12.77-.37-1.33-.82-5.67-1.01-3.36,0,.09.01.19.02.28.76,2.41,1.36,8.5,1.21,11.82-.08-.76-.21-1.22-.37-1.53.13,1.34.26,2.59.38,3.73.03.08.06.14.09.21.03.03.06.09.11.2-.04-.05-.07-.13-.11-.2-.03-.03-.05-.02-.06.03.44,4.02.79,6.62.79,6.62,8.06,15.64,12.8,4.97,15.33.54-.6.93-1.09,1.67-1.53,2.19ZM112.58,19.97c.37.89.33,1.92.06,2.76.19-.95.09-1.85-.25-2.62-.34-.78-.87-1.43-1.53-2.12.65.41,1.36,1.09,1.72,1.98ZM45.72,53.13l.58-.08c.55.15,1.11.28,1.66.4-.74-.07-1.49-.18-2.24-.32ZM77,56.42c-.07,0-.15-.04-.12-.09,0-.02.03-.05.06-.06,0-.01-.02,0,.01-.02l.13-.05c.17-.1.34-.2.51-.32-.18.19-.41.39-.58.54ZM77.15,45.73l.08.69h-.12s-.04-.7-.04-.7h.08ZM77.03,45.28h.08s.04.37.04.37h-.08s-.04-.37-.04-.37ZM77.31,45.93c.16.17.24.3.24.41,0,.08-.04.15-.12.2l-.12-.61ZM80.44,54.52c-.39.28-.79.52-1.2.73.57-.45,1.09-.98,1.55-1.55-.1.28-.22.55-.35.82ZM93.7,51.8h-.23v-.06h.23s0,.06,0,.06ZM95.59,51.77c-.17.03-.31.04-.41.04-.06,0-.16-.01-.29-.03-.14-.02-.23-.03-.29-.03-.1,0-.19.03-.29.08l-.52-.06c.46,0,.73-.06.78-.2.02.04.03.08.03.12.1.02.56.03,1.39.04-.1,0-.23.01-.41.04ZM96.67,51.67h-.2s0-.06,0-.06h.2s0,.06,0,.06ZM98,51.57l-.2.06v-.06l.21-.06v.06ZM99.43,51.21h-.09v-.06h.09s0,.06,0,.06ZM101.23,51.25h-.58s0-.06,0-.06h.58v.06ZM102.57,51.32h-.44v-.06h.44v.06ZM102.77,51.32h-.14v-.06h.15s0,.06,0,.06ZM103.03,50.97l-.12-.06v-.03l.12.03v.06ZM103.29,50.95h-.15v-.09h.15s0,.09,0,.09ZM104.78,51.02l-.32.03v-.06s.32-.03.32-.03v.06ZM104.83,51.05c.06-.08.25-.1.58-.08-.27.05-.46.08-.58.08ZM105.85,51.14h-.15v-.06h.15v.06ZM106,50.91c-.08.02-.19.03-.35.03.04-.02.13-.05.26-.08-.08-.06-.21-.08-.41-.06-.02.04,0,.1.03.17-.06-.14-.13-.19-.2-.18-.18.08-.25.11-.23.11-.02,0-.06-.02-.12-.06-.04-.04-.09-.02-.15.06l-.06-.09c.08.08-.1.12-.52.11v-.14c.41-.02.99-.07,1.75-.16v.29ZM101.87,31.01c-.04-.06-.06-.11-.06-.15,0-.12.06-.24.18-.38.02.02.03.05.03.09,0,.1-.05.24-.15.43ZM103.14,28.55c0,.1-.06.21-.16.33-.11.13-.16.21-.16.25-.04.12-.09.28-.15.49-.16.39-.32.57-.5.55-.04-.08-.06-.14-.06-.18,0-.33.18-.84.54-1.53,0,.25,0,.45.02.58.14-.12.25-.27.32-.46l.15-.03ZM102.12,28.86l.06-.2h.06s-.06.2-.06.2h-.06ZM98.45,17.01l-1.95.85c1.13-.06.42.07-.09.24-.12-.27-1-1.02,2.04-1.09ZM93.15,3.84c.5.29,1.08.9,1.45,1.71.06.09.11.17.17.28.26.46.25.75.22.96.07.32.1.64.12.93-.24-.48-.16-.64-.12-.93-.08-.42-.22-.85-.4-1.24-.52-.76-.88-1-1.42-1.25.23.27.42.57.58.89-.39-.57-.89-1.02-1.49-1.37.01-.28.37-.27.88.02ZM92.26,23.92c3.66.03,6.41.35,8.27.94.71-1.23,1.34-1.85,1.9-1.84.1,0,.18.01.26.03l-.53.95.2.12-.36,1.68.12.32.49.09-.85.46.34.99-.35.26.31.67-.46.03-.77,1.36.77-1.71-.32.11c-.16,1.03-.71,2.35-1.63,3.96l-2.18,3.85.12-.09-1.74,3.18.03.06c.94-1.64,2.34-4.12,4.19-7.46-.56,1.41-1.44,3.14-2.66,5.18l-2.98,5.03.12.03-2.3,3.87.12.03c2.28-3.43,4.09-6.37,5.45-8.84l.14.12c-.26,1.32-.81,2.74-1.63,4.28-.33.64-1.12,1.96-2.36,3.96l.49.38c1.12,0,2.82-.06,5.08-.22,2.27-.16,3.96-.23,5.09-.22,1.39.01,2.43.12,3.11.32l.08.44-.44.34.06.03.35-.11.17-.03-.12.2-.61.25.73-.2-.9.46c.01.64.09,1.4.24,2.27l.99-.66-.12.72-.7.23.41-.29-.5.17-.17-.06.2.67c-.13-.04-.29-.07-.44-.1l.52.48c-.42-.1-1.22-.16-2.38-.17-.85,0-4.52.15-11.01.48,4.9-.07,7.82-.1,8.77-.07-.56.15-1.36.23-2.38.24-.47,0-.86,0-1.19,0v.08s-.12,0-.12,0v-.08h-.14v.08s-.32,0-.32,0v-.08c-.35,0-.57,0-.64.01l.49.03c-.43.23-1.02.34-1.78.33-.97,0-1.59.01-1.86.07l-.15.09-.03-.15c-.33.02-.66.02-.99.02-.56,0-1.13-.04-1.71-.1l-.09.06.99.27-1.19-.18-.47.23.06-.06-3.89-.53c.26.12.54.2.83.28l1.43.26c-.52-.04-.99-.14-1.43-.26l-.74-.14-.29.32.06-.43-.26.06.15-.23-.06-.06-.02-.58-.26-.06c-.24-.78-.36-1.71-.35-2.79,0-.33.02-.67.04-1.02l.9-.43c1.01-2.14,2.66-4.86,4.95-8.15,2.72-3.91,4.49-6.55,5.3-7.94-.7.03-1.88.19-3.55.46-1.53.24-2.72.35-3.58.35-2.79-.02-4.16-1.21-4.12-3.55.03-1.12.22-2.04.58-2.75.91-.44,2.66-.65,5.23-.62ZM100.33,31.43s-.06-.05-.06-.09c0-.06.39-.8,1.18-2.23-.49,1.02-.87,1.79-1.12,2.31ZM101.25,32.51c0,.1-.02.22-.06.38l-.06-.18c.06-.08.1-.14.12-.2ZM100.25,34.05h-.14s.03-.09.03-.09l-.06-.06c-.02.06-.06.1-.12.12.02-.08.09-.21.21-.41.04-.1.1-.26.18-.49.2-.44.38-.79.56-1.04-.06.21-.28.87-.66,1.97ZM100.89,33.21c.02.13,0,.24-.06.32-.12.12-.18.19-.18.23.12-.37.2-.55.24-.55ZM101.42,29.06v-.09s.09,0,.09,0v.09h-.09ZM98.91,33.89l-.18.23-.03-.03.15-.23.06.03ZM98.59,34.44l-.53.89-.06-.03.53-.87h.06ZM97.85,35.68l-.06.15-.06-.03.06-.12h.06ZM90.98,2.72c-.38.07-.87-.16-1.38-.35-.51-.19-1.01-.34-1.23-.17-.55-.14-1.11-.24-1.69-.33,1.53.09,3.02.33,4.3.84ZM83.61,7.4l.16.08c-.11,0-.24.04-.41.12.03-.08.11-.15.25-.2ZM82.09,8.12c-.08.08-.22.18-.41.28l-.41-.09c.22-.13.49-.2.82-.2ZM74.07,10.54l-.61-.25c2.31.1,4.19-.26,5.64-1.09l-.62.53,5.93-1.46c.6.33,1.67.54,3.22.64l.12.12-.33.36.4.41-.41.65.2-.16c.05.65.23,1.58.55,2.78-.17.6-.48,1.48-.92,2.65l-7.58,3.16c-.19.34-.37.82-.53,1.43h.03s0,.2,0,.2h-.08c-.13.52-.26,1.1-.39,1.79l.14-2.45-.29,1.06-.07-1.63c-.74-.03-1.12.56-1.16,1.79,0-.41.08-1.76.24-4.04-.45,1.66-.68,3.51-.7,5.55-.02,1.69.14,3.84.47,6.46,0-.54-.03-1.25-.1-2.12l.55,2.05.37.04c.67,1.53.99,3.23.98,5.11,0,.79-.07,1.58-.18,2.37l.16.29c-.06,1.01-.2,2.52-.41,4.53l-.12-.53c0,.57-.11,1.37-.31,2.41-.2,1.11-.32,1.9-.35,2.36l-.37-.16-.09.49c-.08-.52-.33-1.65-.75-3.4-.34-1.42-.51-2.58-.5-3.47l.87,2.83c.09-.76-.09-1.86-.52-3.29-.44-1.43-.62-2.52-.56-3.25l.24.61-.04-.69.53.21.61.82.37-.41-.61-4.66c-.2-1.53-.57-3.04-1.1-4.54l-.38,2.04c-.05-.63.01-1.47.18-2.53.17-1.2.26-2.04.27-2.53,0-.57-.06-1.1-.19-1.59l-.39,2.61.02-2.49-.21.65.39-2.24-.2-.37.25-.69-.28-.37-.17.12-.36-1.11.04-.49-.08.04-.15-1.15.21-.45-.08-.16-.5.81-.33-.25.51-2.57c-.25.46-.43,1.13-.55,2l.31-2.9c-.53,1.08-.82,2.4-.89,3.95,0,.11-.05,1.47-.16,4.08l.02-2.82c-.34,1.9-.52,3.83-.54,5.8-.04,4.9,1.13,11.4,3.5,19.51.08.57.14,1.16.19,1.76.13.71.38,1.2.76,1.47v-.2s0,.2,0,.2c0,0,0,0,0,0l-.05,1.43-.69-.41c-.19.3-.44.24-.73-.17-.56-.77-1.03-2.1-1.39-4.01-1.64-8.64-2.43-16.01-2.38-22.11l-.53-.78c-1.69.45-3.31.67-4.86.65-3.24-.03-4.85-1.06-4.83-3.1,0-.73.25-1.59.72-2.57-.21-.38-.32-.74-.32-1.06.01-1.44,1.76-2.46,5.25-3.06.63-.1,2.85-.44,6.67-1ZM78.84,25.33v.33h-.12v-.33s.12,0,.12,0ZM78.7,26.55v.25s-.08,0-.08,0v-.25s.08,0,.08,0ZM77.32,25.68l.2.25-.04.04-.24-.21.08-.08ZM77.29,24.86h.12l.04.33h-.08s-.08-.33-.08-.33ZM75.82,29.22c-.09.49-.12.88-.09,1.18,0-.05-.01-.15-.04-.29-.02-.14-.04-.23-.04-.29,0-.25.09-.75.26-1.51v.25c.02.11.04.2.04.29l-.13.37ZM75.83,32.86h-.08s-.06-2.29-.06-2.29h.08l.06,2.29ZM75.58,28.89v-.16h.08v.16h-.08ZM75.95,33.39l.04.65h-.08s-.04-.65-.04-.65h.08ZM75.91,28l.04-.16c.08-.03.19.02.33.13l-.08.24c-.11-.11-.2-.18-.28-.21ZM77.07,35.72l.12-.12.04.08-.12.12-.04-.08ZM58.86,11.81c.39-.21.88-.57.58-.54-.1.03-.2.06-.3.07.15-.05.23-.07.3-.07.53-.14,1.07-.43,1.57-.79.6-.43,1.18-.97,1.77-1.52,1.17-1.11,2.44-2.31,3.78-3.09l.63.08c-.96.51-2.33,1.43-3.55,2.46-1.22,1.02-2.36,2.11-3.02,2.76-.93.6-1.63.8-1.88.83-.27.03-.11-.05.12-.17ZM59.05,51.59c-.3.15-.6.28-.91.42l.21-.34.7-.07ZM55.73,10.45c.28.38,1.21.79.54.66-.77-.18-1.04-.6-1.25-.92-.21-.34-.37-.62-.89-.82-.27-.62.6.32,1.6,1.09ZM48.58,16.19c1.33.01,2.77.17,4.35.48,1.8.35,3.19.79,4.15,1.33,0,.69,0,1.18.02,1.45.04.55.16,1.01.37,1.39-.32.44-.46.97-.42,1.6l-.09-.03-.16.41.13.1-.38.44c-.36.08-1.84.15-4.45.21-.53,0-1.29-.01-2.3-.02-.67,0-1.14.2-1.39.62-.15.25-.26.78-.33,1.57-.07.71-.31,1.24-.71,1.57v.16c.46.13.97.2,1.54.2.48,0,1.19-.05,2.13-.17.94-.12,1.65-.17,2.13-.17.31,0,.78.09,1.4.26.62.17,1.09.26,1.4.26.17,0,.34,0,.51-.03l-.48.47.38.41.38.07c-.3.19-.65.28-1.07.27-.17,0-.49-.02-.98-.07-.4-.05-.71-.06-.95-.04.59.28,1.13.42,1.64.42.44,0,.82-.11,1.14-.34l.22.32-.27,1.57c.21.46.31.92.3,1.36,0,.44-.11.83-.32,1.16l-4.36.41c-1.66.15-3.09.4-4.3.75l.32,2.9c.31.42.5,1.34.58,2.75l.34.23h.13v-.66s.33-.5.33-.5l.15.76c.65-.33,1.42-.49,2.31-.48.44,0,1.1.07,1.97.19.87.12,1.53.19,1.97.19.57,0,1.08-.06,1.55-.21l-.32.56.16.03-.16.22.41.19-1.33.68v.06l1.2-.4-.63.34.03.06.6-.22-.03.09.22.03-.17.98-.86.59h.06l1.17-.81-.07.47.4.6c-.4,0-1.06.35-1.96,1.06l1.74-.68-.29.31.44.1c.08.21.12.41.12.6,0,.73-.74,1.25-2.19,1.56l-3.03.35c-.38.04-1.12.26-2.21.68-.99.37-1.71.55-2.15.55-.08,0-.16-.01-.22-.03-.38-.19-.99-3.35-1.84-9.48l-1.54-11.05-.79-3.22c-.43-1.79-.63-3.24-.62-4.36.01-1.66.52-2.53,1.5-2.6.57-.58,1.74-.87,3.51-.85ZM49.14,38.68c0,.11-.05.27-.13.5l-.19-.06c0-.21.02-.53.06-.95.03-.42.05-.74.06-.95.06-.06.09-.19.07-.38h-.13c-.1-.13-.19-.45-.26-.96-.07-.52-.08-.87-.04-1.06.11-.06.19-.12.25-.19.14.23.2.63.18,1.19-.03.56,0,.93.09,1.12.08.19.12.28.12.25v1.36s-.11-.1-.11-.1c-.04.08-.06.19-.07.32l.1-.09ZM43.19,9.6c.28-.28.73-.61,1.96-1.25,1.23-.51.12.1-.72.53.84-.3.87-.09.42.31-.47.38-1.39,1.03-2.84,1.3.81-.36.88-.62,1.17-.89ZM38.53,24.01c.16,0,.23.12.2.34-.05.09-.1.21-.17.37-.16-.25-.24-.41-.23-.48,0-.16.07-.24.21-.24ZM37.12,22.09c.54.19.81.39.81.62,0,.09-.04.19-.1.3-.13-.18-.37-.45-.71-.79v-.14ZM30.63,15.42l.55-.98.17-.07c.99.46,1.78,1.12,2.37,1.96v.2s-.24-.14-.24-.14l1.68,2.64.31-.2c.06.43.12.73.16.89.11.37.27.62.47.75l.27-.17c.24,1.18.64,2.26,1.2,3.25l.24-.37.14.07.2.55-.21.61.13.41.27.04.13.41.1-.2c.06,1.29.34,2.17.86,2.63-.21.23-.31.5-.31.82,0,.5.17,1.01.53,1.54-.09.29-.14.57-.14.82,0,.36.08.67.26.92l-.28.51h.14s-.3,3.17-.3,3.17l.23.44-.28.68-.09-.85c-.23.34-.44,1.1-.63,2.28l.14.21.31-.85c-.16.57-.23,1.1-.18,1.6-.25.32-.82,1.21-1.69,2.68.02.09.03.23.03.41-.3.56-1.05,1.65-2.24,3.25-.64.81-1.01,1.54-1.11,2.17l-1.09.53.17.04s-.09.02-.14.07c.09.02.19.08.31.17l-.21.07-.61.06c-1.45.15-2.87-.41-4.24-1.67-1.26-1.15-2.11-2.46-2.55-3.94-.82-2.78-1.2-6.75-1.16-11.93.03-3.61.36-6.66,1-9.16,1.06-4.15,2.83-6.24,5.33-6.29ZM25.07,8.53c.35.17.74.22,1.07.19-.37.13-.86.16-1.34-.01-.29-.27-.48-.59-.62-.9.23.29.53.55.88.72ZM10.89,1.75c.33.09.66.18.99.29-1,0-2.01.04-3.02.13.67-.16,1.35-.29,2.03-.41ZM2.04,5.01c.02-.09.05-.17.08-.24.28-.87.67-1.7,1.19-2.15-.41.4-.73,1.06-.95,1.77-.08.1-.17.21-.24.38-.03.08-.06.16-.08.24ZM2.88,50.95c-.13-.46.87,1.16,1.2,1.46l.28.89c-.52-.76-1.01-1.55-1.49-2.36ZM6.07,2.21l-.96.02c.89-.16,1.78-.29,2.68-.39-.9.11-.42.3-1.72.37ZM8.81,58.68c-.72-.36-1.36-.94-1.93-1.59,1.01.96,1.41.99,1.74,1.08l.59.11c.25.04.58.11,1.05.08-.38.23-.89.36-1.46.33ZM10.45,46.78l-.3,1.79c-1.19-1.15-2.14-6.35-2.84-15.58-.59-7.57-.78-13.33-.59-17.28.04-.9.32-2.2.85-3.91.53-1.71.83-3,.89-3.87.41-.13.86-.2,1.35-.19,1.06,0,2.31.36,3.75,1.05l.08-.08c1.44.48,2.75,1.19,3.94,2.16,1.49,1.21,2.23,2.47,2.21,3.78,0,.3-.06.61-.17.94l-.89-1.07c-.08.27-.13.54-.13.81,0,.76.2,1.46.64,2.09-.06.73.16,1.44.68,2.13-.3-.33-.73-.86-1.29-1.6v.08s.28.98.28.98l.93.62c.13.9.19,1.74.18,2.53,0,.6-.05,1.18-.14,1.75l.04.04-.12.08c-1.45,4.43-3.99,7.75-7.6,9.98l-.13.74-.16-.12-.41.45c-.05,1.18-.08,1.77-.11,1.81.06.49.22.88.49,1.13l.21-.16.34-1.71c.08.6.11,1.1.11,1.51,0,.98-.26,1.75-.76,2.32.12,1.82-.13,3.76-.74,5.79l-.32-.98-.45.24-.04.41.56.94-.33.41ZM12.7,41.94c-.03.22-.06.54-.09.98-.11-.17-.13-.33-.08-.49.09-.3.14-.46.17-.49ZM12.83,57.82c.07-.02.03.1-.36.5.13-.16.25-.33.36-.5-.13.05-.81.51-.91.37-.35.2-.71.35-1.06.43.87-.38,1.61-1.17,2.24-2.07-.1.34-.22.68-.36,1.01.2-.11.58-.62.75-.89-.19.39-.41.78-.65,1.15Z"/>
    <path class="b" d="M10.56,43.39l.08-.04.05-1.06c-.05-.05-.11-.14-.16-.25,0,.08-.03.14-.08.16-.02-.38-.1-.66-.24-.82-.11.03-.14.24-.09.65.05.41.09.67.12.78.03.11.13.3.32.58Z"/>
    <path class="b" d="M18.43,50.22c-.14.04-.37.15-.79.8l.06.36c.41-.67.76-1.11,1.04-1.13.08,0,.17.02.26.03-.31-.11-.45-.08-.57-.06Z"/>
    <path class="b" d="M8.38,26.3v-.29s-.05.01-.08.04c0,.05.03.14.08.25Z"/>
    <path class="b" d="M10.14,39.67v-1.14c-.07-.08-.11-.33-.11-.74,0-.84-.02-1.4-.07-1.67h-.16c0,.6.03,1.03.11,1.31,0,.05-.03.16-.08.3-.06.15-.08.26-.08.35,0,1.14.05,1.91.18,2.29l.12-.08c0-.08.01-.18.04-.31.03-.12.04-.22.04-.31Z"/>
    <polygon class="b" points="9.76 32.44 9.79 32.97 9.87 32.97 9.8 32.44 9.76 32.44"/>
    <polygon class="b" points="9.7 34.6 9.74 34.6 9.74 34.44 9.7 34.44 9.7 34.6"/>
    <polygon class="b" points="9.66 34.31 9.7 34.31 9.75 33.58 9.7 33.58 9.66 34.31"/>
    <path class="b" d="M88.85.3c.11.02.21.05.32.07-.11-.02-.21-.05-.32-.07Z"/>
    <polygon class="b" points="10.89 42.33 10.81 42.33 10.81 42.61 10.89 42.62 10.89 42.33"/>
    <polygon class="b" points="10.94 22.69 11.02 22.69 11.03 22.48 10.94 22.48 10.94 22.69"/>
    <path class="b" d="M11.54,33.72c.06.03.12.06.2.08l.08-.08c-.03-.05-.05-.09-.08-.12-.06.05-.12.1-.21.12Z"/>
    <polygon class="b" points="13.11 31.49 13.15 31.53 13.32 31.33 13.24 31.28 13.11 31.49"/>
    <rect class="b" x="10.56" y="26.38" width=".2" height=".08" transform="translate(-15.83 36.89) rotate(-89.58)"/>
    <polygon class="b" points="10.81 42.82 10.85 42.94 10.93 42.94 10.89 42.78 10.81 42.82"/>
    <polygon class="b" points="8.27 24.71 8.3 25.93 8.38 25.93 8.35 24.71 8.27 24.71"/>
    <path class="b" d="M10.62,26.65c.03-.05,0-.12-.08-.21-.03.25-.02.37.04.37l.12-.12s.05.04.08.04v-.16s-.04.04-.04.04c-.06.03-.1.04-.12.04Z"/>
    <polygon class="b" points="17.76 27.57 17.84 27.57 17.88 27.44 17.84 27.44 17.76 27.57"/>
    <path class="b" d="M13.55,14.46c.05-.11.1-.16.12-.16l-.12-.12-.16.16-.12-.25h-.16c.08.25.23.37.45.37Z"/>
    <polygon class="b" points="8.8 29.33 8.72 29.32 8.72 29.57 8.8 29.57 8.8 29.33"/>
    <path class="b" d="M9.86,15.41c0-.05.01-.11.04-.16.05.11.12.18.2.21,0-.05.04-.18.12-.37.06-.16.04-.27-.04-.33-.38.05-.57.17-.57.36,0,.14.08.23.24.29Z"/>
    <polygon class="b" points="8.84 30.14 8.92 30.14 8.88 29.77 8.8 29.77 8.84 30.14"/>
    <polygon class="b" points="17.97 27.28 18.05 27.28 18.09 27.08 18.01 27.08 17.97 27.28"/>
    <path class="b" d="M8.73,30.94c-.06-.72-.09-1.22-.09-1.49h-.16c-.03.6.03,1.24.19,1.92l-.04.16.08.04c-.02.27.02.57.08.9.02-.37,0-.88-.05-1.53Z"/>
    <path class="b" d="M11.06,14.24c-.16-.08-.23-.12-.2-.12-.14.11-.23.13-.29.08l-.21.16v.33c.08,0,.13.02.16.04.16-.16.34-.32.54-.49Z"/>
    <path class="b" d="M8.93,33.12c0-.19-.04-.32-.1-.43.03.14.05.28.1.43Z"/>
    <polygon class="b" points="10.44 14.97 10.36 14.97 10.31 15.25 10.39 15.25 10.44 14.97"/>
    <rect class="b" x="10.31" y="15.41" width=".08" height=".29"/>
    <path class="b" d="M78.36,19.03c.05-.05.08-.11.08-.16-.25,0-.41.04-.49.12.24,0,.38.02.41.05Z"/>
    <polygon class="b" points="72.66 16.86 71.31 16.89 71.31 16.97 72.66 16.94 72.66 16.86"/>
    <path class="b" d="M71.03,16.89c-.16,0-.52.1-1.06.32.16-.03.61-.1,1.35-.23-.27-.06-.37-.08-.29-.08Z"/>
    <path class="b" d="M62.56,18.49v.28c.08.06.16.15.24.29-.05.03-.12.01-.2-.04.24.16.53.43.85.78h.33c-.11-.1-.15-.25-.12-.45.06-.19.07-.31.04-.37-.05-.03-.15-.1-.28-.21,0,.14-.04.2-.12.2-.24,0-.38-.17-.4-.49h-.33Z"/>
    <path class="b" d="M67.8,12.9c.03-.05.12-.12.29-.2.11.08.16.17.16.25.16-.08.45-.19.86-.32v-.24c-.15-.02-.23-.03-.25-.04-.02,0-.05.01-.07.03-.03.03-.05.04-.08.04-.05,0-.1-.02-.14-.06-.04-.04-.09-.06-.14-.06-.11.03-.65.08-1.63.15.08.08.12.16.12.25.22.14.51.21.9.21Z"/>
    <path class="b" d="M72.67,15.55c-.16.05-.31.07-.45.04.19.11.34.17.45.17.06-.08.06-.15,0-.2Z"/>
    <polygon class="b" points="72.18 15.63 71.94 15.63 71.94 15.71 72.18 15.71 72.18 15.63"/>
    <polygon class="b" points="71.82 15.63 71.57 15.67 71.57 15.75 71.82 15.71 71.82 15.63"/>
    <path class="b" d="M102.16,40.88l.02-.02-.03-.04s-.02,0-.03,0l.04.07Z"/>
    <path class="b" d="M102.43,40.92s-.06,0-.08.01l-.08.08.05.08c.04-.06.07-.11.1-.17Z"/>
    <path class="b" d="M47.22,6.72c-.24.06-.43.11-.59.14-1.03.46-2.04,1.01-2.98,1.46,1.19-.53,2.36-1.15,3.57-1.6Z"/>
    <path class="b" d="M96,16.14l-.66.06s-.03.08-.05.12c.06-.01.12-.03.18-.04l.63-.14s-.06,0-.09,0Z"/>
    <path class="b" d="M89.8.51c.38.1.77.21,1.15.34.14.04.29.09.43.13-.48-.19-1.01-.34-1.58-.48Z"/>
    <path class="b" d="M84.94,0c-.9,0-1.84.02-2.87.1-.06,0-.12.01-.18.02-.48.14-.63.35.17.39.83-.29,1.81-.46,2.88-.52Z"/>
    <path class="b" d="M71.98,19.75l-.45-.13c-.33.05-.79.13-1.39.23l-.04.08-.04.12h-.02s-.07.12-.07.12c.11.16.31.23.61.21.76-.07.99-.11.7-.12.03,0,.04-.01.04-.04,0-.03.03-.04.08-.04.03-.03.11-.01.25.04.13.05.22.08.24.08l.16-.08c.08-.03.18.03.28.17l.04-.29c-.05-.19-.19-.31-.41-.37Z"/>
    <path class="b" d="M102.21,40.81l.1-.14c-.07.01-.15.03-.22.04l.06.1s.04,0,.06,0Z"/>
    <path class="b" d="M102.23,40.95s-.02,0-.03,0l.05.08.02-.02-.04-.06Z"/>
    <polygon class="b" points="81.64 12.61 81.6 12.53 81.4 12.65 81.44 12.73 81.64 12.61"/>
    <polygon class="b" points="81.15 12.85 81.03 12.85 81.03 12.93 81.15 12.93 81.15 12.85"/>
    <polygon class="b" points="80.24 14.19 79.95 14.35 79.95 14.43 80.28 14.27 80.24 14.19"/>
    <polygon class="b" points="79.83 14.39 79.46 14.55 79.46 14.63 79.87 14.47 79.83 14.39"/>
    <polygon class="b" points="82.14 12.21 81.68 12.49 81.68 12.57 82.14 12.29 82.14 12.21"/>
    <polygon class="b" points="82.49 14.09 82.45 14 82.28 14.13 82.32 14.21 82.49 14.09"/>
    <path class="b" d="M48.68,33.79l-.03-.35s-.11.09-.19.16c-.02,0-.05-.02-.09-.07.04.13.15.21.31.26Z"/>
    <path class="b" d="M68.94,18.01c1.37-.29,2.41-.45,3.13-.48-1.47-.05-2.54.1-3.13.48Z"/>
    <polygon class="b" points="76.92 15.1 76.76 15.1 76.76 15.18 76.92 15.18 76.92 15.1"/>
    <path class="b" d="M81.78,15.22c.17-.07.31-.08.42-.04.57-.36,1.32-.91,2.29-1.69-.19.11-.71.46-1.56,1.05l-.04-.04c.19-.13.37-.32.54-.57-.49.35-1.25.83-2.26,1.45-.27.11-.66.27-1.15.48-.33.22-.53.32-.62.32l-.04-.29c.22-.24.63-.5,1.23-.77.6-.27,1.01-.5,1.23-.68-.55.29-1.38.74-2.5,1.33l-.14,2.33c.03-.38.1-.92.22-1.63.63-.38,1.42-.79,2.38-1.25Z"/>
    <path class="b" d="M77.21,14.98c-.06,0-.14.04-.25.12.14-.02.29-.04.45-.04l-.2-.08Z"/>
    <path class="b" d="M73.17,15.07v-.16s-.24-.08-.24-.08c.08.16.16.25.24.25Z"/>
    <path class="b" d="M77.74,14.78c-.08.43-.17,1.09-.26,1.96.09-.43.25-1.07.51-1.91l-.25-.04Z"/>
    <polygon class="b" points="78.89 14.51 78.65 14.54 78.64 14.62 78.89 14.59 78.89 14.51"/>
    <polygon class="b" points="81.87 14.45 82.28 14.25 82.24 14.17 81.87 14.37 81.87 14.45"/>
    <path class="b" d="M81.92,13.27c.05-.05.14-.15.25-.28-.08.03-.22.09-.41.2l.16.08Z"/>
    <polygon class="b" points="56.69 41.49 55.74 41.8 55.74 41.86 56.72 41.52 56.69 41.49"/>
    <rect class="b" x="55.58" y="41.79" width=".06" height=".13" transform="translate(12.92 96.83) rotate(-89.13)"/>
    <path class="b" d="M56.58,43.5c.13-.02.43-.12.91-.33-.02-.11-.01-.18.03-.22-.06,0-.12-.01-.16-.03.06-.02.14-.06.22-.12-.08-.06-.22-.01-.41.15,0,.04-.29.21-.86.5.17.03.25.05.26.06Z"/>
    <polygon class="b" points="57.48 44.21 57.45 44.17 57.36 44.27 57.39 44.3 57.48 44.21"/>
    <path class="b" d="M57.44,41.56c-.15.08-.37.22-.67.4.42.02.64-.11.67-.4Z"/>
    <rect class="b" x="48.03" y="43.24" width=".06" height=".1"/>
    <path class="b" d="M48.1,42.68v.22c.06-.02.14-.07.22-.16-.04,0-.12-.02-.22-.06Z"/>
    <path class="b" d="M51.98,46.43s.1-.03.19-.03c-.08-.04-.13-.15-.12-.32-.11.08-.15.17-.13.25,0-.04.01-.08.03-.09.02.04.03.11.03.19Z"/>
    <polygon class="b" points="54.76 41.88 53.34 41.84 53.34 41.9 54.76 41.98 54.76 41.88"/>
    <path class="b" d="M50.02,46.9c.44-.15.67-.26.7-.33-.29-.07-.5-.1-.63-.1.06,0-.01.03-.22.09-.04-.09-.08-.14-.12-.16-.06.06-.23.17-.51.31-.06.15-.14.37-.23.66h.19c.11-.16.38-.33.82-.48Z"/>
    <polygon class="b" points="55.31 40.31 55.25 40.31 55.25 40.4 55.31 40.4 55.31 40.31"/>
    <path class="b" d="M50.53,40.89s-.04.05-.08.07h-.25s.12.13.12.13c.11-.05.17-.12.21-.2Z"/>
    <path class="b" d="M54.46,33.14s-.08-.06-.12-.06-.08.02-.11.06c-.03.04-.07.06-.11.06-.02,0-.05-.01-.09-.03h-.13s-.09-.1-.09-.1c-.06.06-.16.17-.29.31.23-.02.61-.03,1.14-.02,0,.04-.06-.03-.19-.22Z"/>
    <path class="b" d="M53.19,33.23c-.02-.06-.03-.16-.03-.28l-.29.09v.28s.22,0,.22,0l.09-.09Z"/>
    <polygon class="b" points="55.71 30.13 55.08 30.06 55.08 30.15 55.71 30.19 55.71 30.13"/>
    <path class="b" d="M55.89,31.39c-.21-.02-.54-.06-.98-.1.33.11.64.18.91.23l.06-.13Z"/>
    <path class="b" d="M52.26,46.37c.17-.04.48-.08.95-.12.38-.02.64-.14.79-.37-.02,0-.06,0-.11.03-.05.02-.09.03-.11.03-.06,0-.16-.02-.3-.05-.14-.03-.24-.05-.3-.05-.02,0-.06.02-.11.05-.05.03-.09.05-.11.05l-.19-.1c-.17.04-.39.13-.67.28.06.02.15.07.25.16l-.1.09Z"/>
    <path class="b" d="M51.71,33.69s.09-.03.16-.09c-.04-.1-.11-.24-.22-.41-.1.04-.18.13-.22.28.06.15.16.22.28.22Z"/>
    <polygon class="b" points="48.08 40.97 47.98 38.61 47.88 38.6 47.99 40.97 48.08 40.97"/>
    <path class="b" d="M52.75,33.29h-.16s.03.11-.03.19l.19-.19Z"/>
    <path class="b" d="M56.38,29.56c-.65.21-1.05.31-1.2.3.29.07.69-.04,1.2-.3Z"/>
    <polygon class="b" points="55.54 31.64 55.38 31.57 55.38 31.64 55.54 31.7 55.54 31.64"/>
    <path class="b" d="M56.29,32.21c.06.02.15-.03.25-.16-.13-.02-.29,0-.5.09.06.02.15.04.25.07Z"/>
    <path class="b" d="M55.7,31.86c.06-.02.17-.05.32-.09-.19.02-.36.02-.51,0,.04.04.04.09,0,.13-.19-.06-.37-.1-.54-.1.02.04.03.11.03.19.06,0,.14.02.23.05.09.03.16.05.21.05.19,0,.39-.04.6-.12-.08-.02-.2-.05-.35-.1Z"/>
    <path class="b" d="M55.77,30.66c.29,0,.54-.05.73-.15,0-.06,0-.17-.03-.32-.57.2-1.01.34-1.33.4.23.05.44.07.63.07Z"/>
  </g>
</svg>