<?xml version="1.0" encoding="UTF-8"?>
<svg id="a" data-name="Laag 1" xmlns="http://www.w3.org/2000/svg" viewBox="0 0 101.64 44.43">
  <defs>
    <style>
      .b {
        fill: #be4517;
      }
    </style>
  </defs>
  <path class="b" d="M13.23,16.51l.04.04-.12.08c-1.45,4.43-3.99,7.75-7.6,9.98l-.13.74-.16-.12-.41.45c-.07,1.69-.11,2.2-.14,1.55.02.63.19,1.09.52,1.39l.21-.16.34-1.71c.08.6.11,1.1.11,1.51,0,.98-.26,1.75-.76,2.32.12,1.82-.13,3.76-.74,5.79l-.32-.98-.45.24-.04.41.56.94-.33.41-.3,1.79c-1.19-1.15-2.14-6.35-2.84-15.58C.07,18.01-.12,12.26.07,8.31c.04-.9.32-2.2.85-3.91.53-1.71.83-3,.89-3.87.41-.13.86-.2,1.35-.19,1.06,0,2.31.36,3.75,1.05l.08-.08c1.44.48,2.75,1.19,3.94,2.16,1.49,1.21,2.23,2.47,2.21,3.78,0,.3-.06.61-.17.94l-.89-1.07c-.08.27-.13.54-.13.81,0,.76.2,1.46.64,2.09-.06.73.16,1.44.68,2.13-.3-.33-.73-.86-1.29-1.6v.08s.28.98.28.98l.93.62c.13.9.19,1.74.18,2.53,0,.6-.05,1.18-.14,1.75ZM1.51,17.51h-.08s-.04.16-.04.16h.08l.04-.16ZM1.46,17.47v-.65s-.08,0-.08,0v.65s.08,0,.08,0ZM1.57,18.94l-.04-.37h-.08l.04.37h.08ZM1.54,18.49l-.04-.61h-.04s0,.61,0,.61h.08ZM1.61,19.84v-.2s-.08,0-.08,0v.2s.08,0,.08,0ZM1.74,18.53l-.03-1.22h-.08s.03,1.22.03,1.22h.08ZM1.74,18.61s-.05.01-.08.04c0,.05.03.14.08.25v-.29ZM2.29,25.72c0-.25-.05-.42-.16-.53.03-.38.01-.93-.05-1.65-.06-.72-.09-1.22-.09-1.49h-.16c-.03.6.03,1.24.19,1.92l-.04.16.08.04c-.03.44.05.96.23,1.55ZM2.16,22.17v-.25s-.08,0-.08,0v.25s.08,0,.08,0ZM2.28,22.74l-.04-.37h-.08s.04.37.04.37h.08ZM2.48,18.05v-.29s-.08,0-.08,0v.29s.08,0,.08,0ZM2.49,26.54v-.12s-.08,0-.08,0v.12s.08,0,.08,0ZM2.53,26.91l-.04-.33h-.08s.04.33.04.33h.08ZM2.56,27.69v-.16s-.08,0-.08,0v.16s.08,0,.08,0ZM2.56,27.44v-.08h-.08s0,.08,0,.08h.08ZM2.8,28.46l-.11-1.51h-.04s.11,1.51.11,1.51h.04ZM2.76,23.44c0,.76.04,1.32.15,1.68.05-.14.08-.3.09-.49,0-.33-.08-.72-.23-1.19ZM2.91,34.63v-.25s-.04,0-.04,0v.25s.04,0,.04,0ZM3.55,7.36c-.38.05-.57.17-.57.36,0,.14.08.23.24.29,0-.05.01-.11.04-.16.05.11.12.18.2.21,0-.05.04-.18.12-.37.06-.16.04-.27-.04-.33ZM6.94,7.67l-.08.08c-.46-.25-.9-.37-1.3-.38-.19,0-.33.04-.41.12-.28,1.33-.76,3.02-1.43,5.05l-.53.2c-.12.71-.17,1.33-.18,1.88-.01,1.14.2,1.96.63,2.46.02-2.56.12-4.07.28-4.53l.28.49.25-.24.32,4.99c.05.74.15,1.1.32,1.11.22,0,1.34-1.15,3.36-3.44,2.02-2.3,3.03-3.61,3.04-3.94,0-.71-.6-1.46-1.82-2.26-.08-.08-.99-.61-2.72-1.58ZM3.1,26.18h-.04l-.05.73h.04l.05-.73ZM3.1,27.2v-.16s-.04,0-.04,0v.16s.04,0,.04,0ZM3.51,31.13c-.08-.08-.12-.33-.12-.74,0-.84-.02-1.4-.07-1.67h-.16c0,.6.03,1.03.11,1.31,0,.05-.03.16-.08.3-.06.15-.08.26-.08.35,0,1.14.05,1.91.18,2.29l.12-.08c0-.08.01-.18.04-.31.03-.12.04-.22.04-.31v-1.14ZM3.23,25.57l-.08-.53h-.04l.04.53h.08ZM3.31,25.98c-.08.11-.11.26-.08.45.03.08.08.22.16.41.03-.24.04-.3.04-.16,0-.08-.04-.31-.12-.7ZM3.89,34.64c0,.08-.03.14-.08.16-.02-.38-.1-.66-.24-.82-.11.03-.14.24-.09.65.05.41.09.67.12.78.03.11.13.3.32.58l.08-.04.05-1.06c-.05-.05-.11-.14-.16-.25ZM3.78,19.08c-.05.03-.12.07-.2.12v.25s.16,0,.16,0c.03-.08.04-.2.04-.37ZM3.75,8.3v-.29s-.08,0-.08,0v.29s.08,0,.08,0ZM3.8,7.57h-.08l-.04.28h.08s.04-.28.04-.28ZM4.42,6.84c-.16-.08-.23-.12-.2-.12-.14.11-.23.13-.29.08l-.21.16v.33c.08,0,.13.02.16.04.16-.16.34-.32.54-.49ZM4.14,19.33v-.16s-.04.04-.04.04c-.06.03-.1.04-.12.04.03-.05,0-.12-.08-.21-.03.25-.02.37.04.37l.12-.12s.05.04.08.04ZM4.06,19.12v-.21s-.08,0-.08,0v.2s.08,0,.08,0ZM4.29,35.54l-.04-.16-.08.04.04.12h.08ZM4.25,35.22v-.29s-.08,0-.08,0v.29s.08,0,.08,0ZM4.38,15.29v-.21s-.08,0-.08,0v.2s.08,0,.08,0ZM5.11,26.2c-.06.05-.12.1-.21.12.06.03.12.06.2.08l.08-.08c-.03-.05-.05-.09-.08-.12ZM6.05,34.54c-.03.22-.06.54-.09.98-.11-.17-.13-.33-.08-.49.09-.3.14-.46.17-.49ZM7.03,6.9l-.12-.12-.16.16-.12-.25h-.16c.08.25.23.37.45.37.05-.11.1-.16.12-.16ZM6.68,23.93l-.08-.04-.12.2.04.04.17-.2ZM11.24,20.04h-.04l-.08.12h.08l.04-.12ZM11.45,19.68h-.08l-.04.2h.08s.04-.2.04-.2ZM13.06,13.12c.06-.08.07-.18.04-.29-.08-.03-.14-.05-.16-.08,0,.08-.03.2-.08.37-.11-.22-.25-.55-.44-.98-.06,0-.08.04-.08.12,0,.49.14.87.44,1.15-.06.05-.08.12-.08.2.19-.11.31.15.36.78v-1.27ZM12.77,13.69c.02.27.04.55.03.82,0,.6-.09,1.22-.26,1.88.2-.49.29-1.04.3-1.67,0-.33-.02-.67-.07-1.02Z"/>
  <path class="b" d="M33.15,24.39l-.28.51h.14s-.3,3.17-.3,3.17l.23.44-.28.68-.09-.85c-.23.34-.44,1.1-.63,2.28l.14.21.31-.85c-.16.57-.23,1.1-.18,1.6-.25.32-.82,1.21-1.69,2.68.02.09.03.23.03.41-.3.56-1.05,1.65-2.24,3.25-.64.81-1.01,1.54-1.11,2.17l-1.09.53.17.04s-.09.02-.14.07c.09.02.19.08.31.17l-.21.07-.61.06c-1.45.15-2.87-.41-4.24-1.67-1.26-1.15-2.11-2.46-2.55-3.94-.82-2.78-1.2-6.75-1.16-11.93.03-3.61.36-6.66,1-9.16,1.06-4.15,2.83-6.24,5.33-6.29l.55-.98.17-.07c.99.46,1.78,1.12,2.37,1.96v.2s-.24-.14-.24-.14l1.68,2.64.31-.2c.06.43.12.73.16.89.11.37.27.62.47.75l.27-.17c.24,1.18.64,2.26,1.2,3.25l.24-.37.14.07.2.55-.21.61.13.41.27.04.13.41.1-.2c.06,1.29.34,2.17.86,2.63-.21.23-.31.5-.31.82,0,.5.17,1.01.53,1.54-.09.29-.14.57-.14.82,0,.36.08.67.26.92ZM19.42,28.15l-.03-.1-.07.03.07.07h.04ZM19.49,28.46v-.17s-.07,0-.07,0v.17s.07,0,.07,0ZM19.61,18.55c-.02.09-.07.21-.14.37l.06,1.57c0-.18.04-.33.11-.44-.02,0-.03-.01-.03-.03.02-.07.06-.16.1-.27.02-.11.02-.32,0-.61-.02-.36-.05-.56-.1-.58ZM29,23.57c.02-.09-.09-.55-.33-1.37-.18,0-.27-.04-.27-.1,0-.02.01-.03.04-.03.04-.02.1-.02.17,0-.26-1-.84-2.24-1.74-3.73-.29-.43-1.05-1.6-2.29-3.49-1.03,1.08-1.79,3.22-2.27,6.42,0,.07-.23,2.45-.68,7.15-.08-.93-.12-1.84-.11-2.73.03-3.59.72-6.74,2.06-9.45.49-.97.73-1.55.73-1.73,0-.29-.13-.56-.4-.79-.87.79-1.43,1.95-1.67,3.5l-.27.3-.15,1.22-.28.37c.09.14.12.29.1.44-.05.18-.16.27-.34.27l-.03-.48c-.26.57-.38,1.14-.39,1.73,0,.52.08.99.26,1.4l-.21.41.1.14c.06,1.2.1,2.42.14,3.65.1,1.41.33,2.59.68,3.55.47,1.3,1.15,2.08,2.06,2.33l.71.21c.23.09.42.23.58.42.39-.36,1-.87,1.82-1.52l.21-.58.07.07c1.38-1.76,2.07-3.56,2.09-5.4,0-.77-.12-1.5-.39-2.18ZM21.17,11.78v-.24s-.27,0-.27,0l.03.51c.05-.07.13-.16.24-.27ZM24.12,9.11c-.07,0-.14-.04-.2-.1-.02.02-.16.1-.41.23-.14.07-.21.19-.21.37,0,.16.04.4.13.72.09.32.13.56.13.72,0,.14-.04.23-.1.27.07.23.08.38.03.44-.02-.07-.07-.17-.13-.31-.05,0-.1.1-.17.31l-.06-.17c-.05.09-.13.19-.24.3-.07.23-.11.74-.12,1.53l.62-.5c-.11-.09-.15-.24-.1-.44.07.02.14.08.2.17l.1-.1-.03-.07h.14c.02-.07.05-.17.07-.3-.02-.14-.04-.36-.06-.68l.07-.58-.07-.14c.27-.13.41-.69.42-1.67ZM23.73,10.47c0-.32.08-.67.25-1.05v.31c0,.07-.04.19-.12.37-.08.18-.12.31-.12.37ZM26.29,33.46h-.07l-.03.1.03.04.07-.14ZM26.44,32.5v-.1s-.07,0-.07,0v.1h.07ZM27.28,32.95c-.05-.07-.11-.1-.2-.1-.14,0-.3.12-.48.37.23.07.45-.02.68-.27ZM27.65,34.11c-.3.11-.52.28-.69.51.02,0,.07.01.14.04.07.02.12.03.17.04.25,0,.38-.12.38-.37v-.21ZM27.39,36.4s-.03-.06-.1-.1c-.02.02-.05.06-.07.1h.17ZM28.34,37.02l-.51.51s-.11-.1-.2-.17c.21-.2.33-.3.38-.3.02,0,.02.02,0,.07-.02.02-.01.03.03.03.02,0,.04-.02.05-.07.01-.05.04-.07.09-.07h.17ZM28.66,23.6h-.21s0-.07,0-.07h.21s0,.07,0,.07ZM29.07,31.74l-.03-.03-.1.1.03.03.1-.1ZM31.18,15.61c-.13-.18-.37-.45-.71-.79v-.14c.54.19.81.39.81.62,0,.09-.04.19-.1.3ZM31.92,17.32c-.16-.25-.24-.41-.23-.48,0-.16.07-.24.21-.24.16,0,.23.12.2.34-.05.09-.1.21-.17.37Z"/>
  <path class="b" d="M38.43,9.64c.57-.58,1.74-.87,3.51-.85,1.33.01,2.77.17,4.35.48,1.8.35,3.19.79,4.15,1.33,0,.69,0,1.18.02,1.45.04.55.16,1.01.37,1.39-.32.44-.46.97-.42,1.6l-.09-.03-.16.41.13.1-.38.44c-.36.08-1.84.15-4.45.21-.53,0-1.29-.01-2.3-.02-.67,0-1.14.2-1.39.62-.15.25-.26.78-.33,1.57-.07.71-.31,1.24-.71,1.57v.16c.46.13.97.2,1.54.2.48,0,1.19-.05,2.13-.17.94-.12,1.65-.17,2.13-.17.31,0,.78.09,1.4.26.62.17,1.09.26,1.4.26.17,0,.34,0,.51-.03l-.48.47.38.41.38.07c-.3.19-.65.28-1.07.27-.17,0-.49-.02-.98-.07-.4-.05-.71-.06-.95-.04.59.28,1.13.42,1.64.42.44,0,.82-.11,1.14-.34l.22.32-.27,1.57c.21.46.31.92.3,1.36,0,.44-.11.83-.32,1.16l-4.36.41c-1.66.15-3.09.4-4.3.75l.32,2.9c.31.42.5,1.34.58,2.75l.34.23h.13v-.66s.33-.5.33-.5l.15.76c.65-.33,1.42-.49,2.31-.48.44,0,1.1.07,1.97.19.87.12,1.53.19,1.97.19.57,0,1.08-.06,1.55-.21l-.32.56.16.03-.16.22.41.19-1.33.68v.06l1.2-.4-.63.34.03.06.6-.22-.03.09.22.03-.17.98-.86.59h.06l1.17-.81-.07.47.4.6c-.4,0-1.06.35-1.96,1.06l1.74-.68-.29.31.44.1c.08.21.12.41.12.6,0,.73-.74,1.25-2.19,1.56l-3.03.35c-.38.04-1.12.26-2.21.68-.99.37-1.71.55-2.15.55-.08,0-.16-.01-.22-.03-.38-.19-.99-3.35-1.84-9.48l-1.54-11.05-.79-3.22c-.43-1.79-.63-3.24-.62-4.36.01-1.66.52-2.53,1.5-2.6ZM38.88,20.15v-.32c-.08-.08-.16-.13-.25-.13-.02.04-.03.11-.03.19.02-.02.06-.05.13-.09.04.04.06.09.06.16-.04.02-.08.06-.13.12.04.02.11.04.22.07ZM40.9,15.47v-.41c-.21-.06-.41-.1-.59-.1-.1,0-.12-.03-.03-.09l-.1.09c-.08-.08-.15-.11-.19-.06-.11.08-.17.12-.19.12.02.15.02.27,0,.38-.02.06-.04.16-.06.28,0,.11.06.23.18.38.12.15.24.22.35.22.06-.04.2-.14.41-.31-.15-.06-.26-.17-.34-.32l.13-.12s.08-.06.13-.06c.02,0,.05.01.09.03.02,0,.03-.02.03-.05,0-.03.01-.05.03-.05.04,0,.09.02.16.06ZM40.33,23.6s-.06-.14-.12-.35c-.06.15-.08.29-.04.44.06-.06.12-.09.16-.09ZM40.59,30.28v-.12s-.06,0-.06,0v.13s.06,0,.06,0ZM40.67,31.11v-.28s-.09,0-.09,0v.28s.09,0,.09,0ZM40.8,31.33c-.08-.17-.12-.24-.12-.22l-.06.22c.06-.02.13-.02.19,0ZM41.15,34.64c-.1-.38-.22-1.47-.35-3.28-.11.02-.16.08-.16.19,0,.97.11,2.03.35,3.19l.16-.09ZM40.71,34.07v-.13s-.06,0-.06,0v.13s.06,0,.06,0ZM40.77,34.48v-.31s-.09,0-.09,0v.32s.09,0,.09,0ZM40.8,34.7v-.13s-.06,0-.06,0v.13h.06ZM41.44,33.57l-.1-2.37h-.1s.1,2.37.1,2.37h.09ZM41.45,35.94v-.1h-.06v.1s.06,0,.06,0ZM41.68,35.34s-.12-.02-.22-.06v.22c.06-.02.14-.07.22-.16ZM42.04,26.39l-.03-.35s-.11.09-.19.16c-.02,0-.05-.02-.09-.07.04.13.15.21.31.26ZM42.56,31.15l-.09-.1c-.04.08-.06.19-.07.32l.1-.09c0,.11-.05.27-.13.5l-.19-.06c0-.21.02-.53.06-.95.03-.42.05-.74.06-.95.06-.06.09-.19.07-.38h-.13c-.1-.13-.19-.45-.26-.96-.07-.52-.08-.87-.04-1.06.11-.06.19-.12.25-.19.14.23.2.63.18,1.19-.03.56,0,.93.09,1.12.08.19.12.28.12.25v1.36ZM44.07,39.18c-.29-.07-.5-.1-.63-.1.06,0-.01.03-.22.09-.04-.09-.08-.14-.12-.16-.06.06-.23.17-.51.31-.06.15-.14.37-.23.66h.19c.11-.16.38-.33.82-.48.44-.15.67-.26.7-.33ZM43.93,33.34c0,.11-.04.18-.13.22h-.25s.12.13.12.13c.17-.08.25-.2.26-.35ZM44.53,15.43c-.02-.08-.11-.19-.28-.32-.09.08-.13.17-.13.25.06,0,.1,0,.13-.03.04.02.06.05.06.1,0-.04.01-.07.03-.09.02.02.03.05.03.09h.16ZM45.22,26.19c-.04-.1-.11-.24-.22-.41-.1.04-.18.13-.22.28.06.15.16.22.28.22.04,0,.09-.03.16-.09ZM45.52,39c-.08-.04-.13-.15-.12-.32-.11.08-.15.17-.13.25,0-.04.01-.08.03-.09.02.04.03.11.03.19.04-.02.1-.03.19-.03ZM47.36,38.48s-.06,0-.11.03c-.05.02-.09.03-.11.03-.06,0-.16-.02-.3-.05-.14-.03-.24-.05-.3-.05-.02,0-.06.02-.11.05-.05.03-.09.05-.11.05l-.19-.1c-.17.04-.39.13-.67.28.06.02.15.07.25.16l-.1.09c.17-.04.48-.08.95-.12.38-.02.64-.14.79-.37ZM46.11,25.89h-.16s.03.11-.03.19l.19-.19ZM46.55,25.83c-.02-.06-.03-.16-.03-.28l-.29.09v.28s.22,0,.22,0l.09-.09ZM48.12,34.58v-.09l-1.42-.04v.06s1.42.08,1.42.08ZM48,25.97s-.06-.03-.19-.22c-.04-.04-.08-.06-.12-.06s-.08.02-.11.06c-.03.04-.07.06-.11.06-.02,0-.05-.01-.09-.03h-.13s-.09-.1-.09-.1c-.06.06-.16.17-.29.31.23-.02.61-.03,1.14-.02ZM49.25,23.99c-.21-.02-.54-.06-.98-.1.33.11.64.18.91.23l.06-.13ZM49.4,24.56c-.08-.02-.2-.05-.35-.1.06-.02.17-.05.32-.09-.19.02-.36.02-.51,0,.04.04.04.09,0,.13-.19-.06-.37-.1-.54-.1.02.04.03.11.03.19.06,0,.14.02.23.05.09.03.16.05.21.05.19,0,.39-.04.6-.12ZM49.07,22.79v-.06s-.63-.07-.63-.07v.09s.63.04.63.04ZM49.86,23.11c0-.06,0-.17-.03-.32-.57.2-1.01.34-1.33.4.23.05.44.07.63.07.29,0,.54-.05.73-.15ZM49.74,22.16c-.65.21-1.05.31-1.2.3.29.07.69-.04,1.2-.3ZM48.67,33v-.09s-.06,0-.06,0v.09s.06,0,.06,0ZM48.9,24.24l-.16-.07v.06s.16.07.16.07v-.06ZM49.03,34.49v-.06s-.12,0-.12,0v.06s.12,0,.12,0ZM49.9,14.44c0-.13-.06-.19-.19-.19-.02-.02-.04-.08-.06-.19-.25-.11-.42-.16-.5-.16-.04,0-.09.03-.16.09.13.02.33.08.6.16l-.09.09-.57.09c.29.09.54.13.73.13.1,0,.19,0,.25-.03ZM49.5,13.46c.1.02-.08.03-.57.03,0,.15.18.22.53.22-.02-.1,0-.19.03-.25ZM50.08,34.12l-.03-.03-.95.31v.06s.98-.34.98-.34ZM50.05,11.89c-.19-.13-.39-.19-.6-.19-.1,0-.22.02-.35.06l.09.19h.13c.04-.08.16-.11.35-.09.17.02.29.03.38.04ZM49.66,12.58c-.02-.06-.03-.15-.03-.25-.04,0-.06.04-.06.12l-.09-.03c-.06,0-.14.03-.22.09.1.04.24.06.41.07ZM49.91,24.66c-.13-.02-.29,0-.5.09.06.02.15.04.25.07.06.02.15-.03.25-.16ZM49.78,13.84v-.06s-.22-.03-.22-.03v.06l.22.03ZM50.95,35.39c-.08-.06-.22-.01-.41.15,0,.04-.29.21-.86.5.25.04.32.07.22.07.1,0,.42-.11.95-.34-.02-.11-.01-.18.03-.22-.06,0-.12-.01-.16-.03.06-.02.14-.06.22-.12ZM49.76,12.61v-.09s-.06,0-.06,0v.09s.06,0,.06,0ZM49.92,12.04v-.06s-.16.06-.16.06v.06s.16-.06.16-.06ZM50.01,13.08v-.16s-.09-.11-.15-.19c-.06.19-.08.31-.03.38l.19-.03ZM50.16,14.06h-.32c.08,0,.17.05.25.16,0-.06.02-.12.06-.16ZM50.8,34.16c-.15.08-.37.22-.67.4.42.02.64-.11.67-.4ZM50.84,36.81l-.03-.03-.1.09.03.03.09-.09Z"/>
  <path class="b" d="M81.53,5.68c-.17.6-.48,1.48-.92,2.65l-7.58,3.16c-.36.65-.68,1.79-.97,3.42l.14-2.45-.29,1.06-.07-1.63c-.74-.03-1.12.56-1.16,1.79,0-.41.08-1.76.24-4.04-.45,1.66-.68,3.51-.7,5.55-.02,1.69.14,3.84.47,6.46,0-.54-.03-1.25-.1-2.12l.55,2.05.37.04c.67,1.53.99,3.23.98,5.11,0,.79-.07,1.58-.18,2.37l.16.29c-.06,1.01-.2,2.52-.41,4.53l-.12-.53c0,.57-.11,1.37-.31,2.41-.2,1.11-.32,1.9-.35,2.36l-.37-.16-.09.49c-.08-.52-.33-1.65-.75-3.4-.34-1.42-.51-2.58-.5-3.47l.87,2.83c.09-.76-.09-1.86-.52-3.29-.44-1.43-.62-2.52-.56-3.25l.24.61-.04-.69.53.21.61.82.37-.41-.61-4.66c-.2-1.53-.57-3.04-1.1-4.54l-.38,2.04c-.05-.63.01-1.47.18-2.53.17-1.2.26-2.04.27-2.53,0-.57-.06-1.1-.19-1.59l-.39,2.61.02-2.49-.21.65.39-2.24-.2-.37.25-.69-.28-.37-.17.12-.36-1.11.04-.49-.08.04-.15-1.15.21-.45-.08-.16-.5.81-.33-.25.51-2.57c-.25.46-.43,1.13-.55,2l.31-2.9c-.53,1.08-.82,2.4-.89,3.95,0,.11-.05,1.47-.16,4.08l.02-2.82c-.34,1.9-.52,3.83-.54,5.8-.04,4.9,1.13,11.4,3.5,19.51.08.57.14,1.16.19,1.76.13.71.38,1.2.76,1.48v-.2s-.05,1.63-.05,1.63l-.69-.41c-.19.3-.44.24-.73-.17-.56-.77-1.03-2.1-1.39-4.01-1.64-8.64-2.43-16.01-2.38-22.11l-.53-.78c-1.69.45-3.31.67-4.86.65-3.24-.03-4.85-1.06-4.83-3.1,0-.73.25-1.59.72-2.57-.21-.38-.32-.74-.32-1.06.01-1.44,1.76-2.46,5.25-3.06.63-.1,2.85-.44,6.67-1l-.61-.25c2.31.1,4.19-.26,5.64-1.09l-.62.53,5.93-1.46c.6.33,1.67.54,3.22.64l.12.12-.33.36.4.41-.41.65.2-.16c.05.65.23,1.58.55,2.78ZM57.13,12.4c-.11-.11-.15-.26-.12-.45.06-.19.07-.31.04-.37-.05-.03-.15-.1-.28-.21,0,.14-.04.2-.12.2-.24,0-.38-.17-.4-.49h-.33s0,.28,0,.28c.08.06.16.15.24.29-.05.03-.12.01-.2-.04.24.16.53.43.85.78h.33ZM62.46,5.22v-.24c-.24-.03-.32-.04-.24-.04-.03,0-.06.01-.08.04-.03.03-.05.04-.08.04-.05,0-.1-.02-.14-.06-.04-.04-.09-.06-.14-.06-.11.03-.65.08-1.63.15.08.08.12.16.12.25.22.14.51.21.9.21.03-.05.12-.12.29-.2.11.08.16.17.16.25.16-.08.45-.19.86-.32ZM66.06,10.16c-1.82-.12-3.08.03-3.76.46,1.83-.39,3.08-.55,3.76-.46ZM64.67,9.57c-.27-.06-.37-.08-.29-.08-.16,0-.52.1-1.06.32.16-.03.61-.1,1.35-.23ZM65.75,12.73c-.05-.19-.19-.31-.41-.37l-.45-.13c-.33.05-.79.13-1.39.23l-.17.33c.11.16.31.23.61.21.76-.07.99-.11.7-.12.03,0,.04-.01.04-.04,0-.03.03-.04.08-.04.03-.03.11-.01.25.04.13.05.22.08.24.08l.16-.08c.08-.03.18.03.28.17l.04-.29ZM63.46,12.54l-.04.12-.08-.04.08-.12.04.04ZM66.02,9.54v-.08s-1.35.03-1.35.03v.08l1.35-.03ZM65.17,8.31v-.08l-.25.04v.08l.25-.04ZM65.54,8.31v-.08h-.24s0,.08,0,.08h.24ZM66.03,8.36c.06-.08.06-.15,0-.2-.16.05-.31.07-.45.04.19.11.34.17.45.17ZM66.12,21.47h-.08s0-.16,0-.16h.08v.16ZM66.53,7.67v-.16s-.24-.08-.24-.08c.08.16.16.25.24.25ZM69.02,21.49v-.16s-.08,0-.08,0v.16s.08,0,.08,0ZM69.27,20.92c-.17.76-.26,1.26-.26,1.51,0,.05.01.15.04.29.03.14.04.23.04.29-.02-.3,0-.69.09-1.18l.13-.37c0-.08-.01-.18-.04-.29v-.25ZM69.19,25.46l-.06-2.29h-.08l.06,2.29h.08ZM69.34,26.64h-.08s-.04-.65-.04-.65h.08l.04.65ZM69.64,20.56l-.08.24c-.11-.11-.2-.18-.28-.21l.04-.16c.08-.03.19.02.33.13ZM70.28,7.78v-.08s-.16,0-.16,0v.08h.16ZM70.77,7.67l-.2-.08c-.06,0-.14.04-.25.12.14-.02.29-.04.45-.04ZM70.51,38.25h-.08s-.04-.37-.04-.37h.08s.04.37.04.37ZM70.58,39.02h-.12s-.04-.7-.04-.7h.08s.08.7.08.7ZM70.59,28.28l-.04-.08-.12.12.04.08.12-.12ZM71.35,30.21c0-.16-.08-.35-.24-.57l-.04.08c0-.08.04-.22.13-.41-.16-.03-.28.13-.35.47-.07.34-.13.52-.19.55-.03-.05-.08-.12-.16-.21-.03.11.01.24.12.39.11.15.22.21.32.19-.03-.08-.04-.16-.04-.25,0-.05.01-.12.04-.2l.04.08c.05,0,.18-.04.37-.12ZM70.88,18.53l-.04.04-.24-.21.08-.08.2.25ZM70.81,17.79h-.08s-.08-.33-.08-.33h.12l.04.33ZM70.79,39.15l-.12-.61c.16.17.24.3.24.41,0,.08-.04.15-.12.2ZM70.77,22.32v-.41s-.08,0-.08,0v.41s.08,0,.08,0ZM70.81,22.85h-.08s0-.45,0-.45h.08v.45ZM70.9,30.86l-.04.49h-.12s.09-.49.09-.49h.08ZM71.54,32.13c-.08,0-.19.01-.33.04,0,.14-.03.25-.08.33-.05-.16-.17-.4-.36-.7.03-.08.04-.19.04-.33.08,0,.16.03.24.09.03-.08.06-.22.09-.41.16,0,.29-.05.37-.16.08.25.12.41.12.49l-.08.16c-.03.05-.04.12-.04.2,0,.08.01.18.04.29ZM71.35,7.42l-.25-.04c-.08.43-.17,1.09-.26,1.96.09-.43.25-1.07.51-1.91ZM71.64,30.46c-.42-2.02-.62-3.31-.62-3.88,0-.27.03-.52.09-.73l.53,4.62ZM71.41,33.15c-.3-.41-.39-.63-.28-.66.16-.02.34,0,.53.09.03.03.05.07.08.12,0,.08-.11.23-.33.45ZM71.8,11.47c-.25,0-.41.04-.49.12.24,0,.38.02.41.05.05-.05.08-.11.08-.16ZM71.76,7.31l-.04-.04-.33.08v.08s.37-.12.37-.12ZM72.06,19.4h-.08s0-.25,0-.25h.08s0,.25,0,.25ZM72.25,7.19v-.08l-.24.04v.08s.24-.04.24-.04ZM72.19,18.25h-.12v-.33s.12,0,.12,0v.33ZM72.52,13.11h-.08v-.2h.08s0,.2,0,.2ZM77.85,6.09c-.19.11-.71.46-1.56,1.05l-.04-.04c.19-.13.37-.32.54-.57-.49.35-1.25.83-2.26,1.45-.27.11-.66.27-1.15.48-.33.22-.53.32-.62.32l-.04-.29c.22-.24.63-.5,1.23-.77.6-.27,1.01-.5,1.23-.68-.55.29-1.38.74-2.5,1.33l-.14,2.33c.03-.38.1-.92.22-1.63.63-.38,1.42-.79,2.38-1.25.19-.08.34-.09.45-.04l-.16.08c.58-.35,1.38-.94,2.42-1.77ZM73.23,7.07l-.04-.08-.37.16v.08s.41-.16.41-.16ZM73.77,11c-.03-.05-.07-.11-.12-.16-.16.05-.37.17-.62.36.16-.02.41-.09.74-.2ZM73.64,6.87l-.04-.08-.29.16v.08l.33-.16ZM74.51,5.53v-.08h-.12s0,.08,0,.08h.12ZM75.45.72c-.08.08-.22.18-.41.28l-.41-.09c.22-.13.49-.2.82-.2ZM75,5.21l-.04-.08-.21.12.04.08.21-.12ZM75.24,10.15l-.04-.04-.16.08.04.08.17-.12ZM75.49,4.89v-.08l-.45.28v.08s.45-.28.45-.28ZM75.53,5.58c-.08.03-.22.09-.41.2l.16.08c.05-.05.14-.15.25-.28ZM75.64,6.85l-.04-.08-.37.2v.08s.41-.2.41-.2ZM75.77,5.71l-.04-.04-.37.2.04.08.37-.24ZM78.03,3.97c-.3.05-1.13.58-2.51,1.57.11,0,.19-.02.25-.08l.08.08-.08.12c.49-.38,1.25-.94,2.26-1.69ZM75.78,4.64h-.08l-.08.12.08.04.08-.16ZM75.85,6.69l-.04-.08-.16.12.04.08.16-.12ZM75.98,9.75l-.04-.04-.21.08v.08l.25-.12ZM76.17,6.49l-.04-.08-.29.16.04.08.29-.16ZM77.84,7.36l-.04-.04-1.56,1.21.04.08,1.56-1.25ZM76.77,4.16v-.08h-.12s0,.08,0,.08h.12ZM77.13.08c-.11,0-.24.04-.41.12.03-.08.11-.15.25-.2l.16.08ZM76.99,6.37l-.08-.04-.04.12.04.04.08-.12ZM77.46,9.07c-.33,0-.45-.02-.37-.04-.03.06-.07.08-.12.08v.2l.49-.24ZM77.28,6.25l-.04-.08-.21.12v.08l.25-.12ZM80.53,7.87c-.22.05-.53.17-.94.36-.14.08-.74.27-1.8.56.9-.18,1.39-.29,1.47-.31.6-.16,1.02-.36,1.27-.6ZM78.63,5.85l-.04-.08-.62.48.04.04.62-.44ZM80.77,3.5l-.12.12c-.08,0-.15.03-.2.08.14,0,.25-.07.33-.2ZM80.7,7.87v-.08s-.16,0-.16,0v.08s.16,0,.16,0Z"/>
  <path class="b" d="M101.64,41.41l-.12.72-.7.23.41-.29-.5.17-.17-.06.2.67c-.37-.12-.8-.18-1.31-.19-.21,0-.62.01-1.22.05-.5.03-.9.04-1.19.02l.29-.06c-1.28.12-2.75.18-4.42.16-.7,0-1.74-.03-3.12-.07-1.38-.04-2.42-.07-3.12-.07-.74,0-1.41,0-2,.01l.46.15-1.42.08v.03c.68.08,1.3.13,1.86.13.29,0,.56,0,.81-.02l.14.15.47-.08-.43-.15h2.06s-.5.1-.5.1l1.54-.16h.2s-.58.11-.58.11c.78-.05,2.6-.06,5.49-.04,2.3.02,4.13-.08,5.49-.3l.58.53c-.42-.1-1.22-.16-2.38-.17-.85,0-4.52.15-11.01.48,4.9-.07,7.82-.1,8.77-.07-.56.15-1.36.23-2.38.24-1.45-.01-2.26,0-2.41,0l.49.03c-.43.23-1.02.34-1.78.33-.97,0-1.59.01-1.86.07l-.15.09-.03-.15c-.33.02-.66.02-.99.02-.56,0-1.13-.04-1.71-.1l-.09.06.99.27-1.19-.18-.47.23.06-.06-3.89-.53c.66.3,1.41.48,2.26.54l-2.18-.4-.29.32.06-.43-.26.06.15-.23-.06-.06-.02-.58-.26-.06c-.24-.78-.36-1.71-.35-2.79,0-.33.02-.67.04-1.02l.9-.43c1.01-2.14,2.66-4.86,4.95-8.15,2.72-3.91,4.49-6.55,5.3-7.94-.7.03-1.88.19-3.55.46-1.53.24-2.72.35-3.58.35-2.79-.02-4.16-1.21-4.12-3.55.03-1.12.22-2.04.58-2.75.91-.44,2.66-.65,5.23-.62,3.66.03,6.41.35,8.27.94.71-1.23,1.34-1.85,1.9-1.84.1,0,.18.01.26.03l-.53.95.2.12-.36,1.68.12.32.49.09-.85.46.34.99-.35.26.31.67-.46.03-.77,1.36.77-1.71-.32.11c-.16,1.03-.71,2.35-1.63,3.96l-2.18,3.85.12-.09-1.74,3.18.03.06c.94-1.64,2.34-4.12,4.19-7.46-.56,1.41-1.44,3.14-2.66,5.18l-2.98,5.03.12.03-2.3,3.87.12.03c2.28-3.43,4.09-6.37,5.45-8.84l.14.12c-.26,1.32-.81,2.74-1.63,4.28-.33.64-1.12,1.96-2.36,3.96l.49.38c1.12,0,2.82-.06,5.08-.22,2.27-.16,3.96-.23,5.09-.22,1.39.01,2.43.12,3.11.32l.08.44-.44.34.06.03.35-.11.17-.03-.12.2-.61.25.73-.2-.9.46c.01.64.09,1.4.24,2.27l.99-.66ZM81.99,39.67c-.04-.06-.1-.12-.17-.18-.04.02-.09.06-.15.12-.08-.06-.42-.12-1.04-.18v.09h-.12s-.05-.06-.09-.06c-.08,0-.16.08-.26.23.39.12.54.18.46.18.06,0,.3-.08.73-.23l.06.09c.14-.02.33-.04.58-.05ZM80.88,40.77c-.04-.1-.1-.15-.17-.15l-.03.15h.21ZM81.8,41.24c-.17.04-.35.05-.52.03-.06.04-.17.06-.35.06.04-.16.22-.23.55-.23.02,0,.04.02.07.06.03.04.05.06.07.06.02,0,.05,0,.09-.03l.03-.03-.03.03s.03.04.09.06ZM81.66,40.75c-.06-.16-.24-.21-.55-.18-.02.06-.05.1-.09.12.17.1.22.15.14.15.29,0,.46-.03.5-.08ZM81.61,22.56c-.1.02-.2-.01-.32-.09l.09-.09c.06.04.14.1.23.18ZM82.3,40.66l-.23-.15c-.12,0-.24.06-.38.17l.09-.06c.08.08.15.1.2.06.08-.06.14-.09.17-.09.02,0,.04,0,.07.03.03.02.05.03.07.03ZM85.99,43.92c-1.9-.04-3.32-.17-4.27-.39,1.04.24,2.2.35,3.45.32.06-.02.11-.02.15,0,.16.02.38.04.67.06ZM83.62,22.4c-.48-.18-.87-.27-1.16-.27-.02,0-.04.01-.06.04-.02.03-.04.04-.06.04l-.15-.06c-.06-.04-.16-.02-.32.05.02.08.05.18.09.32.21,0,.38.01.52.03,0-.08.03-.12.09-.11.06,0,.14.02.23.06.04.04.09.08.14.12.04-.08.26-.15.67-.23ZM82.7,37.73h-.06s-.44.78-.44.78h.06l.44-.78ZM82.57,43.37v-.06h-.09s0,.06,0,.06h.09ZM82.77,39.65l-.17-.12-.03.06.17.12.03-.06ZM82.82,37.56l-.06-.03-.03.12h.03l.06-.09ZM82.95,43.43h-.15s0-.09,0-.09h.15v.09ZM82.97,37.33h-.06l-.03.09.03.03.06-.12ZM85.01,43.53l-2.03-.11v-.09s2.03.13,2.03.13v.06ZM83.73,39.63h-.17s.01-.09.03-.15c-.21,0-.36.04-.44.11.1.1.23.15.41.15.04,0,.1-.04.18-.12ZM84.51,36.76c-.33.5-.74,1.11-1.24,1.82.06.02.11.02.15,0,.31-.44.68-1.05,1.09-1.82ZM83.85,36.47h-.06l-.26.4.06.03.27-.43ZM86.87,40.12c-.06-.06-.26-.08-.61-.06-.02.08-.04.12-.06.12-.04,0-.08-.03-.12-.09l-.09.06c-.13-.02-.29-.04-.46-.06-.06-.02-.1-.03-.12-.03-.04,0-.08,0-.12.03-.04.02-.08.03-.12.03h-.78c-.12,0-.27-.02-.46-.04h-.32c.85.1,1.56.16,2.12.16.5,0,.88-.03,1.13-.11ZM83.77,22.58s-.07.03-.15.03l.06-.06s-.04-.06-.06-.06c.06,0,.11.03.15.09ZM86.94,31.58h-.06s-3.06,4.85-3.06,4.85l.06.03,3.06-4.88ZM84,35.68l-.06-.03-.03.09.03.03.06-.09ZM84.12,37.95h-.06s-.12.23-.12.23l.06.03.12-.26ZM84.71,34.53l-.06-.03-.68,1.16h.06s.68-1.12.68-1.12ZM88.78,17.25c-.83-.26-1.75-.35-2.76-.29-.06-.04-.16-.06-.29-.06-.33,0-.82.08-1.48.25.06,0,.13,0,.22-.03.09-.02.16-.03.22-.03.06,0,.12.04.2.1.08.07.13.1.14.1.04,0,.09-.02.15-.07.06-.05.11-.07.15-.07l.06.09c.06,0,.22.02.49.06.17.02.34.02.49,0l.06-.06c.19.04.47.05.84.04.33-.02.62-.02.87-.02l.12-.06s.21.05.52.03ZM84.72,39.7v-.06h-.12s0,.06,0,.06h.12ZM84.81,36.33h-.06s-.06.11-.06.11l.06.03.06-.14ZM84.82,34.38l-.06-.03-.06.09.06.03.06-.09ZM84.98,36.07l-.06-.03-.09.12.06.03.09-.11ZM84.97,34.12l-.06-.03-.06.12h.06l.06-.09ZM85.03,34.01h-.06l-.03.09.03.03.06-.12ZM88.43,33.31c-.82,1.13-1.98,2.91-3.47,5.31.45-.33.67-.65.68-.98l.09.03c.33-.42,1.24-1.88,2.71-4.36ZM85.09,20.85v-.09h-.09s0,.09,0,.09h.09ZM85.21,33.69h-.03s-.18.29-.18.29l.06.03.15-.32ZM86.35,42.06l-1.33-.04v-.06l1.34.04v.06ZM85.16,35.75h-.06l-.03.09.06.03.03-.12ZM85.3,22.65h-.17c0,.1.04.14.12.14.02-.04.04-.09.06-.14ZM85.28,35.52h-.06l-.03.15h.03s.06-.15.06-.15ZM85.61,43.6h-.35v-.09h.35s0,.09,0,.09ZM85.41,33.4l-.06-.03-.09.17.06.03.09-.17ZM85.72,21.15v-.09s-.41,0-.41,0v.09h.41ZM85.57,38.31l-.06-.03-.15.29.06.03.15-.29ZM85.51,22.74h-.12v-.06h.12v.06ZM85.88,22.74s-.05-.04-.09-.06c0,.04-.03.06-.09.06-.04,0-.06,0-.06-.03.02-.02.02-.03,0-.03-.04,0-.1.03-.17.09.23,0,.37,0,.41-.03ZM85.66,38.19h-.06l-.06.09.06.03.06-.12ZM86.09,21.9v-.06h-.46s0,.05,0,.05h.46ZM85.72,38.11l-.06-.03-.03.09.06.03.03-.09ZM85.88,43.6h-.2v-.09h.2s0,.09,0,.09ZM85.86,39.21v-.06h-.17s0,.06,0,.06h.17ZM85.87,37.85l-.06-.03-.12.2.06.03.12-.2ZM85.9,21.12l-.03-.06-.09.06v.06s.12-.06.12-.06ZM85.96,37.73l-.06-.03-.06.12h.06s.06-.09.06-.09ZM90.18,22.52c-.7.21-1.53.3-2.5.3-.04,0-.1,0-.19.03-.09.02-.15.03-.19.03-.08,0-.2-.01-.38-.03-.17-.02-.3-.03-.38-.03-.02,0-.02,0,0,.03,0,.02-.01.03-.03.03-.02,0-.03,0-.03-.03.02-.02.02-.03,0-.03-.29,0-.41,0-.35.03l-.03-.17c.04-.06.09-.08.15-.08.08,0,.19.06.35.18.1,0,.23-.01.39-.04.16-.03.29-.04.39-.04h.09c.06.02.1.03.12.03.08,0,.21-.02.39-.07.18-.05.33-.06.45-.04.06-.08.11-.12.15-.12.02,0,.05.02.1.04.05.03.08.04.1.04.04,0,.09-.01.16-.04.07-.03.11-.04.13-.04.04,0,.08.02.12.04.04.03.08.04.12.04.06,0,.15-.02.28-.07.13-.05.23-.06.31-.04v.06s.08.06.08.06l.03-.12.17.06ZM99.67,40.96l-.64.11-.09-.09h-.49s.93-.2.93-.2h-.58s-.06-.12-.06-.12l-.09.09-.03-.06c-.33-.04-.7,0-1.1.14l-.09-.06c-.12.06-.35.08-.7.08-.19,0-.49-.02-.9-.05-.41-.03-.71-.05-.9-.05-.62,0-1.08.09-1.37.28l-.09-.09c-.35.11-1.06.18-2.12.21l-.09-.09c-.45.05-.93.08-1.45.07l-.09.06c-.08.02-.53.05-1.37.1-.54.03-1,.02-1.36-.04.58-.05,1.4-.11,2.47-.15-.49-.06-.93-.09-1.34-.1-.78,0-1.43.09-1.98.3,1.12.24,2.36.37,3.71.38,1.08.01,2.71-.09,4.87-.29,2.16-.2,3.78-.3,4.87-.29l.06-.14ZM86.44,39.22v-.06h-.17s0,.06,0,.06h.17ZM86.43,36.98l-.06-.03-.03.09.03.03.06-.09ZM86.48,21.12l-.09.06v-.06s.06-.06.06-.06l.03.06ZM89.58,41.95c-.52.05-1.54.06-3.05.03h1.16c.19.01.5,0,.93-.04.41-.04.73-.03.96,0ZM86.69,33.79l-.06-.03-.09.11.06.03.09-.12ZM87.59,37.34c-.08-.08-.12-.16-.11-.23-.23.02-.37.16-.41.43,0,.04-.01.09-.03.15-.1.09-.23.24-.41.43.04.04.07.08.09.12-.04-.04-.08-.03-.12.03.21.21.36.32.43.32.1,0,.17-.07.23-.2-.02.02-.17.02-.46,0,.04-.1.11-.14.2-.14.08,0,.16.02.23.06-.04-.19.08-.51.36-.95ZM86.73,42.53h-.09v-.06h.09s0,.06,0,.06ZM92.27,20.39c-.31-.16-.87-.24-1.68-.25-.43,0-1.07.03-1.93.1-.86.07-1.51.1-1.93.1.23.04.58.04,1.05,0,.48-.04.83-.05,1.05-.05,2.03.02,3.18.05,3.45.09ZM87.06,44.4h-.23v-.06h.23s0,.06,0,.06ZM87.47,30.8l-.06-.03-.47.78.06.03.47-.78ZM99.59,39.94c-.17-.17-.55-.26-1.13-.27-.04,0-.4.02-1.07.05-.37.02-.66.01-.87,0l.26-.03c-.08,0-.58-.03-1.51-.07-.48-.02-.99-.03-1.51-.01-.64.01-1.14.05-1.51.1l.73.09-.06.09c-3.39-.11-5.37-.03-5.96.24h.44s.09-.02.09-.02v.03c.31,0,.77-.03,1.38-.09.61-.06,1.07-.09,1.38-.09.27,0,.46.03.58.09-.04,0-.52.06-1.45.19.31,0,1.24-.02,2.79-.06l-.32-.15c.27-.08.59-.11.96-.11.25,0,.53.02.84.07-.2.08-.48.12-.84.14.46,0,1.15-.02,2.06-.08.91-.06,1.6-.09,2.06-.08.52,0,1,.04,1.42.1l.09-.12h-.55c.25-.06.52-.09.81-.09.27,0,.57.04.9.09ZM87.89,43.09s-.14.02-.35.06c-.12.02-.29,0-.52-.03.23.02.44,0,.61-.08l.26.06ZM87.35,21.16v-.08h-.23s0,.08,0,.08h.23ZM89.36,44.33c-.1,0-.23.01-.41.04-.17.03-.31.04-.41.04-.06,0-.16-.01-.29-.03-.14-.02-.23-.03-.29-.03-.1,0-.19.03-.29.08l-.52-.06c.46,0,.73-.06.78-.2.02.04.03.08.03.12.1.02.56.03,1.39.04ZM87.32,20.87v-.09s-.14,0-.14,0v.09h.14ZM87.67,20.81l-.32.06v-.09s.32-.03.32-.03v.06ZM88.86,34.74s-.12.07-.23.14c.02.04-.03.11-.15.2-.12.09-.19.21-.21.33-.02.12-.04.26-.06.39l-.35.43c-.06.19-.16.45-.3.78v.15c.06,0,.12,0,.17-.03-.04-.31.16-.63.59-.96-.08-.02-.11-.08-.09-.17l.09.06c.04-.13.12-.26.23-.38.16-.41.26-.72.3-.96ZM88.44,42.55h-.73s0-.06,0-.06h.73v.06ZM90.4,20.66c-.31-.06-.74-.06-1.31-.01-.25.02-.7.06-1.34.13.1.02.98-.02,2.64-.12ZM92.8,19.49c-.62-.16-1.55-.25-2.79-.26-.62,0-1.32,0-2.09.04h.32c2.32.02,3.84.09,4.56.22ZM88.12,29.42l-.03-.03-.06.12h.06l.03-.09ZM88.24,29.24l-.06-.03-.09.12.06.06.09-.14ZM88.39,28.63l-.06-.03-.24.41.06.03.24-.41ZM88.62,28.64l-.06-.03-.26.49.06.03.26-.49ZM88.55,33.08h-.09s-.03.17-.03.17h.06l.06-.17ZM88.57,28.32h-.03s-.06.11-.06.11l.06.03.03-.15ZM88.61,32.91h-.06s-.06.17-.06.17h.09s.03-.17.03-.17ZM89.07,27.54l-.06-.03-.44.78.03.03.47-.78ZM89.06,27.88h-.06l-.41.69.06.03.41-.72ZM88.94,18.44v-.09s-.26,0-.26,0v.09h.26ZM88.82,32.59l-.03-.03-.09.17.06.03.06-.17ZM88.87,42.99l-.12.06v-.06s.09-.06.09-.06l.03.06ZM88.91,32.44l-.06-.03-.03.12h.03l.06-.09ZM89.2,32.01l-.06-.03-.24.43.03.03.26-.43ZM89.23,18.45v-.09s-.26,0-.26,0v.09s.26,0,.26,0ZM89.3,27.1l-.03-.03-.21.35.06.03.18-.35ZM89.39,19.81v-.06h-.23s0,.06,0,.06h.23ZM89.59,26.93l-.03-.03-.32.55.06.03.3-.55ZM93.5,18.6l-.03-.2c-.48-.08-.85-.12-1.1-.12-.23,0-.38.03-.44.08.16.04.39.13.7.27-.17-.02-.6-.08-1.28-.19-.54-.08-.98-.12-1.31-.13-.08,0-.19,0-.35.03-.15.02-.27.03-.35.03,1.24.01,2.1.08,2.58.2.87.22,1.25.33,1.16.33.06-.02.19-.11.41-.29ZM90.26,43.87h-.78c.1-.03.36-.02.78,0ZM89.83,33.03c-.04.06-.11.11-.2.14.02.02.03.05.03.09.1-.04.16-.12.18-.23ZM89.91,17.26s-.1-.09-.17-.15c-.04.02-.07.07-.09.14h.26ZM89.75,26.35l-.03-.03-.06.09.06.03.03-.09ZM99.72,41.69l-.64-.06.5-.14c-.17-.04-.37-.06-.58-.06-.27,0-.67.04-1.19.12-.52.08-.92.12-1.19.12-3.25-.03-5.22-.02-5.9.04.74-.03,1.85-.02,3.34.03-.37.06-1.78.1-4.24.14l-.09.12,3.63-.09c1.3-.03,2.51,0,3.63.06l-.79.05c.31-.02,1.46-.07,3.46-.17-.12.02-.22.03-.32.02-.14,0-.26-.02-.38-.06l.76-.11ZM89.89,29.9h-.06s-.06.09-.06.09l.06.03.06-.12ZM89.99,27.81l-.06-.03-.15.29h.06s.15-.26.15-.26ZM90.02,44.27h-.2s0-.06,0-.06h.2s0,.06,0,.06ZM90.72,31.47s-.08-.02-.12-.06c-.22.33-.46.81-.74,1.45.1-.06.18-.14.23-.26-.04,0-.06,0-.06-.03l.15-.12c.12-.25.3-.58.53-.98ZM91.68,21.4l-1.8-.02c.6-.03,1.2-.03,1.8.02ZM90.3,19.79v-.06h-.35s0,.06,0,.06h.35ZM90.17,40.5v-.06s-.14,0-.14,0v.06h.14ZM90.2,27.52h-.09v-.12h.09s0,.12,0,.12ZM90.24,29.26l-.06-.03-.03.09.03.03.06-.09ZM90.26,40.47v-.09h-.09s0,.09,0,.09h.09ZM90.55,26.85h-.06s-.27.52-.27.52h.06s.27-.52.27-.52ZM90.58,43.84h-.29s0-.06,0-.06h.29s0,.06,0,.06ZM90.66,41.78v-.06s-.26,0-.26,0v.06h.26ZM90.7,26.68l-.06-.03-.12.17.06.03.12-.17ZM90.88,22.47c-.06-.08-.13-.12-.2-.12-.04.02-.09.07-.15.14.08.02.19.01.35-.03ZM90.74,19.04v-.06h-.2s0,.06,0,.06h.2ZM90.68,28.45h-.06s-.03.09-.03.09l.03.03.06-.12ZM90.69,20.69v-.06h-.09v.06h.09ZM91.05,43.76c-.16.02-.27.03-.35.03.35,0,.54,0,.58-.02h-.23ZM90.83,28.19h-.06s-.03.09-.03.09l.03.03.06-.12ZM90.92,28.05h-.06l-.06.09.06.03.06-.12ZM92.91,19.35c-.91-.24-1.57-.36-1.97-.37.73.1,1.39.23,1.97.37ZM91.19,40.92v-.06h-.12s0,.06,0,.06h.12ZM91.21,28.28h-.06l-.06.12.06.03.06-.15ZM91.76,21.28v-.06s-.67-.04-.67-.04v.06s.67.03.67.03ZM91.45,20.7v-.06h-.35s0,.05,0,.05h.35ZM91.36,44.17l-.2.06v-.06l.21-.06v.06ZM91.5,21.69v-.06h-.2s0,.06,0,.06h.21ZM91.95,27.04h-.06s-.53.87-.53.87l.06.03.53-.89ZM91.91,20.97v-.06l-.46-.03v.06s.46.03.46.03ZM91.58,25.26l-.06-.03-.03.12h.06s.03-.09.03-.09ZM91.8,20.76v-.09s-.2,0-.2,0v.09h.2ZM91.76,24.94l-.03-.03-.09.17.06.03.06-.17ZM92.05,38.95v-.06h-.29s0,.06,0,.06h.29ZM92.23,40.84h-.29c.06,0,.14.03.26.09,0-.02,0-.05.03-.09ZM93.54,17.81s.05-.08.03-.12c-.25.04-.44.05-.55.05.08,0,.13.05.17.15v.12c-.33,0-.5-.07-.49-.21,0-.06.03-.11.09-.14-.08,0-.22-.03-.44-.09l-.21.2.09.03s-.12.02-.23,0c.23.06.73.22,1.51.48l.18-.23s-.03-.12-.14-.23ZM92.18,39.79v-.06l-.17-.03v.06l.17.03ZM92.38,43.8h-.32s0-.09,0-.09h.32s0,.09,0,.09ZM92.27,26.49l-.06-.03-.15.23.03.03.18-.23ZM92.38,40.4v-.06h-.09s0,.06,0,.06h.09ZM96.83,40.33c.06,0-.3.02-1.08.05-.17,0-.43-.02-.75-.05-.33-.03-.56-.05-.7-.05-.04,0-.09,0-.16.03-.07.02-.12.03-.16.03h-1.6c2.5.05,3.98.05,4.44,0ZM92.64,43.8h-.12s0-.09,0-.09h.12s0,.09,0,.09ZM92.78,21.87h-.06s-.03.12-.03.12l.06.03.03-.14ZM92.79,43.81h-.09v-.06h.09s0,.06,0,.06ZM92.98,21.59h-.06l-.18.26.06.03.18-.29ZM92.9,40.84v-.06h-.12s0,.06,0,.06h.12ZM92.96,43.66h-.09s0-.09,0-.09h.09s0,.09,0,.09ZM93.1,40.85l-.08-.06v.06s.08.03.08.03v-.03ZM93.66,40.85c-.1,0-.24-.01-.43-.03.13.06.21.09.23.09.04,0,.05,0,.04-.03,0-.02,0-.03.04-.03h.12ZM94.26,24.68c-.06.21-.28.87-.66,1.97h-.14s.03-.09.03-.09l-.06-.06c-.02.06-.06.1-.12.12.02-.08.09-.21.21-.41.04-.1.1-.26.18-.49.2-.44.38-.79.56-1.04ZM93.61,42.39v-.06h-.26s0,.05,0,.05h.26ZM94.81,21.72c-.79,1.43-1.18,2.17-1.18,2.23,0,.04.02.07.06.09.26-.52.63-1.29,1.12-2.31ZM93.76,18.75h-.06l-.06.14h.06s.06-.14.06-.14ZM93.96,42.39v-.06h-.26s0,.06,0,.06h.26ZM93.82,18.66l-.03-.03-.06.12h.06l.03-.09ZM93.9,19.53l-.06-.03-.09.14.06.03.09-.14ZM93.94,21.6h-.03s-.06.08-.06.08l.06.03.03-.11ZM94.05,19.33l-.06-.03-.12.14.06.06.12-.17ZM94.01,22.96l-.06.09-.06-.03.06-.09.06.03ZM94.05,21.97l-.06-.03-.09.14.06.03.09-.14ZM94.29,21.48s-.03-.06-.03-.12l-.27.43c.02.1.05.14.09.12.06-.12.13-.26.21-.43ZM94.59,43.85h-.58s0-.06,0-.06h.58v.06ZM94.01,26.36c.12-.37.2-.55.24-.55.02.13,0,.24-.06.32-.12.12-.18.19-.18.23ZM94.17,18.63l-.06-.03-.09.17.06.03.09-.17ZM94.25,42.4v-.06h-.2s0,.06,0,.06h.2ZM94.4,18.87v-.15s-.14,0-.14,0v.14s.14,0,.14,0ZM94.47,20.93c-.12.23-.18.39-.18.46,0,.02,0,.03.03.03.04-.12.09-.28.15-.49ZM98.81,42.35l-.06-.09c-2.05.1-3.53.13-4.42.11.39.06,1.07.08,2.06.05.02-.06.04-.09.06-.09.04,0,.08.03.12.09.08,0,.45-.02,1.1-.08.45-.04.81-.04,1.1-.02l.03.03ZM94.61,25.11c-.02.06-.06.12-.12.2l.06.18c.04-.15.06-.28.06-.38ZM94.87,21.66v-.09h-.09s0,.08,0,.08h.09ZM94.97,20.21v-.09s-.14,0-.14,0v.09s.14,0,.14,0ZM95.01,18.41v-.06s-.09,0-.09,0v.06s.09,0,.09,0ZM95.01,18.26v-.06h-.09s0,.06,0,.06h.09ZM95.2,17.04v-.2c-.08.08-.12.14-.12.2h.12ZM95.35,23.09c-.12.13-.18.26-.18.38,0,.04.02.09.06.15.1-.19.15-.34.15-.43,0-.04,0-.07-.03-.09ZM95.53,39.21v-.09h-.12s0,.09,0,.09h.12ZM95.53,22.77c-.04-.08-.06-.14-.06-.18,0-.33.18-.84.54-1.53,0,.25,0,.45.02.58.14-.12.25-.27.32-.46l.15-.03c0,.1-.06.21-.16.33-.11.13-.16.21-.16.25-.04.12-.09.28-.15.49-.16.39-.32.57-.5.55ZM95.6,21.26h-.06s-.06.2-.06.2h.06l.06-.2ZM95.92,43.92h-.44v-.06h.44v.06ZM96.13,43.92h-.14v-.06h.15s0,.06,0,.06ZM96.39,43.52v.06l-.12-.06v-.03l.12.03ZM96.65,43.55v-.09s-.15,0-.15,0v.09h.15ZM97.37,40.82v-.09s-.17,0-.17,0v.09s.17,0,.17,0ZM99.35,43.51c-.08.02-.19.03-.35.03.04-.02.13-.05.26-.08-.08-.06-.21-.08-.41-.06-.02.04,0,.1.03.17-.06-.14-.13-.19-.2-.18-.18.08-.25.11-.23.11-.02,0-.06-.02-.12-.06-.04-.04-.09-.02-.15.06l-.06-.09c.08.08-.1.12-.52.11v-.14c.41-.02.99-.07,1.75-.16v.29ZM98.13,43.62l-.32.03v-.06s.32-.03.32-.03v.06ZM98.77,43.57c-.27.05-.46.08-.58.08.06-.08.25-.1.58-.08ZM98.93,42.12h-.14s0-.09,0-.09h.14s0,.09,0,.09ZM99.21,43.74h-.15v-.06h.15v.06ZM99.7,40.41v-.03l-.09.03v.06l.09-.06ZM100.91,38.5c-.13,0-.54-.02-1.22-.07l.43.24h.09s.07-.03.09-.03c.08,0,.17.03.29.09.14,0,.24-.08.32-.23ZM99.79,40.47h-.06l-.03.09.03.03.06-.12ZM99.94,40.27l-.06-.03-.03.09.03.03.06-.09ZM100.16,41.23v-.06h-.17s0,.06,0,.06h.17ZM100.13,41.55v.06s-.12-.06-.12-.06l.03-.03.09.03ZM100.33,41.72l-.09-.12-.06.06.09.09.06-.03Z"/>
</svg>