<?xml version="1.0" encoding="UTF-8"?>
<svg id="a" data-name="Laag 1" xmlns="http://www.w3.org/2000/svg" viewBox="0 0 127.22 62.78">
  <defs>
    <style>
      .b {
        fill: #007ba4;
      }
    </style>
  </defs>
  <path class="b" d="M105.67,17.05c.41-.04.74-.14.96-.34-.29.11-.75.23-.96.34Z"/>
  <polygon class="b" points="115.29 62 114.89 62.06 115.1 62.1 115.29 62"/>
  <path class="b" d="M115.1,62.1l-.69.37c1.07-.21,1-.3.69-.37Z"/>
  <path class="b" d="M57.08,5.97l.52.06c-.26-.06-.43-.08-.52-.06Z"/>
  <path class="b" d="M50.1,7.4c-.46.19-.84.38-1.2.57l-.04.09c.23-.02.88-.45,1.24-.66Z"/>
  <path class="b" d="M59.06,6.48c-.49-.23-.98-.37-1.47-.45.82.19,1.9.93,1.47.45Z"/>
  <path class="b" d="M106.79,16.55c-.04.06-.11.11-.16.16.19-.07.29-.13.16-.16Z"/>
  <path class="b" d="M87.52,60.2c.29-.31.36-.47.31-.52-.58.69-1.31,1.3-2.18,1.76,1.04-.45,1.57-.94,1.87-1.25Z"/>
  <path class="b" d="M73.25,3.42c.13-.06.25-.13.38-.19-.17.07-.29.13-.38.19Z"/>
  <path class="b" d="M86.01,2.53c.1-.03.19-.06.3-.1-.11.03-.21.06-.3.1Z"/>
  <path class="b" d="M119.74,29.63c.14-.26.3-.55.47-.92-.19.34-.34.64-.47.92Z"/>
  <path class="b" d="M88.2,58.12s0,0,.01-.01c-.11-.06-.22-.13-.33-.2-.04.09-.08.18-.13.27l.45-.06Z"/>
  <path class="b" d="M113.39,39.14s0,0,0,0c0,0,.01-.02.02-.03l-.03.04Z"/>
  <path class="b" d="M118.84,20.46c.03.08.07.15.09.23-.02-.07-.05-.15-.09-.23Z"/>
  <path class="b" d="M126.32,56.24c.34-.57.64-1.17.9-1.79-.27-.67-.72-.4-.84-1.53.07-.94.14-1.43.26-1.5.12-.07.3.29.41,1.06.09-1.87-.02-3.82-.79-5.92-.2-.53-.46-1.07-.84-1.62-.21-.29-.38-.52-.76-.87l-.13-.11-.28-.22c-.16-.11-.31-.21-.46-.29-1.23-.67-2.3-.84-3.35-1-2.08-.27-4.03-.21-5.93-.07-.41.03-.8.08-1.2.12.5-.75,1.04-1.52,1.56-2.26,1.57-1.87,2.67-3.53,2.24-4.02,1.11-.63,2.44-2.32,3.59-4.59.57-1.14,1.1-2.42,1.47-3.83.36-1.39.59-3.03.2-4.66-.4.63-.55-.69-1.39-2.01-.81-1.35-2.26-2.43-2.98-2.58-.14-.5.96-.17,2.1.65.56.41,1.11.95,1.51,1.42.4.47.66.84.79.81-1.01-1.55-2.5-2.82-4.07-3.71-.79-.45-1.6-.84-2.43-1.16-.85-.32-1.6-.58-2.58-.78l-.19-.04-.38.02c-3.04.17-5.73.4-6.68,1.47-.59-.02-.6-.09-.41-.19-.67.06-1.51-.03-2.27-.08.24-.86.43-1.72.55-2.54.29-1.94.07-3.57-.31-3.87.21-1.07.42-2.4.74-1.11-.3-1.57-.81-2.7-1.32-3.57-.51-.87-1.02-1.49-1.58-2.05-1.12-1.07-2.52-2.1-5.48-2.58,1.02.22,1.33.12,1.76.09.41,0,1-.02,2.38.95-.43-.57-1.27-1.13-2.34-1.52-1.07-.39-2.34-.62-3.64-.71-2.61-.19-5.4.13-7.65.09-.58.29-1.16.6-1.72.91-2.67.55-2.98-.04-1.1-.64-2.37.17-4.18.63-5.78,1.19-1.61.57-3.04,1.23-4.7,2.03-.17.01-.16-.08.05-.22-1.49.71-2.94,1.52-4.31,2.43-.37.44-1.67,1.84-1.09,1.97.28-.68.99-1.61,3.62-2.84.59.2-.06.57-.76,1.01-.7.43-1.45.94-1.1,1.25,1.15-1.02,2.11-1.73,2.96-1.65-.85,1.02-2.74,1.58-2.79,2.57.56-.51,1.13-1,1.73-1.47.63-.17.71.02.71.23-2.54,1.48-4.38,3.02-5.87,4.22,1.52-1.58,1.19-2.29,1.46-3.17-.8.63-1.57,1.28-2.31,1.9-.74.62-1.47,1.23-2.12,1.61-.12-.26.4-.69,1.15-1.38.74-.67,1.67-1.46,2.08-1.87.51-.84-.23-.43-1.04.09-.81.52-1.64,1.07-1.58.67-.16.42-.71.95-1.15,1.25-.06.04-.11.08-.16.11,0,0,0-.01,0-.02.07-.13-.22-.27-.48-.53l-.45-.4-.22-.19-.27-.27c-.84-.87-2.08-2-3.92-2.67-.3-.2-.34-.27-.26-.31-1.47-.07-2.82.33-4.52.93.44-.13.9-.25,1.39-.32-1.35.51-3.06,1.56-3.96,2.36-.78.68-1.06,1.12-.06.99-1.12.56-2.2,1.14-3.18,1.5-.59.2-1.19.34-1.8.3.35-.4.63-.94,1.12-1.55.5-.61,1.25-1.36,2.82-2.21l.23-.49c-1.34.4-2.84,1.39-3.54,1.9-.36.26-.5.44-.58.63-.06.18-.16.38.06.57-.18.24-.44.4-.75.38-.31-.02-.67-.3-.92-.68-.5-.89-1.07-2.17-2.38-2.8-1.31-.64-2.86-.35-4.07.09-1.25.45-2.33,1.09-3.21,1.77-.51-.32,1.5-1.65,2.45-2.44,1.29-.64,2.54-.84,2.71-.39.85-.14,1.56-.08,2.07.02.52.1.84.2,1.04.23.41.07.38-.19.33-.44-.04-.24-.09-.48.48-.23.27.13.72.41,1.19.94.23.26.48.58.71.96.12.19.22.39.33.61.02.04.03.07.05.11-.01,0-.04.01-.05.01,0,0,0,0,0,.01v.14s0,.25,0,.25c0,.1,0,.2-.01.28l.02-.16c.01-.06.04-.13.06-.19.02-.04.05-.09.07-.13,0,0,0,0,0,0l.07.18.04.09h0s.04.09-.03-.07h0s0,.03,0,.03v.03c.04.07.09.21.08.21h-.02s-.01.06-.02.09c-.03.03-.06.06-.1.08-.06,0-.11.03-.2-.01,0,0,0,0,0,0h0c-.06-.04-.14-.1-.26-.26-.27-.41-.58-.75-.6-.66-.02.04.03.19.15.49.13.34.25.69.36.84.08.01.16,0,.22-.03.02,0,.04-.02.06-.04,0,0,0,0,0,0,0,0,0,0,0,0,.03-.03.05-.05,0,.02h0s.14-.21.4-.42c.1-.09.21-.17.33-.25l.06-.04s-.06-.11-.09-.16l-.03-.05h0s-.03-.08.04.08h0s0-.03,0-.03l-.02-.04-.08-.15-.15-.3c-.12-.2-.22-.4-.36-.6-.25-.39-.56-.79-.92-1.17-.71-.75-1.75-1.4-2.8-1.66-1.48-.37-2.74-.12-3.7.17-.98.3-1.77.69-2.49,1.06-1.43.75-2.62,1.49-3.65,1.99-.45.22-.87.37-1.13.43l-.02-.04-.15-.41s-.04-.08-.06-.13c0-.08,0-.13,0-.1l.04-.07-.04.03s0,0,0,0v.13c-.24-.6-.52-1.16-.84-1.65-1.42-2.13-3.1-3.13-4.16-3.76-1.09-.61-1.69-.85-1.69-.86-2.57-.91-5.13-1.24-7.65-1.34-2.52-.09-5.01.09-7.47.48-.62.1-1.22.21-1.85.34l-.44.09c-.21.04-.57.14-.83.25-.56.23-1.03.55-1.42.89-.77.69-1.2,1.42-1.56,2.1-.35.69-.59,1.35-.79,1.99C.65,9.29.4,11.72.21,14.14c-.34,4.84-.22,9.58,0,14.3.23,4.72.61,9.42,1.08,14.11.75,5.86.96,7.98,2.68,10.13.12-.99-.19-3.42,0-3.81.45,4.13.81,6.8.81,6.8,10.86,15.58,15.02.12,17.14-1.09.03-.01.05-.03.08-.04.02,0,.04-.01.06-.02.16-.02.33.02.49.07.01,0,.03-.02.04-.03.45.13.99.45,1.6.89.05.06.1.12.17.2-.03-.04-.03-.07-.05-.1,2.39,1.77,5.82,5.26,9.34,6.14.23.06.48.08.72.11-.24.03-.69-.05-1.11-.22.95.44,2.06.55,3.14.43.03-.14.17-.3.37-.45.78-.21,1.57-.52,2.33-.89-.18.29-.07.45.48.38,1.54-.97,2.91-2.11,4.24-3.27-.66.49-1.4,1.01-1.91,1.26,2.07-1.36,3.65-2.69,3.98-2.58,0,0,.01,0,.02,0,.12.05.21.15.33.2.57.32,1.26.55,2.03.56,1.18.35,2.61.74,3.96.98-.57,0-1.13-.01-1.64-.05,1.59.21,2.77.4,3.79.5,1.04.07,1.82.03,2.57.06,1.49,0,2.84-.05,5.03-1.37-.38.06-.76.1-1.14.15,1.75-.38,3.06-.79,4.07-1.2-.16.21-.38.43-.67.65-.47.36-1.1.71-1.75.99,1.11-.45,2.2-.97,3.21-1.6.58.05,1.18.06,1.8.02,1.06-.87,1.75-1.57,2.56-1.86.41-.16.87-.25,1.34-.3.5-.05.85-.01,1.31.13-.09,0-.18,0-.27,0,.93.68,1.9,1.26,3.1,2.03,1.18.77,2.38,1.7,3.52,3.03-.31-.21-.18.03-.79-.39.73.65,1.49,1.31,2.45,1.86l.03.27c.07-.32.84,0,1.96-.04,1-.08,2.07-.57,2.51-1.08,0,0-.01,0-.02,0,.77-.4,1.37-.96,1.79-1.46.07.06.14.12.21.17-.03.06-.05.12-.09.18-.27.49-.72,1.08-1.7,1.41.06.1.65.01,1.22-.2.57-.2,1.11-.51,1.21-.42.1-.12.2-.24.29-.36.14.08.28.17.42.24.57.3,1.15.55,1.72.78,1.15.45,2.32.79,3.48,1.08,2.33.57,4.68.92,7.04,1.13,4.71.42,9.44.28,14.1-.49-.38-.06-.84-.13-.6-.3,1.1.1,3.07-.3,2.8.14l-.35.09c1.29-.22,2.54-.17,3.68-.09l.81.06.39.03h.2s.31,0,.31,0c.82-.07,1.56-.39,2.07-.78.26-.35.75-.88,1.15-1.49.41-.61.76-1.29,1-1.9.46-1.22.55-2.11-.02-1.57ZM45.02,9.68s-.01.06-.02.08c0-.02.01-.06.02-.08ZM113.96,44l.5.13c.91-.32,1.83-.62,2.78-.89,1.16.13,2.46.37,3.55.78.66.24,1.22.58,1.61.93-1.22-.52-3.02-.72-4.91-.76.05-.09.1-.19.17-.29-1.67-.07-1.5.09-1.36.29-.91.01-1.81.06-2.66.12-.11-.1-.1-.21.33-.32ZM113.27,44.34c-.66.05-1.28.11-1.84.17.16-.25.31-.44.43-.54.09,0,.18,0,.27.01.04.07.06.18.07.35.06-.11.13-.22.19-.33.52.06.86.16.89.33ZM108.98,44.62l.12.19c-.18.03-.27.04-.27.04l.16-.23ZM109.32,44.12l.04-.06c.1,0,.2-.02.3-.03-.05.15-.08.3-.12.46l.14.23c-.07,0-.14.02-.2.03.02-.09.04-.17.06-.26l-.23-.37ZM113.4,39.13c-.9,1.19-1.78,2.41-2.52,3.66-.05,0-.1.02-.15.02.11-.17.21-.34.28-.48-.23.19-.41.37-.57.53-.09.01-.18.03-.27.04l.22-.31c.16-.06.31-.11.47-.17-.11,0-.24,0-.37.02l2.53-3.61s2.07-2.42,4.04-5.5c.1.13.16.29.07.57.42-.76.83-1.53,1.2-2.31-.42,2.25-2.58,4.93-4.94,7.54ZM112.96,17.91h.02s0,0,0,0c.97.24,2.36.49,3.58.97,1.07.4,1.97,1.03,2.27,1.58-.09-.24-.18-.48-.29-.72,1.02.86,1.87,1.9,2.32,3.13.47,1.23.47,2.57.3,3.79-.36,2.46-1.23,4.77-2.51,7.06.35-.84.32-1.43.43-2.12.08-.53.25-1.11.66-1.97-.71,1.28-1.07,1.39-1.24,1.26,1.16-2.16,2.06-4.41,2.06-6.27,0-5.41-7.59-6.61-7.59-6.61l-1.37.13c.28-.14.46-.26.39-.35.24.09.58.12.97.12ZM108.35,17.76c-.1.17-.91.57-1.16.81l-2.36.23c1.12-.38,1.67-1,3.52-1.04ZM104.54,18.82l-1.66.16c.65-.07,1.24-.14,1.7-.23l-.04.07ZM87.67,57.62h-.02c.07-.11.1-.18.11-.18,0,0,0,0,0,0,0,0,0,0,0,0,0,0,.05.06.16.15h-.02s-.1-.1-.15-.15c-.03.06-.06.12-.09.18ZM87.75,57.44h0s0,0,0,0h0ZM101.93,17.17c.03-.83-.22-.44-.57.21-.04.08-.08.16-.12.24-.07,0-.14-.01-.2-.02.45-1.03.98-2.46,1.32-4.03.25.82.66,1.36-.43,3.61ZM100.24,19.24h0s0,0,0,0h0ZM100.24,19.24h0s0,0,0,0c0,0,.23-.41.55-1.09l.09.13c-.23.41-.46.79-.63.96h0,0ZM102.67,9.85c-.06-.82-.22-1.62-.51-2.38.23.27.45.6.66,1.07.07.76-.02,1.1-.15,1.31ZM85.37,1.86c1.5-.27,3.16-.42,4.28-.72,1.67.3,3.57.34,5.56.59,1.96.25,4.12.76,5.79,2.09-.16.3-.86.11-1.39.1-.21,0-.38,0-.49.05-.45-.26-.93-.51-1.48-.72,0,0,.01,0,.02,0-.72-.33-1.4-.49-2.03-.58-.69-.15-1.42-.27-2.24-.34-1.49-.18-2.95-.22-4.27-.05-.37.02-.73.03-1.13.06-.7.06-1.37.12-2.03.2.01,0,.02-.01.03-.02-.02,0-.04.01-.05.02-.51.06-1,.14-1.48.21-.59-.07-.9-.29-2.15.26.27-.52,1.56-.9,3.05-1.16ZM74.6,5.66c-.24.11-.48.23-.71.35.22-.12.45-.24.71-.35ZM61.01,12.01c.54.27,1.05.33,1.39.21.17.5.42.71.47.96-1.22.19-2.39-.5-3.97-2.62-.08-.11-.17-.21-.26-.31.25.21.5.43.74.65.53.45,1.08.86,1.62,1.11ZM33.44,9.53c-.59.35-.89.62-1.04.83-.82.37-1.58.62-2.23.63.15-.02.3-.05.46-.1.9-.3,1.79-1,2.81-1.36ZM28.16,8.7c.31.37.48,1.02.93,1.45-.11.24-.01.51.25.68-.47-.21-.84-.64-1.09-1.39-.15-.44-.34-.85-.56-1.24.15.11.3.27.47.5ZM2.66,33.93c0,.1.01.19.02.29-.02-.04-.03-.08-.05-.11,0-.07.02-.12.03-.18ZM2.84,43.22c.5-.36.52,2.77.58,1.97l-.02-.58c.05.05.1.12.15.18.13,1.37.27,2.66.39,3.83-.49-.9-.9-2.84-1.1-5.41ZM3.53,7.86c-.15.06-.34.3-.57.93.51-1.37.9-2.43,1.31-3.34.42-.89.85-1.71,1.72-2.25l1.08-.61c.33-.19.67-.38,1.04-.55.72-.35,1.53-.66,2.54-.86l-.24.52c1.67-.21,2.76-.26,3.79-.31,1.04-.04,2.02-.09,3.52-.07,1.35.38,1.7.6,1.52.64-.18.05-.9-.04-1.74-.09-1.68-.11-3.82.02-3.09.61.5-.06,1-.12,1.51-.16-.37.17-.76.41-1.2.66-2.79-.04-5.66.27-8.27.82-1.32.28-2.27,1.76-2.93,4.05ZM73.32,53.96c-.25-.05-.7-.25-1.27-.32-.55-.06-1.31.02-1.9.19-.6.17-1.08.49-1.27.79-1.1.62-2.18,1.1-2.88,1.19,0,0-.01,0-.02,0,2.41-1.19,2.8-2.27,5.55-2.55.87-.09,1.71.15,2.53.58-.2-.09-.43-.19-.74-.29.32.37.25.47,0,.41ZM77.36,56.98c-.65-.3-1.3-.78-2.43-1.81-.63-.78-.31-.78-.14-.81.04,0,.07-.02.06-.04,1.19.81,2.32,1.96,3.41,3.06-.31-.14-.6-.26-.91-.41ZM79.26,58.36c.43.41.86.78,1.29,1.1-.11-.02-.22-.04-.33-.07-.76-.61-.95-.88-.95-1.03ZM83.16,60.55c-.17.08-.31.18-.62.15-.29-.03-.71-.18-1.19-.65.04,0,.08,0,.12,0,.48.26.95.42,1.43.45.13,0,.25,0,.37,0-.03.02-.07.04-.11.05ZM87.22,58.24s.05-.06.07-.1c.02.03.04.05.06.08h.05c.04-.11.08-.21.13-.32h-.08c.05-.07.1-.14.14-.21,0,0,.01,0,.02.02-.03.06-.06.13-.08.19l.3-.04s.03.02.04.03c0-.01.01-.03.02-.04l.23-.03c-.05-.05-.1-.1-.14-.15,0,0,0-.02.01-.02.06.05.13.1.21.17h-.08c.05.06.11.13.16.19.02-.03.05-.06.07-.09.07.05.14.09.21.14l-.21.03s-.05-.05-.07-.08c-.03.03-.05.06-.07.09,0,0,.01,0,.02,0h-.03c-.18.21-.35.37-.5.47-.04-.04-.08-.08-.12-.12.06-.1.12-.19.17-.29l-.34.04s-.01.03-.02.04c0-.01-.02-.03-.03-.04l-.14.02ZM124.99,57.03c0,.47-.14,1.08-.49,1.72-.34.63-.93,1.33-1.79,1.73-.4.2-.96.3-1.31.32l-1.09.11c-.71.07-1.38.15-1.93.24.43-.24,1.27-.45,2.19-.65.47-.11.92-.16,1.44-.32.49-.17.91-.47,1.2-.78-.27.19-.61.38-1.01.52-.41.14-.88.16-1.36.22-.97.12-2.06.29-3.13.48-2.15.38-4.25.83-5.31,1.33-1.45-.02-4.58-.25-2.5-.68-2.55.04-3.08.32-3.53.62-.44.29-.81.58-3.04.41l.19-.63c-2.41-.52-4.78-.49-7.15-.64-2.35-.16-4.8-.49-6.79-1.87-.2.19-.4.38-.61.57l-.69-.61c.19-.27.38-.55.56-.88,2.63,1.58,10.89,4.69,32.73,1.81,2.43-.32,3.61-3.63,3.75-7.07h0c-.05,1.11-.1,2.3-.47,4.26l.16-.21ZM125.41,50.84c-.07-.3-.15-.57-.24-.78-.12-.91-.32-1.77-.59-2.5.27.3.5.42.72.5.46.17,1.04.16,1.45,2.26-.19,2.37-.57-.41-.91-.56.2,1.18.27,2.37.23,3.56-.36-.66-.46-1.67-.66-2.48Z"/>
  <path class="b" d="M67.85,7.81l-.06.15.16-.12c-.05,0-.07-.02-.1-.03Z"/>
  <path class="b" d="M44.96,9.89s0,0,0,0c-.02.05-.02.05,0,0-.01.02-.02.03,0,0Z"/>
  <path class="b" d="M45.07,8.69h0s0,0,0,0Z"/>
  <path class="b" d="M45.05,9.49s0-.07,0-.11l-.02.15h0s0-.02,0-.05Z"/>
  <polygon class="b" points="45.78 9.16 45.77 9.16 45.77 9.17 45.78 9.16 45.78 9.16"/>
  <polygon class="b" points="45.63 8.96 45.63 8.96 45.63 8.95 45.63 8.96"/>
  <path class="b" d="M45.77,9.17h-.01s.01.03.02.04c0-.01,0-.02,0-.04Z"/>
  <path class="b" d="M62.48,57.93c-.31.13-.62.25-.94.37.31-.11.63-.23.94-.37Z"/>
</svg>