<?xml version="1.0" encoding="UTF-8"?>
<svg id="a" data-name="Laag 1" xmlns="http://www.w3.org/2000/svg" viewBox="0 0 121.39 61.02">
  <defs>
    <style>
      .b {
        fill: #007ba4;
      }

      .c {
        fill: #fff;
      }
    </style>
  </defs>
  <g>
    <path class="b" d="M3.87,52.8S-2.61,4.67,5.49,2.93c8.1-1.73,18.83-.94,20.95,5.42,1.86,5.59,10.94-6.94,14.13.71,2.35,5.65,10.36-6.36,15.34.37,6.16,8.31,6-6.17,27.98-7.9,21.98-1.73,11.77,16.24,11.77,16.24l12.24-1.18s7.3,1.15,7.3,6.36-7.25,13.66-7.25,13.66l-4.05,5.78s10.99-1.74,13.88.58c2.89,2.31,3.77,13.24-.58,14.46-17.31,4.84-33.56-2.93-33.56-2.93,0,0-1.58,2.85-4.47,4-2.89,1.16-6.94-8.44-11.12-8.01-4.65.48-2.29,3.3-15.71,4.95-2.57.32-8.24-1.65-8.95-1.88-.71-.24-7.14,6.18-11.77,5.03-4.63-1.16-9.1-7.03-11.07-6.91-1.96.12-6.86,20.21-16.69,1.13Z"/>
    <g>
      <path class="b" d="M104.11,15.73c-.28.08-.74.17-.94.25.39-.04.72-.11.94-.25Z"/>
      <polygon class="b" points="108.17 59.72 107.77 59.76 107.98 59.79 108.17 59.72"/>
      <path class="b" d="M107.98,59.79l-.69.23c1.06-.12,1-.19.69-.23Z"/>
      <path class="b" d="M97.28,17.7c-.55.09-1.08.19-1.59.32l-.43.11.18-.49c.05-.13.09-.26.13-.39l-.15.38-.2.51.47-.1,1.59-.34Z"/>
      <path class="b" d="M104.91,17.79c.08.03.23.05.5.05-.16-.03-.33-.05-.5-.05Z"/>
      <path class="b" d="M55.61,6.7c.13.06.25.12.37.19-.18-.12-.31-.18-.37-.19Z"/>
      <path class="b" d="M49.05,6.5c-.47.16-.86.33-1.23.5l-.05.07c.22-.04.9-.41,1.28-.57Z"/>
      <path class="b" d="M51.48,6.18c-.43.05-.84.13-1.24.24.43-.1.85-.18,1.24-.24Z"/>
      <path class="b" d="M21.86,5.01l-.22.11c.16-.02.22-.05.22-.11Z"/>
      <path class="b" d="M56.96,7.58c-.31-.28-.63-.5-.98-.69.56.36,1.22,1.12.98.69Z"/>
      <path class="b" d="M104.27,15.63s-.11.07-.16.11c.18-.05.29-.09.16-.11Z"/>
      <path class="b" d="M96.98,14.63l-.04.09c-.14.43-.08.26.04-.09Z"/>
      <path class="b" d="M81.62,58.1c-.62.5-1.32.94-2.07,1.28.89-.33,1.41-.68,1.71-.9.3-.23.39-.34.36-.38Z"/>
      <path class="b" d="M69.81,3.84c.49.09-.16.41-.85.79-.7.38-1.44.83-1.2,1.02,1.2-.88,2.17-1.46,2.92-1.47-.95.79-2.71,1.39-2.94,2.13.58-.44,1.18-.86,1.8-1.26,1.35-.42-.17.79.96.18.65-.71,2.12-1.3,3.66-1.67,1.54-.39,3.13-.57,4.09-.82l-.68.22c1.01-.13,2.03-.21,3.04-.27.03,0,0,.02.02.03.04-.05.09-.09.12-.14,1.24.15,3.52.09,5.99.01.47-.19,2.46-.23,4.36.16.95.19,1.86.49,2.56.81.71.32,1.2.65,1.46.75-.82-.53-1.54-.92-2.71-1.42l.34-.37c1.11.42,1.07.58,1.07.64-.02.09,0,.07,1,.54.02-.37-.69-.84-1.63-1.12-.94-.3-2.08-.42-2.89-.57.62-.05,1.48-.02,2.5.26-1.61-.56-3.28-.82-4.81-.86-1.54-.05-2.94.13-4.08.53-.97-.05-.54-.35.17-.47-1.22.28-1.67.25-2.08.2-.41-.04-.79-.1-1.81.23.31-.34,1.57-.62,3.03-.79,1.45-.19,3.1-.26,4.18-.39,1.6.27,3.45.43,5.32.95.93.26,1.87.63,2.73,1.16.86.53,1.62,1.24,2.16,2.07-.14.18-.64-.25-1.07-.46-.43-.21-.7-.28-.34.29.48.67.74,1.23.94,1.67l.47,1.1c.26.61.52,1.08.65,2.08-.12,1.25-.35,1.29-.53,1.51-.21.21-.34.61-.86,2.44.13-.75.21-1.5.23-2.23-.47,1-.56,1.48-.56,1.95,0,.46.05.9-.3,1.65.32-.46.53-.39,1.01-2.25.27-.14-.01,1.32-.24,2l.16-.43c.01.43.06.74-.02,1.23-.09.48-.3,1.16-.94,2.25.18-.73-.04-.42-.4.15l-.13-.21c.77-.02,1.92-.12,2.26-.06l-.63.14c1.78-.29,3.64-.42,4.77-.59l-.09.1c1.34-.28,1.8-.77,3.78-.86-.18.2-2.48.91-.32.62-.28.29-2.68.55-4.65.64,1.97-.09,3,.25.6.51.69.28,2.25-.36,3.54-.33-.24-.08.16-.24.05-.33.06.27,1.68.07,3.01-.19h-.17c.86.05,1.67.17,1.73.05-.57-.11-1.16-.2-1.7-.24h.12s-.59.13-.59.13c-.07-.12.2-.25.56-.38h-.06c.75-.08,1.89.12,1.31-.2.47.43,1.99.82,3.39,1.64.69.41,1.34.93,1.77,1.49.43.55.64,1.12.63,1.45,0-.3-.04-.62-.11-.93.63,1.14.78,2.46.64,3.63-.13,1.19-.45,2.3-.82,3.39-.77,2.17-1.81,4.24-3.19,6.34.42-.76.51-1.26.72-1.88.21-.62.56-1.34,1.39-2.63-1.19,2.02-1.56,2.18-1.67,2.05-.12-.15-.05-.64-.56-.13-1.07,1.43-1.24,1.87-1.16,2.12.07.25.37.27.12.78.46-.7.91-1.41,1.34-2.14-.55,1.47-1.82,3.24-3.42,5.05l.02-.03c-1.35,1.83-2.86,3.79-4.09,5.75l-.32-.51,1.21-.25c.31.12-.52.19-1.2.32l.25.4c.1-.14.18-.28.25-.4l-.33.34-.15-.25c1.79-.01,1.77-.4,3.02-.67,2.34-.19,5.14-.04,3.72.45,2.54.09-.28-.29,1.08-.44l.48.11c.9-.16,1.82-.29,2.77-.33.56.12,1.16.28,1.73.52.56.24,1.14.58,1.51,1.05.72.94.86,1.89.85,2.41.46,1.17.66,1.91.86,2.35.19.44.34.61.5.73.15.12.31.2.45.49.14.29.3.8.35,1.8-.29,2.22-.33-.44-.55-.62.06,1.14.02,2.29-.18,3.43-.13-.66-.09-1.64-.16-2.44-.06-.8-.2-1.41-.49-1.29.38,1.35.36,2.32.21,3.37-.08.53-.2,1.08-.41,1.71-.22.62-.48,1.37-1.16,2.11.07-.04.15-.08.22-.13-.23.38-.74.84-1.43,1.04-.59.19-1.29.38-2,.53-1.42.32-2.94.51-4.02.68.86-.35,3.25-.77,4.77-1.26-1.21.2-3.32.63-5.42.96-2.09.34-4.17.58-5.24.84-1.42-.06-4.44-.47-2.38-.58-2.48-.18-3.01-.09-3.47.06-.45.12-.83.29-2.96-.13l.23-.38c-2.28-.67-4.55-1.05-6.8-1.55-2.24-.51-4.45-1.11-6.4-2.29l-.04.03.45-.14.24.47c-.37.39-.89.96-1.41,1.42-.52.46-1.03.81-1.24.85.57-.54,1.06-1.15,1.49-1.78-.76.62-1.08,1.06-1.48,1.56-.4.48-.89,1.05-2.06,1.43.04.07.56-.02,1.07-.19.51-.16,1-.38,1.06-.32,1.11-.92,2-1.95,2.75-3.21l-1.07.34c1.95.87,3.89,1.57,5.87,2.2,1.98.63,4,1.16,6.05,1.58,4.09.83,8.33,1.18,12.54.75-.37-.05-.81-.09-.57-.2,1.07.09,3.02-.22,2.74.07l-.34.07c2.53-.34,4.93-.18,6.45-.55.23-.14.69-.29,1.17-.43l.42-.12c.19-.06.37-.13.55-.21.36-.17.69-.39.96-.62.55-.47.86-.97.99-1.26.12-.29.08-.38-.21-.16.44-.5.79-1.06,1.09-1.64-.05-.66-.37-.43-.28-1.52.16-.9.24-1.36.33-1.41.08-.05.17.3.16,1.04.27-1.77.23-3.62-.1-5.49-.17-.94-.42-1.88-.81-2.82-.2-.47-.43-.94-.75-1.41-.31-.46-.72-.94-1.29-1.31-1.08-.67-2.09-.85-3.07-1.01-.98-.14-1.93-.18-2.86-.19-1.86,0-3.65.14-5.36.35.6-.15,1.21-.29,1.82-.42-.84-.02-2.34.24-3.45.42-1.11.18-1.85.28-1.19-.17l-.5.11,1.51,2.41c1.15-1.88,2.98-4.26,3.97-5.84l-.09.11c.63-.82.94-1.41.81-1.62.96-.66,2.26-2.25,3.5-4.29,1.22-2.04,2.44-4.5,2.92-7.06-.42.36-.12-.64-.2-2.04-.04-.7-.23-1.48-.54-2.1-.3-.63-.7-1.09-.98-1.31-.09-.43.85.27,1.45,1.48.3.59.49,1.28.58,1.81l.11.66c.01.07.03.12.05.15.02.05.03.08.05.09-.06-.9-.27-2.05-.79-3.06-.51-1.03-1.31-1.93-2.19-2.62-.88-.7-1.84-1.22-2.8-1.63-.98-.41-1.87-.69-2.88-.87l-.17-.03-.2.02c-1.94.19-3.52.45-4.21.97-.57,0-.58-.04-.39-.11-.91.08-2.13,0-3.03.02-.52.26,1.45.17-.71.46-1.73.12-.78-.31-1.51-.4-.72.13-1.54.26-2.38.4l1.27,1.95c.71-1.5,1.21-3.01,1.49-4.31.28-1.29.3-2.28.15-2.54.3-.97.61-2.09.63-.91.03-1.43-.12-2.5-.33-3.38-.21-.87-.48-1.55-.82-2.2-.35-.64-.78-1.26-1.46-1.88-.69-.62-1.64-1.24-3.01-1.7.94.36,1.22.4,1.6.48.19.05.41.12.72.32.31.2.74.51,1.26,1.12-.3-.57-.98-1.26-1.92-1.81-.94-.55-2.13-.96-3.37-1.2-2.5-.49-5.17-.37-7.37-.41-.56.18-1.14.38-1.7.59-1.3.17-2,.2-2.16.1-.15-.09.24-.31,1.16-.5-2.26.14-3.98.5-5.54.93-1.56.44-2.95.97-4.57,1.64-.21.03-.1-.12.46-.32-1.58.62-3.12,1.38-4.58,2.25-.4.35-1.78,1.55-1.31,1.58.37-.54,1.14-1.34,3.67-2.44Z"/>
      <path class="b" d="M66.14,6.28l-.08.12.16-.11s-.06,0-.08,0Z"/>
      <path class="b" d="M95.61,15.87c.28-.38.47-.7.6-.99-.14.19-.32.46-.6.99Z"/>
      <path class="b" d="M27.85,9.53c.09.2.35.31.69.3.34,0,.74-.14,1.16-.34.83-.4,1.73-1.05,2.71-1.46-1.73,1.01-1.11,1.13-.79,1.19.91-.96,1.59-1.29,2.57-1.59.49-.15,1.04-.3,1.72-.44.68-.12,1.51-.29,2.41,0-.02.15-.43.06-.87.14-.45.06-.95.27-1.01.45.5-.18,1.04-.27,1.52-.19.47.07.91.35,1.29.77.18.2.35.43.5.65.14.21.27.47.46.71.34.46.74.7.94.71.48.41,1.13.55,1.67.51.55-.03,1.04-.18,1.5-.33.91-.32,1.68-.71,2.41-1.06,1.45-.7,2.7-1.29,3.89-1.62-.7.23-1.06.45-1.25.59-.19.14-.2.22-.19.3.02.16.14.28-.74.93.62-.45,1.43-1,2.41-1.39.97-.39,2.15-.59,3.31-.06.57.25,1.11.66,1.59,1.15.48.5.98,1,1.52,1.39.54.4,1.13.7,1.67.73.54.04,1-.18,1.41-.47.68.26.95.16.65.89,1.25-.6,1.8-1.11,2.16-1.41.34-.31.44-.48.52-.64.18-.32.28-.69,2.29-2.09-.63.42-1.24.85-1.85,1.3,1.7-1.55,1.54-2.02,1.94-2.75-1.61,1.13-3.09,2.45-4.53,3.59-.09-.16.54-.74,1.31-1.44.77-.69,1.71-1.43,2.13-1.79.59-.7-.11-.3-.9.22-.79.52-1.64,1.14-1.5.81-.23.38-.81.91-1.41,1.42-.61.51-1.26.92-1.55,1.05-.06-.05-.1-.11-.14-.17-.1,0-.13-.03-.17-.04-.04-.02-.12-.04-.23-.09-.22-.11-.54-.32-.85-.58-.32-.27-.62-.56-.96-.93-.39-.46-.88-.98-1.51-1.47-.19-.22-.21-.28-.15-.27-1.07-.47-2.36-.74-4.13-.51.45-.05.91-.05,1.39,0-.67.02-1.51.17-2.26.44-.76.27-1.44.63-1.93.94-.98.65-1.26,1,.36.56-1.81.67-3.48,1.73-5.34,2.27.24-.34.53-.79,1.1-1.35.58-.56,1.43-1.28,3.04-2.06l.3-.37c-1.34.4-2.87,1.38-3.83,2.01-.48.32-.83.56-.98.73-.15.16-.12.29.26.3-.22.23-.52.43-.88.53-.36.1-.78.09-1.16-.16-.38-.25-.66-.69-.87-1.23-.24-.53-.54-1.09-.99-1.57-.44-.48-1.06-.85-1.74-.98-.68-.13-1.36-.06-1.99.09-1.27.31-2.35.9-3.24,1.5-.43-.16,1.6-1.4,2.66-1.94.67-.23,1.32-.35,1.82-.33.5.02.82.15.85.3.84.12,1.41.47,1.78.72.37.26.57.44.71.52.27.18.29,0,.3-.19,0-.17.02-.33.36-.01.16.16.39.45.64.92.12.22.27.57.34.72.06.14.16.29.21.34.05.1.06.14.02.2-.04.05-.14.09-.3,0-.15-.07-.32-.26-.34-.21-.01.02,0,.11.08.24.08.13.2.29.41.37.48-.14,1.17-.7,1.9-1.37-.55.26-1.07.45-1.38.51-.15.03-.23.03-.23.04-.02.09-.05.15-.04.12,0-.01.02-.04.05-.08,0,0,0,0-.01,0-.03,0-.11-.08-.2-.22-.05-.04-.24-.5-.43-.81-.38-.66-.88-1.32-1.57-1.85-.47-.37-1.05-.65-1.62-.8-.58-.15-1.14-.18-1.66-.14-1.03.08-1.85.38-2.6.68-1.47.62-2.66,1.35-3.76,1.92-.55.29-1.07.54-1.53.71-.46.18-.89.24-1.03.21-.08-.01-.08-.02-.1-.04-.02-.02-.07-.07-.12-.17-.06-.12-.09-.19-.19-.49-.1-.28-.21-.55-.33-.81-.48-1.03-1.13-1.84-1.74-2.45-.62-.61-1.21-1.05-1.69-1.37-.98-.64-1.55-.88-1.54-.89-2.36-1.01-4.79-1.41-7.18-1.58-2.4-.15-4.78-.03-7.13.29-.59.08-1.17.17-1.76.28l-.88.17c-.19.03-.8.17-1.19.39-.85.45-1.39,1.1-1.79,1.7-.4.62-.67,1.23-.89,1.83C.74,7.73.48,10.07.26,12.4-.11,17.06-.03,21.66.16,26.25c.2,4.59.56,9.15.99,13.71.66,5.7.88,7.76,2.07,9.91.04-1.2-.42-4.67.03-3.52-.41-.57-.84-2.71-1.08-5.69.31-.34.42,2.71.43,1.93l-.03-.57c.2.29.37.79.47,1.71.16-3.37-.46-9.6-1.24-11.93.18-2.74.64,1.82,1.02,3.18-.22-4.77-.37-8.77-.41-12.77-.02-2,0-4,.08-6.1.09-2.09.23-4.28.62-6.6-.56-.25-.24-1.01-.3-2.38.14-.24.29-.48.44-.71-.22.37-.23-1.07-.89.74.47-1.33.9-2.35,1.42-3.17.26-.41.55-.76.91-1.03.35-.29.8-.43,1.11-.57,1.37-.56,2.55-1.14,4.51-1.43l-.25.34c1.61-.15,2.66-.17,3.65-.18,1,0,1.94,0,3.37.1,1.29.34,1.62.52,1.46.53-.17.01-.85-.11-1.66-.19-1.61-.18-3.68-.13-2.98.26.49-.03.97-.04,1.46-.05-.86.23-1.81.7-3.37.95,2.38-.31,4.11-.11,5.82.26.86.19,1.71.43,2.63.75.92.32,1.93.72,3.01,1.36-.34-.04-1.48-.6-2.78-.94-1.3-.37-2.72-.56-3.34-.64.83.15,2,.36,2.92.66.93.29,1.6.66,1.59.83.16-.08.33-.16.49-.23.65.34.9.57.97.67.07.1-.05.08-.23.05-.35-.08-.92-.2-.61.15,1.35.85,1.85,1.47,2.23,1.75.36.3.55.29.73.24.19-.04.37-.14.68.15.15.14.33.4.53.77.22.35.54.86,1.2.98Z"/>
      <path class="b" d="M94.91,3.27c-.73-.53-1.47-.81-2.14-1,.74.26,1.46.59,2.14,1Z"/>
      <path class="b" d="M80.61,2.72c-.06.07-.14.14-.24.2.25-.08.34-.14.24-.2Z"/>
      <path class="b" d="M79.31,3.56c-.38-.13.51-.3,1.05-.64-.91.27-3.22.77-1.05.64Z"/>
      <path class="b" d="M5.9,53.83c-.33-.3-1.33-1.92-1.2-1.46.47.81.97,1.6,1.49,2.36l-.28-.89Z"/>
      <path class="b" d="M8.69,58.51c.57.65,1.21,1.22,1.93,1.59.57.03,1.08-.09,1.46-.33-.48.04-.8-.04-1.05-.08l-.59-.11c-.34-.08-.74-.12-1.74-1.08Z"/>
      <path class="b" d="M14.65,59.24c-.11.17-.23.34-.36.5.39-.4.44-.52.36-.5Z"/>
      <path class="b" d="M14.56,58.99c.14-.33.26-.67.36-1.01-.63.9-1.37,1.7-2.24,2.07.35-.08.71-.23,1.06-.43.1.13.78-.33.91-.37.25-.37.46-.75.65-1.15-.17.27-.55.79-.75.89Z"/>
      <path class="b" d="M16.37,56.68c-.08.04-.17.11-.24.13.03.05.12,0,.24-.13Z"/>
      <path class="b" d="M21.01,51.77c-.32-.15-.14-.23.22-.22.35.02.79.16.93.14-.31-.21-.62-.38-.95-.49-.17-.05-.34-.09-.53-.09-.09,0-.18,0-.34.04-.17.05-.24.11-.32.16-.28.22-.38.42-.49.6-.1.18-.18.35-.25.52-.28.66-.49,1.28-1.17,2.3,1.53-3.48-.85,1.12-1.74,1.95.36-.19.78-.54,1.29-1.15.52-.61,1.09-1.51,1.85-2.69l-.06-.4c.42-.65.64-.76.79-.8.15-.03.29-.07.76.13Z"/>
      <path class="b" d="M33.57,58.05c-.66.22-1.35.34-2.08.27-.15-.13-1.04-.47-1.79-.97-.75-.48-1.38-1.04-1.19-1.16-1.04-.63-1.3-.62-2.16-1.15-.61-.75-1.05-1.33-2.18-1.89,1.97,1.82,2.63,2.45,3.27,3,.32.27.63.53,1.1.86.48.33,1.11.76,2.17,1.21-.13.05-.66-.18-1.16-.46.87.51,1.78.99,2.84,1.15.17-.21,1.2-.36,1.78-.63.29-.12.49-.23.43-.27-.05-.05-.35,0-1.02.02Z"/>
      <path class="b" d="M37.63,56.85c-1.03.59-1.84,1.03-2.26,1.31-.41.28-.41.45.21.37,1.62-.71,3.05-1.7,4.41-2.74-1.23.87-2.84,1.77-2.37,1.06Z"/>
      <path class="b" d="M40.6,54.95c.45-.19,1.06-.42,1.7-.76.32-.16.65-.38.98-.52.07-.04.11-.01.23.02l.3.07c.2.04.41.07.62.08-.33-.1-.6-.19-.81-.27-.11-.03-.19-.11-.34-.09-.11.02-.19.05-.27.08-.3.12-.49.17-.67.23-.37.12-.71.27-1.73,1.17Z"/>
      <path class="b" d="M57.43,54.69c-1.57.24-3.15.39-4.74.5-.94-.41,2.23-.44,3.61-.96-1.98.3-2.66.39-3.2.54l-.87.26c-.32.1-.8.17-1.56.17-1.13-.15-2.94-.29-4.29-.52l3.62.76c.95.19,1.73.34,2.49.32,1.44-.04,2.72-.11,4.94-1.06Z"/>
      <path class="b" d="M48.12,54.46l-.58.08c.75.13,1.49.24,2.24.32-.56-.11-1.11-.25-1.66-.4Z"/>
      <path class="b" d="M67.87,51.17l.27.02c.05.02.13.02.19.04.13.02.25.06.38.1.25.08.5.18.76.31.52.25,1.06.59,1.6.98,1.09.79,2.17,1.8,3.14,3.13-.25-.24-.13-.02-.63-.49.62.68,1.23,1.38,1.9,2.05v.19c.07-.2.63.24,1.4.7.39.22.85.46,1.34.52.49.09.94-.11,1.17-.31-.69.23-1.09,0-1.36-.07-.28-.1-.44-.14-.61-.18-.31-.09-.66-.16-1.38-1.2.54.31,1.03.42,1.53.61-.67-.39-1.11-.71-1.47-.93-.36-.22-.63-.37-.96-.58-1.24-1.36-.71-1.09-.7-1.28-.75-.7-1.24-.97-1.79-1.34-.56-.36-1.13-.9-2.29-1.82-.71-.64-.44-.59-.29-.61.07,0,.09-.02-.1-.12-.19-.08-.6-.34-1.45-.39.4.19.36.27.12.25-.12,0-.3-.02-.52,0-.23.02-.51.04-.81.09-.6.08-1.26.29-1.8.61-.54.32-.99.68-1.23.94-1.12.67-2.17.98-2.84,1.09-.67.11-.98.05-.76-.14.11.21-.33.59-1.06.97-.73.38-1.74.76-2.69,1.01,1.41-.41,2.8-.87,4.14-1.48.52,0,1.06,0,1.6-.06,1.09-.62,1.97-1.32,2.77-1.86.79-.54,1.66-.79,2.74-.85l-.3.07Z"/>
      <path class="b" d="M77.55,57.58c.24.13.45.22.73.3-.25-.11-.49-.21-.73-.3Z"/>
      <path class="b" d="M59.96,53.43c.31-.13.61-.27.91-.42l-.7.07-.21.34Z"/>
      <path class="b" d="M78.9,57.62l-.13.05s0,0-.01.02c-.03.01-.05.04-.06.06-.04.05.05.09.12.09.17-.15.41-.35.58-.54-.16.12-.33.22-.51.32Z"/>
      <path class="b" d="M81.06,56.67c.41-.21.81-.46,1.2-.73.13-.27.25-.54.35-.82-.46.57-.98,1.1-1.55,1.55Z"/>
      <path class="b" d="M113.25,42.07c1.82.32,1.68,0,2.04-.23-1.44-.26-1.47-.13-1.38-.03.09.12.3.26-.66.26Z"/>
      <path class="b" d="M112.68,19.41c.66.69,1.19,1.35,1.53,2.12.34.77.44,1.67.25,2.62.26-.84.31-1.87-.06-2.76-.36-.89-1.06-1.58-1.72-1.98Z"/>
      <path class="b" d="M98.23,19.52c.5-.17,1.22-.3.09-.24l1.95-.85c-3.04.07-2.16.82-2.04,1.09Z"/>
      <path class="b" d="M94.09,5.24c.6.35,1.1.8,1.49,1.37-.16-.32-.35-.62-.58-.89.54.25.89.49,1.42,1.25-.36-.81-.95-1.43-1.45-1.71-.5-.29-.86-.3-.88-.02Z"/>
      <path class="b" d="M96.94,9.13c-.02-.29-.06-.61-.12-.93-.04.29-.11.45.12.93Z"/>
      <path class="b" d="M96.59,7.25c-.06-.11-.11-.19-.17-.28.18.39.31.82.4,1.24.03-.2.04-.5-.22-.96Z"/>
      <path class="b" d="M92.8,4.13c-1.28-.51-2.78-.76-4.3-.84.58.08,1.14.19,1.69.33.22-.17.72-.02,1.23.17.51.19,1.01.42,1.38.35Z"/>
      <path class="b" d="M69.02,7.36l-.63-.08c-1.34.78-2.61,1.98-3.78,3.09-.59.56-1.17,1.09-1.77,1.52-.6.43-1.25.77-1.87.86.83-.27.19.21-.29.47-.23.13-.39.21-.12.17.25-.03.96-.23,1.88-.83.67-.65,1.8-1.74,3.02-2.76,1.22-1.03,2.59-1.95,3.55-2.46Z"/>
      <path class="b" d="M58.09,12.52c.66.13-.26-.28-.54-.66-.99-.76-1.86-1.7-1.6-1.09.52.2.68.49.89.82.21.32.47.75,1.25.92Z"/>
      <path class="b" d="M46.26,10.29c.84-.43,1.95-1.04.72-.53-1.23.64-1.68.97-1.96,1.25-.3.27-.37.53-1.17.89,1.45-.27,2.37-.92,2.84-1.3.45-.4.42-.61-.42-.31Z"/>
      <path class="b" d="M28.34,8.06c-.07.05-.22.22-.22.24,0,0,.02-.03.06-.16l.03-.11s0,0,0-.01c0,0,.02,0,.04.01.16.04.7-.17.86-.3-.24.13-.64.23-.81.2-.04,0-.07-.02-.06-.03-.02.15-.06.31-.08.36-.06.13-.02,0,.2-.19Z"/>
      <path class="b" d="M26,9.22c.13.3.33.62.62.9.48.17.97.15,1.34.01-.33.04-.72-.01-1.07-.19-.35-.17-.65-.44-.88-.72Z"/>
      <path class="b" d="M12.71,3.17c-.68.12-1.36.25-2.03.41,1.01-.09,2.01-.13,3.02-.13-.33-.1-.66-.19-.99-.29Z"/>
      <path class="b" d="M9.61,3.25c-.9.1-1.79.23-2.68.39l.96-.02c1.3-.07.82-.27,1.72-.37Z"/>
      <path class="b" d="M3.86,6.43c.08-.32.2-.48.32-.62.22-.71.54-1.37.95-1.77-.57.49-.99,1.43-1.27,2.39Z"/>
      <path class="b" d="M2.41,50.28c-.42-.58.1,1.91.13,2.69.1.14.33-1.56-.13-2.69Z"/>
    </g>
  </g>
  <path class="c" d="M21.69,25.33l.04.04-.12.08c-1.45,4.43-3.99,7.75-7.6,9.98l-.13.74-.16-.12-.41.45c-.07,1.69-.11,2.2-.14,1.55.02.63.19,1.09.52,1.39l.21-.16.34-1.71c.08.6.11,1.1.11,1.51,0,.98-.26,1.75-.76,2.32.12,1.82-.13,3.76-.74,5.79l-.32-.98-.45.24-.04.41.56.94-.33.41-.3,1.79c-1.19-1.15-2.14-6.35-2.84-15.58-.59-7.57-.78-13.33-.59-17.28.04-.9.32-2.2.85-3.91.53-1.71.83-3,.89-3.87.41-.13.86-.2,1.35-.19,1.06,0,2.31.36,3.75,1.05l.08-.08c1.44.48,2.75,1.19,3.94,2.16,1.49,1.21,2.23,2.47,2.21,3.78,0,.3-.06.61-.17.94l-.89-1.07c-.08.27-.13.54-.13.81,0,.76.2,1.46.64,2.09-.06.73.16,1.44.68,2.13-.3-.33-.73-.86-1.29-1.6v.08s.28.98.28.98l.93.62c.13.9.19,1.74.18,2.53,0,.6-.05,1.18-.14,1.75ZM9.96,26.33h-.08s-.04.16-.04.16h.08l.04-.16ZM9.92,26.29v-.65s-.08,0-.08,0v.65s.08,0,.08,0ZM10.03,27.76l-.04-.37h-.08l.04.37h.08ZM10,27.31l-.04-.61h-.04s0,.61,0,.61h.08ZM10.07,28.66v-.2s-.08,0-.08,0v.2s.08,0,.08,0ZM10.2,27.35l-.03-1.22h-.08s.03,1.22.03,1.22h.08ZM10.2,27.43s-.05.01-.08.04c0,.05.03.14.08.25v-.29ZM10.75,34.54c0-.25-.05-.42-.16-.53.03-.38.01-.93-.05-1.65-.06-.72-.09-1.22-.09-1.49h-.16c-.03.6.03,1.24.19,1.92l-.04.16.08.04c-.03.44.05.96.23,1.55ZM10.62,30.99v-.25s-.08,0-.08,0v.25s.08,0,.08,0ZM10.74,31.56l-.04-.37h-.08s.04.37.04.37h.08ZM10.94,26.87v-.29s-.08,0-.08,0v.29s.08,0,.08,0ZM10.95,35.36v-.12s-.08,0-.08,0v.12s.08,0,.08,0ZM10.99,35.73l-.04-.33h-.08s.04.33.04.33h.08ZM11.02,36.5v-.16s-.08,0-.08,0v.16s.08,0,.08,0ZM11.02,36.26v-.08h-.08s0,.08,0,.08h.08ZM11.26,37.28l-.11-1.51h-.04s.11,1.51.11,1.51h.04ZM11.22,32.26c0,.76.04,1.32.15,1.68.05-.14.08-.3.09-.49,0-.33-.08-.72-.23-1.19ZM11.37,43.45v-.25s-.04,0-.04,0v.25s.04,0,.04,0ZM12.01,16.18c-.38.05-.57.17-.57.36,0,.14.08.23.24.29,0-.05.01-.11.04-.16.05.11.12.18.2.21,0-.05.04-.18.12-.37.06-.16.04-.27-.04-.33ZM15.4,16.49l-.08.08c-.46-.25-.9-.37-1.3-.38-.19,0-.33.04-.41.12-.28,1.33-.76,3.02-1.43,5.05l-.53.2c-.12.71-.17,1.33-.18,1.88-.01,1.14.2,1.96.63,2.46.02-2.56.12-4.07.28-4.53l.28.49.25-.24.32,4.99c.05.74.15,1.1.32,1.11.22,0,1.34-1.15,3.36-3.44,2.02-2.3,3.03-3.61,3.04-3.94,0-.71-.6-1.46-1.82-2.26-.08-.08-.99-.61-2.72-1.58ZM11.56,35h-.04l-.05.73h.04l.05-.73ZM11.56,36.02v-.16s-.04,0-.04,0v.16s.04,0,.04,0ZM11.97,39.94c-.08-.08-.12-.33-.12-.74,0-.84-.02-1.4-.07-1.67h-.16c0,.6.03,1.03.11,1.31,0,.05-.03.16-.08.3-.06.15-.08.26-.08.35,0,1.14.05,1.91.18,2.29l.12-.08c0-.08.01-.18.04-.31.03-.12.04-.22.04-.31v-1.14ZM11.69,34.39l-.08-.53h-.04l.04.53h.08ZM11.77,34.8c-.08.11-.11.26-.08.45.03.08.08.22.16.41.03-.24.04-.3.04-.16,0-.08-.04-.31-.12-.7ZM12.35,43.46c0,.08-.03.14-.08.16-.02-.38-.1-.66-.24-.82-.11.03-.14.24-.09.65.05.41.09.67.12.78.03.11.13.3.32.58l.08-.04.05-1.06c-.05-.05-.11-.14-.16-.25ZM12.24,27.9c-.05.03-.12.07-.2.12v.25s.16,0,.16,0c.03-.08.04-.2.04-.37ZM12.21,17.12v-.29s-.08,0-.08,0v.29s.08,0,.08,0ZM12.26,16.38h-.08l-.04.28h.08s.04-.28.04-.28ZM12.88,15.65c-.16-.08-.23-.12-.2-.12-.14.11-.23.13-.29.08l-.21.16v.33c.08,0,.13.02.16.04.16-.16.34-.32.54-.49ZM12.6,28.15v-.16s-.04.04-.04.04c-.06.03-.1.04-.12.04.03-.05,0-.12-.08-.21-.03.25-.02.37.04.37l.12-.12s.05.04.08.04ZM12.52,27.94v-.21s-.08,0-.08,0v.2s.08,0,.08,0ZM12.75,44.36l-.04-.16-.08.04.04.12h.08ZM12.71,44.03v-.29s-.08,0-.08,0v.29s.08,0,.08,0ZM12.84,24.11v-.21s-.08,0-.08,0v.2s.08,0,.08,0ZM13.56,35.01c-.06.05-.12.1-.21.12.06.03.12.06.2.08l.08-.08c-.03-.05-.05-.09-.08-.12ZM14.51,43.35c-.03.22-.06.54-.09.98-.11-.17-.13-.33-.08-.49.09-.3.14-.46.17-.49ZM15.49,15.72l-.12-.12-.16.16-.12-.25h-.16c.08.25.23.37.45.37.05-.11.1-.16.12-.16ZM15.14,32.74l-.08-.04-.12.2.04.04.17-.2ZM19.7,28.86h-.04l-.08.12h.08l.04-.12ZM19.91,28.5h-.08l-.04.2h.08s.04-.2.04-.2ZM21.52,21.94c.06-.08.07-.18.04-.29-.08-.03-.14-.05-.16-.08,0,.08-.03.2-.08.37-.11-.22-.25-.55-.44-.98-.06,0-.08.04-.08.12,0,.49.14.87.44,1.15-.06.05-.08.12-.08.2.19-.11.31.15.36.78v-1.27ZM21.23,22.5c.02.27.04.55.03.82,0,.6-.09,1.22-.26,1.88.2-.49.29-1.04.3-1.67,0-.33-.02-.67-.07-1.02Z"/>
  <path class="c" d="M41.61,33.2l-.28.51h.14s-.3,3.17-.3,3.17l.23.44-.28.68-.09-.85c-.23.34-.44,1.1-.63,2.28l.14.21.31-.85c-.16.57-.23,1.1-.18,1.6-.25.32-.82,1.21-1.69,2.68.02.09.03.23.03.41-.3.56-1.05,1.65-2.24,3.25-.64.81-1.01,1.54-1.11,2.17l-1.09.53.17.04s-.09.02-.14.07c.09.02.19.08.31.17l-.21.07-.61.06c-1.45.15-2.87-.41-4.24-1.67-1.26-1.15-2.11-2.46-2.55-3.94-.82-2.78-1.2-6.75-1.16-11.93.03-3.61.36-6.66,1-9.16,1.06-4.15,2.83-6.24,5.33-6.29l.55-.98.17-.07c.99.46,1.78,1.12,2.37,1.96v.2s-.24-.14-.24-.14l1.68,2.64.31-.2c.06.43.12.73.16.89.11.37.27.62.47.75l.27-.17c.24,1.18.64,2.26,1.2,3.25l.24-.37.14.07.2.55-.21.61.13.41.27.04.13.41.1-.2c.06,1.29.34,2.17.86,2.63-.21.23-.31.5-.31.82,0,.5.17,1.01.53,1.54-.09.29-.14.57-.14.82,0,.36.08.67.26.92ZM27.88,36.97l-.03-.1-.07.03.07.07h.04ZM27.95,37.27v-.17s-.07,0-.07,0v.17s.07,0,.07,0ZM28.07,27.36c-.02.09-.07.21-.14.37l.06,1.57c0-.18.04-.33.11-.44-.02,0-.03-.01-.03-.03.02-.07.06-.16.1-.27.02-.11.02-.32,0-.61-.02-.36-.05-.56-.1-.58ZM37.46,32.38c.02-.09-.09-.55-.33-1.37-.18,0-.27-.04-.27-.1,0-.02.01-.03.04-.03.04-.02.1-.02.17,0-.26-1-.84-2.24-1.74-3.73-.29-.43-1.05-1.6-2.29-3.49-1.03,1.08-1.79,3.22-2.27,6.42,0,.07-.23,2.45-.68,7.15-.08-.93-.12-1.84-.11-2.73.03-3.59.72-6.74,2.06-9.45.49-.97.73-1.55.73-1.73,0-.29-.13-.56-.4-.79-.87.79-1.43,1.95-1.67,3.5l-.27.3-.15,1.22-.28.37c.09.14.12.29.1.44-.05.18-.16.27-.34.27l-.03-.48c-.26.57-.38,1.14-.39,1.73,0,.52.08.99.26,1.4l-.21.41.1.14c.06,1.2.1,2.42.14,3.65.1,1.41.33,2.59.68,3.55.47,1.3,1.15,2.08,2.06,2.33l.71.21c.23.09.42.23.58.42.39-.36,1-.87,1.82-1.52l.21-.58.07.07c1.38-1.76,2.07-3.56,2.09-5.4,0-.77-.12-1.5-.39-2.18ZM29.62,20.6v-.24s-.27,0-.27,0l.03.51c.05-.07.13-.16.24-.27ZM32.58,17.93c-.07,0-.14-.04-.2-.1-.02.02-.16.1-.41.23-.14.07-.21.19-.21.37,0,.16.04.4.13.72.09.32.13.56.13.72,0,.14-.04.23-.1.27.07.23.08.38.03.44-.02-.07-.07-.17-.13-.31-.05,0-.1.1-.17.31l-.06-.17c-.05.09-.13.19-.24.3-.07.23-.11.74-.12,1.53l.62-.5c-.11-.09-.15-.24-.1-.44.07.02.14.08.2.17l.1-.1-.03-.07h.14c.02-.07.05-.17.07-.3-.02-.14-.04-.36-.06-.68l.07-.58-.07-.14c.27-.13.41-.69.42-1.67ZM32.19,19.29c0-.32.08-.67.25-1.05v.31c0,.07-.04.19-.12.37-.08.18-.12.31-.12.37ZM34.75,42.27h-.07l-.03.1.03.04.07-.14ZM34.9,41.32v-.1s-.07,0-.07,0v.1h.07ZM35.74,41.77c-.05-.07-.11-.1-.2-.1-.14,0-.3.12-.48.37.23.07.45-.02.68-.27ZM36.11,42.93c-.3.11-.52.28-.69.51.02,0,.07.01.14.04.07.02.12.03.17.04.25,0,.38-.12.38-.37v-.21ZM35.85,45.21s-.03-.06-.1-.1c-.02.02-.05.06-.07.1h.17ZM36.8,45.83l-.51.51s-.11-.1-.2-.17c.21-.2.33-.3.38-.3.02,0,.02.02,0,.07-.02.02-.01.03.03.03.02,0,.04-.02.05-.07.01-.05.04-.07.09-.07h.17ZM37.12,32.41h-.21s0-.07,0-.07h.21s0,.07,0,.07ZM37.52,40.56l-.03-.03-.1.1.03.03.1-.1ZM39.64,24.43c-.13-.18-.37-.45-.71-.79v-.14c.54.19.81.39.81.62,0,.09-.04.19-.1.3ZM40.38,26.14c-.16-.25-.24-.41-.23-.48,0-.16.07-.24.21-.24.16,0,.23.12.2.34-.05.09-.1.21-.17.37Z"/>
  <path class="c" d="M46.89,18.46c.57-.58,1.74-.87,3.51-.85,1.33.01,2.77.17,4.35.48,1.8.35,3.19.79,4.15,1.33,0,.69,0,1.18.02,1.45.04.55.16,1.01.37,1.39-.32.44-.46.97-.42,1.6l-.09-.03-.16.41.13.1-.38.44c-.36.08-1.84.15-4.45.21-.53,0-1.29-.01-2.3-.02-.67,0-1.14.2-1.39.62-.15.25-.26.78-.33,1.57-.07.71-.31,1.24-.71,1.57v.16c.46.13.97.2,1.54.2.48,0,1.19-.05,2.13-.17.94-.12,1.65-.17,2.13-.17.31,0,.78.09,1.4.26.62.17,1.09.26,1.4.26.17,0,.34,0,.51-.03l-.48.47.38.41.38.07c-.3.19-.65.28-1.07.27-.17,0-.49-.02-.98-.07-.4-.05-.71-.06-.95-.04.59.28,1.13.42,1.64.42.44,0,.82-.11,1.14-.34l.22.32-.27,1.57c.21.46.31.92.3,1.36,0,.44-.11.83-.32,1.16l-4.36.41c-1.66.15-3.09.4-4.3.75l.32,2.9c.31.42.5,1.34.58,2.75l.34.23h.13v-.66s.33-.5.33-.5l.15.76c.65-.33,1.42-.49,2.31-.48.44,0,1.1.07,1.97.19.87.12,1.53.19,1.97.19.57,0,1.08-.06,1.55-.21l-.32.56.16.03-.16.22.41.19-1.33.68v.06l1.2-.4-.63.34.03.06.6-.22-.03.09.22.03-.17.98-.86.59h.06l1.17-.81-.07.47.4.6c-.4,0-1.06.35-1.96,1.06l1.74-.68-.29.31.44.1c.08.21.12.41.12.6,0,.73-.74,1.25-2.19,1.56l-3.03.35c-.38.04-1.12.26-2.21.68-.99.37-1.71.55-2.15.55-.08,0-.16-.01-.22-.03-.38-.19-.99-3.35-1.84-9.48l-1.54-11.05-.79-3.22c-.43-1.79-.63-3.24-.62-4.36.01-1.66.52-2.53,1.5-2.6ZM47.34,28.96v-.32c-.08-.08-.16-.13-.25-.13-.02.04-.03.11-.03.19.02-.02.06-.05.13-.09.04.04.06.09.06.16-.04.02-.08.06-.13.12.04.02.11.04.22.07ZM49.36,24.28v-.41c-.21-.06-.41-.1-.59-.1-.1,0-.12-.03-.03-.09l-.1.09c-.08-.08-.15-.11-.19-.06-.11.08-.17.12-.19.12.02.15.02.27,0,.38-.02.06-.04.16-.06.28,0,.11.06.23.18.38.12.15.24.22.35.22.06-.04.2-.14.41-.31-.15-.06-.26-.17-.34-.32l.13-.12s.08-.06.13-.06c.02,0,.05.01.09.03.02,0,.03-.02.03-.05,0-.03.01-.05.03-.05.04,0,.09.02.16.06ZM48.79,32.41s-.06-.14-.12-.35c-.06.15-.08.29-.04.44.06-.06.12-.09.16-.09ZM49.04,39.1v-.12s-.06,0-.06,0v.13s.06,0,.06,0ZM49.13,39.92v-.28s-.09,0-.09,0v.28s.09,0,.09,0ZM49.26,40.15c-.08-.17-.12-.24-.12-.22l-.06.22c.06-.02.13-.02.19,0ZM49.61,43.46c-.1-.38-.22-1.47-.35-3.28-.11.02-.16.08-.16.19,0,.97.11,2.03.35,3.19l.16-.09ZM49.17,42.89v-.13s-.06,0-.06,0v.13s.06,0,.06,0ZM49.23,43.3v-.31s-.09,0-.09,0v.32s.09,0,.09,0ZM49.26,43.52v-.13s-.06,0-.06,0v.13h.06ZM49.9,42.39l-.1-2.37h-.1s.1,2.37.1,2.37h.09ZM49.91,44.75v-.1h-.06v.1s.06,0,.06,0ZM50.14,44.16s-.12-.02-.22-.06v.22c.06-.02.14-.07.22-.16ZM50.5,35.2l-.03-.35s-.11.09-.19.16c-.02,0-.05-.02-.09-.07.04.13.15.21.31.26ZM51.02,39.97l-.09-.1c-.04.08-.06.19-.07.32l.1-.09c0,.11-.05.27-.13.5l-.19-.06c0-.21.02-.53.06-.95.03-.42.05-.74.06-.95.06-.06.09-.19.07-.38h-.13c-.1-.13-.19-.45-.26-.96-.07-.52-.08-.87-.04-1.06.11-.06.19-.12.25-.19.14.23.2.63.18,1.19-.03.56,0,.93.09,1.12.08.19.12.28.12.25v1.36ZM52.53,47.99c-.29-.07-.5-.1-.63-.1.06,0-.01.03-.22.09-.04-.09-.08-.14-.12-.16-.06.06-.23.17-.51.31-.06.15-.14.37-.23.66h.19c.11-.16.38-.33.82-.48.44-.15.67-.26.7-.33ZM52.39,42.16c0,.11-.04.18-.13.22h-.25s.12.13.12.13c.17-.08.25-.2.26-.35ZM52.99,24.25c-.02-.08-.11-.19-.28-.32-.09.08-.13.17-.13.25.06,0,.1,0,.13-.03.04.02.06.05.06.1,0-.04.01-.07.03-.09.02.02.03.05.03.09h.16ZM53.68,35.01c-.04-.1-.11-.24-.22-.41-.1.04-.18.13-.22.28.06.15.16.22.28.22.04,0,.09-.03.16-.09ZM53.98,47.82c-.08-.04-.13-.15-.12-.32-.11.08-.15.17-.13.25,0-.04.01-.08.03-.09.02.04.03.11.03.19.04-.02.1-.03.19-.03ZM55.82,47.3s-.06,0-.11.03c-.05.02-.09.03-.11.03-.06,0-.16-.02-.3-.05-.14-.03-.24-.05-.3-.05-.02,0-.06.02-.11.05-.05.03-.09.05-.11.05l-.19-.1c-.17.04-.39.13-.67.28.06.02.15.07.25.16l-.1.09c.17-.04.48-.08.95-.12.38-.02.64-.14.79-.37ZM54.57,34.7h-.16s.03.11-.03.19l.19-.19ZM55.01,34.64c-.02-.06-.03-.16-.03-.28l-.29.09v.28s.22,0,.22,0l.09-.09ZM56.58,43.39v-.09l-1.42-.04v.06s1.42.08,1.42.08ZM56.46,34.78s-.06-.03-.19-.22c-.04-.04-.08-.06-.12-.06s-.08.02-.11.06c-.03.04-.07.06-.11.06-.02,0-.05-.01-.09-.03h-.13s-.09-.1-.09-.1c-.06.06-.16.17-.29.31.23-.02.61-.03,1.14-.02ZM57.71,32.81c-.21-.02-.54-.06-.98-.1.33.11.64.18.91.23l.06-.13ZM57.86,33.38c-.08-.02-.2-.05-.35-.1.06-.02.17-.05.32-.09-.19.02-.36.02-.51,0,.04.04.04.09,0,.13-.19-.06-.37-.1-.54-.1.02.04.03.11.03.19.06,0,.14.02.23.05.09.03.16.05.21.05.19,0,.39-.04.6-.12ZM57.53,31.61v-.06s-.63-.07-.63-.07v.09s.63.04.63.04ZM58.32,31.93c0-.06,0-.17-.03-.32-.57.2-1.01.34-1.33.4.23.05.44.07.63.07.29,0,.54-.05.73-.15ZM58.2,30.98c-.65.21-1.05.31-1.2.3.29.07.69-.04,1.2-.3ZM57.13,41.82v-.09s-.06,0-.06,0v.09s.06,0,.06,0ZM57.36,33.06l-.16-.07v.06s.16.07.16.07v-.06ZM57.49,43.31v-.06s-.12,0-.12,0v.06s.12,0,.12,0ZM58.36,23.26c0-.13-.06-.19-.19-.19-.02-.02-.04-.08-.06-.19-.25-.11-.42-.16-.5-.16-.04,0-.09.03-.16.09.13.02.33.08.6.16l-.09.09-.57.09c.29.09.54.13.73.13.1,0,.19,0,.25-.03ZM57.96,22.28c.1.02-.08.03-.57.03,0,.15.18.22.53.22-.02-.1,0-.19.03-.25ZM58.54,42.94l-.03-.03-.95.31v.06s.98-.34.98-.34ZM58.51,20.7c-.19-.13-.39-.19-.6-.19-.1,0-.22.02-.35.06l.09.19h.13c.04-.08.16-.11.35-.09.17.02.29.03.38.04ZM58.12,21.4c-.02-.06-.03-.15-.03-.25-.04,0-.06.04-.06.12l-.09-.03c-.06,0-.14.03-.22.09.1.04.24.06.41.07ZM58.36,33.47c-.13-.02-.29,0-.5.09.06.02.15.04.25.07.06.02.15-.03.25-.16ZM58.24,22.66v-.06s-.22-.03-.22-.03v.06l.22.03ZM59.41,44.21c-.08-.06-.22-.01-.41.15,0,.04-.29.21-.86.5.25.04.32.07.22.07.1,0,.42-.11.95-.34-.02-.11-.01-.18.03-.22-.06,0-.12-.01-.16-.03.06-.02.14-.06.22-.12ZM58.22,21.43v-.09s-.06,0-.06,0v.09s.06,0,.06,0ZM58.38,20.86v-.06s-.16.06-.16.06v.06s.16-.06.16-.06ZM58.47,21.9v-.16s-.09-.11-.15-.19c-.06.19-.08.31-.03.38l.19-.03ZM58.61,22.88h-.32c.08,0,.17.05.25.16,0-.06.02-.12.06-.16ZM59.26,42.98c-.15.08-.37.22-.67.4.42.02.64-.11.67-.4ZM59.3,45.62l-.03-.03-.1.09.03.03.09-.09Z"/>
  <path class="c" d="M89.99,14.49c-.17.6-.48,1.48-.92,2.65l-7.58,3.16c-.36.65-.68,1.79-.97,3.42l.14-2.45-.29,1.06-.07-1.63c-.74-.03-1.12.56-1.16,1.79,0-.41.08-1.76.24-4.04-.45,1.66-.68,3.51-.7,5.55-.02,1.69.14,3.84.47,6.46,0-.54-.03-1.25-.1-2.12l.55,2.05.37.04c.67,1.53.99,3.23.98,5.11,0,.79-.07,1.58-.18,2.37l.16.29c-.06,1.01-.2,2.52-.41,4.53l-.12-.53c0,.57-.11,1.37-.31,2.41-.2,1.11-.32,1.9-.35,2.36l-.37-.16-.09.49c-.08-.52-.33-1.65-.75-3.4-.34-1.42-.51-2.58-.5-3.47l.87,2.83c.09-.76-.09-1.86-.52-3.29-.44-1.43-.62-2.52-.56-3.25l.24.61-.04-.69.53.21.61.82.37-.41-.61-4.66c-.2-1.53-.57-3.04-1.1-4.54l-.38,2.04c-.05-.63.01-1.47.18-2.53.17-1.2.26-2.04.27-2.53,0-.57-.06-1.1-.19-1.59l-.39,2.61.02-2.49-.21.65.39-2.24-.2-.37.25-.69-.28-.37-.17.12-.36-1.11.04-.49-.08.04-.15-1.15.21-.45-.08-.16-.5.81-.33-.25.51-2.57c-.25.46-.43,1.13-.55,2l.31-2.9c-.53,1.08-.82,2.4-.89,3.95,0,.11-.05,1.47-.16,4.08l.02-2.82c-.34,1.9-.52,3.83-.54,5.8-.04,4.9,1.13,11.4,3.5,19.51.08.57.14,1.16.19,1.76.13.71.38,1.2.76,1.48v-.2s-.05,1.63-.05,1.63l-.69-.41c-.19.3-.44.24-.73-.17-.56-.77-1.03-2.1-1.39-4.01-1.64-8.64-2.43-16.01-2.38-22.11l-.53-.78c-1.69.45-3.31.67-4.86.65-3.24-.03-4.85-1.06-4.83-3.1,0-.73.25-1.59.72-2.57-.21-.38-.32-.74-.32-1.06.01-1.44,1.76-2.46,5.25-3.06.63-.1,2.85-.44,6.67-1l-.61-.25c2.31.1,4.19-.26,5.64-1.09l-.62.53,5.93-1.46c.6.33,1.67.54,3.22.64l.12.12-.33.36.4.41-.41.65.2-.16c.05.65.23,1.58.55,2.78ZM65.59,21.22c-.11-.11-.15-.26-.12-.45.06-.19.07-.31.04-.37-.05-.03-.15-.1-.28-.21,0,.14-.04.2-.12.2-.24,0-.38-.17-.4-.49h-.33s0,.28,0,.28c.08.06.16.15.24.29-.05.03-.12.01-.2-.04.24.16.53.43.85.78h.33ZM70.92,14.04v-.24c-.24-.03-.32-.04-.24-.04-.03,0-.06.01-.08.04-.03.03-.05.04-.08.04-.05,0-.1-.02-.14-.06-.04-.04-.09-.06-.14-.06-.11.03-.65.08-1.63.15.08.08.12.16.12.25.22.14.51.21.9.21.03-.05.12-.12.29-.2.11.08.16.17.16.25.16-.08.45-.19.86-.32ZM74.52,18.97c-1.82-.12-3.08.03-3.76.46,1.83-.39,3.08-.55,3.76-.46ZM73.13,18.39c-.27-.06-.37-.08-.29-.08-.16,0-.52.1-1.06.32.16-.03.61-.1,1.35-.23ZM74.21,21.54c-.05-.19-.19-.31-.41-.37l-.45-.13c-.33.05-.79.13-1.39.23l-.17.33c.11.16.31.23.61.21.76-.07.99-.11.7-.12.03,0,.04-.01.04-.04,0-.03.03-.04.08-.04.03-.03.11-.01.25.04.13.05.22.08.24.08l.16-.08c.08-.03.18.03.28.17l.04-.29ZM71.92,21.36l-.04.12-.08-.04.08-.12.04.04ZM74.48,18.36v-.08s-1.35.03-1.35.03v.08l1.35-.03ZM73.63,17.13v-.08l-.25.04v.08l.25-.04ZM74,17.13v-.08h-.24s0,.08,0,.08h.24ZM74.49,17.18c.06-.08.06-.15,0-.2-.16.05-.31.07-.45.04.19.11.34.17.45.17ZM74.58,30.29h-.08s0-.16,0-.16h.08v.16ZM74.99,16.49v-.16s-.24-.08-.24-.08c.08.16.16.25.24.25ZM77.48,30.31v-.16s-.08,0-.08,0v.16s.08,0,.08,0ZM77.73,29.74c-.17.76-.26,1.26-.26,1.51,0,.05.01.15.04.29.03.14.04.23.04.29-.02-.3,0-.69.09-1.18l.13-.37c0-.08-.01-.18-.04-.29v-.25ZM77.65,34.27l-.06-2.29h-.08l.06,2.29h.08ZM77.8,35.46h-.08s-.04-.65-.04-.65h.08l.04.65ZM78.1,29.38l-.08.24c-.11-.11-.2-.18-.28-.21l.04-.16c.08-.03.19.02.33.13ZM78.74,16.6v-.08s-.16,0-.16,0v.08h.16ZM79.23,16.48l-.2-.08c-.06,0-.14.04-.25.12.14-.02.29-.04.45-.04ZM78.97,47.07h-.08s-.04-.37-.04-.37h.08s.04.37.04.37ZM79.04,47.84h-.12s-.04-.7-.04-.7h.08s.08.7.08.7ZM79.05,37.1l-.04-.08-.12.12.04.08.12-.12ZM79.81,39.03c0-.16-.08-.35-.24-.57l-.04.08c0-.08.04-.22.13-.41-.16-.03-.28.13-.35.47-.07.34-.13.52-.19.55-.03-.05-.08-.12-.16-.21-.03.11.01.24.12.39.11.15.22.21.32.19-.03-.08-.04-.16-.04-.25,0-.05.01-.12.04-.2l.04.08c.05,0,.18-.04.37-.12ZM79.34,27.34l-.04.04-.24-.21.08-.08.2.25ZM79.27,26.61h-.08s-.08-.33-.08-.33h.12l.04.33ZM79.24,47.97l-.12-.61c.16.17.24.3.24.41,0,.08-.04.15-.12.2ZM79.23,31.14v-.41s-.08,0-.08,0v.41s.08,0,.08,0ZM79.26,31.67h-.08s0-.45,0-.45h.08v.45ZM79.36,39.68l-.04.49h-.12s.09-.49.09-.49h.08ZM80,40.95c-.08,0-.19.01-.33.04,0,.14-.03.25-.08.33-.05-.16-.17-.4-.36-.7.03-.08.04-.19.04-.33.08,0,.16.03.24.09.03-.08.06-.22.09-.41.16,0,.29-.05.37-.16.08.25.12.41.12.49l-.08.16c-.03.05-.04.12-.04.2,0,.08.01.18.04.29ZM79.81,16.24l-.25-.04c-.08.43-.17,1.09-.26,1.96.09-.43.25-1.07.51-1.91ZM80.1,39.28c-.42-2.02-.62-3.31-.62-3.88,0-.27.03-.52.09-.73l.53,4.62ZM79.87,41.97c-.3-.41-.39-.63-.28-.66.16-.02.34,0,.53.09.03.03.05.07.08.12,0,.08-.11.23-.33.45ZM80.26,20.29c-.25,0-.41.04-.49.12.24,0,.38.02.41.05.05-.05.08-.11.08-.16ZM80.22,16.12l-.04-.04-.33.08v.08s.37-.12.37-.12ZM80.52,28.21h-.08s0-.25,0-.25h.08s0,.25,0,.25ZM80.71,16v-.08l-.24.04v.08s.24-.04.24-.04ZM80.65,27.07h-.12v-.33s.12,0,.12,0v.33ZM80.98,21.93h-.08v-.2h.08s0,.2,0,.2ZM86.31,14.91c-.19.11-.71.46-1.56,1.05l-.04-.04c.19-.13.37-.32.54-.57-.49.35-1.25.83-2.26,1.45-.27.11-.66.27-1.15.48-.33.22-.53.32-.62.32l-.04-.29c.22-.24.63-.5,1.23-.77.6-.27,1.01-.5,1.23-.68-.55.29-1.38.74-2.5,1.33l-.14,2.33c.03-.38.1-.92.22-1.63.63-.38,1.42-.79,2.38-1.25.19-.08.34-.09.45-.04l-.16.08c.58-.35,1.38-.94,2.42-1.77ZM81.69,15.89l-.04-.08-.37.16v.08s.41-.16.41-.16ZM82.22,19.82c-.03-.05-.07-.11-.12-.16-.16.05-.37.17-.62.36.16-.02.41-.09.74-.2ZM82.1,15.69l-.04-.08-.29.16v.08l.33-.16ZM82.97,14.35v-.08h-.12s0,.08,0,.08h.12ZM83.91,9.54c-.08.08-.22.18-.41.28l-.41-.09c.22-.13.49-.2.82-.2ZM83.46,14.03l-.04-.08-.21.12.04.08.21-.12ZM83.7,18.97l-.04-.04-.16.08.04.08.17-.12ZM83.95,13.71v-.08l-.45.28v.08s.45-.28.45-.28ZM83.99,14.4c-.08.03-.22.09-.41.2l.16.08c.05-.05.14-.15.25-.28ZM84.1,15.67l-.04-.08-.37.2v.08s.41-.2.41-.2ZM84.23,14.52l-.04-.04-.37.2.04.08.37-.24ZM86.49,12.79c-.3.05-1.13.58-2.51,1.57.11,0,.19-.02.25-.08l.08.08-.08.12c.49-.38,1.25-.94,2.26-1.69ZM84.24,13.46h-.08l-.08.12.08.04.08-.16ZM84.31,15.51l-.04-.08-.16.12.04.08.16-.12ZM84.44,18.57l-.04-.04-.21.08v.08l.25-.12ZM84.63,15.3l-.04-.08-.29.16.04.08.29-.16ZM86.3,16.18l-.04-.04-1.56,1.21.04.08,1.56-1.25ZM85.22,12.98v-.08h-.12s0,.08,0,.08h.12ZM85.59,8.9c-.11,0-.24.04-.41.12.03-.08.11-.15.25-.2l.16.08ZM85.45,15.19l-.08-.04-.04.12.04.04.08-.12ZM85.92,17.89c-.33,0-.45-.02-.37-.04-.03.06-.07.08-.12.08v.2l.49-.24ZM85.74,15.07l-.04-.08-.21.12v.08l.25-.12ZM88.99,16.69c-.22.05-.53.17-.94.36-.14.08-.74.27-1.8.56.9-.18,1.39-.29,1.47-.31.6-.16,1.02-.36,1.27-.6ZM87.09,14.67l-.04-.08-.62.48.04.04.62-.44ZM89.23,12.32l-.12.12c-.08,0-.15.03-.2.08.14,0,.25-.07.33-.2ZM89.15,16.69v-.08s-.16,0-.16,0v.08s.16,0,.16,0Z"/>
  <path class="c" d="M110.1,50.23l-.12.72-.7.23.41-.29-.5.17-.17-.06.2.67c-.37-.12-.8-.18-1.31-.19-.21,0-.62.01-1.22.05-.5.03-.9.04-1.19.02l.29-.06c-1.28.12-2.75.18-4.42.16-.7,0-1.74-.03-3.12-.07-1.38-.04-2.42-.07-3.12-.07-.74,0-1.41,0-2,.01l.46.15-1.42.08v.03c.68.08,1.3.13,1.86.13.29,0,.56,0,.81-.02l.14.15.47-.08-.43-.15h2.06s-.5.1-.5.1l1.54-.16h.2s-.58.11-.58.11c.78-.05,2.6-.06,5.49-.04,2.3.02,4.13-.08,5.49-.3l.58.53c-.42-.1-1.22-.16-2.38-.17-.85,0-4.52.15-11.01.48,4.9-.07,7.82-.1,8.77-.07-.56.15-1.36.23-2.38.24-1.45-.01-2.26,0-2.41,0l.49.03c-.43.23-1.02.34-1.78.33-.97,0-1.59.01-1.86.07l-.15.09-.03-.15c-.33.02-.66.02-.99.02-.56,0-1.13-.04-1.71-.1l-.09.06.99.27-1.19-.18-.47.23.06-.06-3.89-.53c.66.3,1.41.48,2.26.54l-2.18-.4-.29.32.06-.43-.26.06.15-.23-.06-.06-.02-.58-.26-.06c-.24-.78-.36-1.71-.35-2.79,0-.33.02-.67.04-1.02l.9-.43c1.01-2.14,2.66-4.86,4.95-8.15,2.72-3.91,4.49-6.55,5.3-7.94-.7.03-1.88.19-3.55.46-1.53.24-2.72.35-3.58.35-2.79-.02-4.16-1.21-4.12-3.55.03-1.12.22-2.04.58-2.75.91-.44,2.66-.65,5.23-.62,3.66.03,6.41.35,8.27.94.71-1.23,1.34-1.85,1.9-1.84.1,0,.18.01.26.03l-.53.95.2.12-.36,1.68.12.32.49.09-.85.46.34.99-.35.26.31.67-.46.03-.77,1.36.77-1.71-.32.11c-.16,1.03-.71,2.35-1.63,3.96l-2.18,3.85.12-.09-1.74,3.18.03.06c.94-1.64,2.34-4.12,4.19-7.46-.56,1.41-1.44,3.14-2.66,5.18l-2.98,5.03.12.03-2.3,3.87.12.03c2.28-3.43,4.09-6.37,5.45-8.84l.14.12c-.26,1.32-.81,2.74-1.63,4.28-.33.64-1.12,1.96-2.36,3.96l.49.38c1.12,0,2.82-.06,5.08-.22,2.27-.16,3.96-.23,5.09-.22,1.39.01,2.43.12,3.11.32l.08.44-.44.34.06.03.35-.11.17-.03-.12.2-.61.25.73-.2-.9.46c.01.64.09,1.4.24,2.27l.99-.66ZM90.45,48.49c-.04-.06-.1-.12-.17-.18-.04.02-.09.06-.15.12-.08-.06-.42-.12-1.04-.18v.09h-.12s-.05-.06-.09-.06c-.08,0-.16.08-.26.23.39.12.54.18.46.18.06,0,.3-.08.73-.23l.06.09c.14-.02.33-.04.58-.05ZM89.34,49.59c-.04-.1-.1-.15-.17-.15l-.03.15h.21ZM90.26,50.06c-.17.04-.35.05-.52.03-.06.04-.17.06-.35.06.04-.16.22-.23.55-.23.02,0,.04.02.07.06.03.04.05.06.07.06.02,0,.05,0,.09-.03l.03-.03-.03.03s.03.04.09.06ZM90.12,49.56c-.06-.16-.24-.21-.55-.18-.02.06-.05.1-.09.12.17.1.22.15.14.15.29,0,.46-.03.5-.08ZM90.07,31.38c-.1.02-.2-.01-.32-.09l.09-.09c.06.04.14.1.23.18ZM90.76,49.48l-.23-.15c-.12,0-.24.06-.38.17l.09-.06c.08.08.15.1.2.06.08-.06.14-.09.17-.09.02,0,.04,0,.07.03.03.02.05.03.07.03ZM94.45,52.74c-1.9-.04-3.32-.17-4.27-.39,1.04.24,2.2.35,3.45.32.06-.02.11-.02.15,0,.16.02.38.04.67.06ZM92.08,31.22c-.48-.18-.87-.27-1.16-.27-.02,0-.04.01-.06.04-.02.03-.04.04-.06.04l-.15-.06c-.06-.04-.16-.02-.32.05.02.08.05.18.09.32.21,0,.38.01.52.03,0-.08.03-.12.09-.11.06,0,.14.02.23.06.04.04.09.08.14.12.04-.08.26-.15.67-.23ZM91.16,46.55h-.06s-.44.78-.44.78h.06l.44-.78ZM91.03,52.19v-.06h-.09s0,.06,0,.06h.09ZM91.23,48.47l-.17-.12-.03.06.17.12.03-.06ZM91.28,46.38l-.06-.03-.03.12h.03l.06-.09ZM91.4,52.25h-.15s0-.09,0-.09h.15v.09ZM91.43,46.15h-.06l-.03.09.03.03.06-.12ZM93.46,52.35l-2.03-.11v-.09s2.03.13,2.03.13v.06ZM92.19,48.45h-.17s.01-.09.03-.15c-.21,0-.36.04-.44.11.1.1.23.15.41.15.04,0,.1-.04.18-.12ZM92.97,45.58c-.33.5-.74,1.11-1.24,1.82.06.02.11.02.15,0,.31-.44.68-1.05,1.09-1.82ZM92.31,45.28h-.06l-.26.4.06.03.27-.43ZM95.32,48.94c-.06-.06-.26-.08-.61-.06-.02.08-.04.12-.06.12-.04,0-.08-.03-.12-.09l-.09.06c-.13-.02-.29-.04-.46-.06-.06-.02-.1-.03-.12-.03-.04,0-.08,0-.12.03-.04.02-.08.03-.12.03h-.78c-.12,0-.27-.02-.46-.04h-.32c.85.1,1.56.16,2.12.16.5,0,.88-.03,1.13-.11ZM92.22,31.4s-.07.03-.15.03l.06-.06s-.04-.06-.06-.06c.06,0,.11.03.15.09ZM95.4,40.4h-.06s-3.06,4.85-3.06,4.85l.06.03,3.06-4.88ZM92.46,44.5l-.06-.03-.03.09.03.03.06-.09ZM92.58,46.77h-.06s-.12.23-.12.23l.06.03.12-.26ZM93.17,43.35l-.06-.03-.68,1.16h.06s.68-1.12.68-1.12ZM97.24,26.07c-.83-.26-1.75-.35-2.76-.29-.06-.04-.16-.06-.29-.06-.33,0-.82.08-1.48.25.06,0,.13,0,.22-.03.09-.02.16-.03.22-.03.06,0,.12.04.2.1.08.07.13.1.14.1.04,0,.09-.02.15-.07.06-.05.11-.07.15-.07l.06.09c.06,0,.22.02.49.06.17.02.34.02.49,0l.06-.06c.19.04.47.05.84.04.33-.02.62-.02.87-.02l.12-.06s.21.05.52.03ZM93.18,48.51v-.06h-.12s0,.06,0,.06h.12ZM93.27,45.15h-.06s-.06.11-.06.11l.06.03.06-.14ZM93.28,43.2l-.06-.03-.06.09.06.03.06-.09ZM93.44,44.89l-.06-.03-.09.12.06.03.09-.11ZM93.43,42.94l-.06-.03-.06.12h.06l.06-.09ZM93.49,42.83h-.06l-.03.09.03.03.06-.12ZM96.89,42.13c-.82,1.13-1.98,2.91-3.47,5.31.45-.33.67-.65.68-.98l.09.03c.33-.42,1.24-1.88,2.71-4.36ZM93.55,29.67v-.09h-.09s0,.09,0,.09h.09ZM93.67,42.51h-.03s-.18.29-.18.29l.06.03.15-.32ZM94.81,50.88l-1.33-.04v-.06l1.34.04v.06ZM93.62,44.57h-.06l-.03.09.06.03.03-.12ZM93.76,31.47h-.17c0,.1.04.14.12.14.02-.04.04-.09.06-.14ZM93.74,44.34h-.06l-.03.15h.03s.06-.15.06-.15ZM94.07,52.42h-.35v-.09h.35s0,.09,0,.09ZM93.87,42.22l-.06-.03-.09.17.06.03.09-.17ZM94.18,29.96v-.09s-.41,0-.41,0v.09h.41ZM94.03,47.13l-.06-.03-.15.29.06.03.15-.29ZM93.97,31.56h-.12v-.06h.12v.06ZM94.34,31.56s-.05-.04-.09-.06c0,.04-.03.06-.09.06-.04,0-.06,0-.06-.03.02-.02.02-.03,0-.03-.04,0-.1.03-.17.09.23,0,.37,0,.41-.03ZM94.12,47.01h-.06l-.06.09.06.03.06-.12ZM94.55,30.72v-.06h-.46s0,.05,0,.05h.46ZM94.18,46.93l-.06-.03-.03.09.06.03.03-.09ZM94.34,52.42h-.2v-.09h.2s0,.09,0,.09ZM94.32,48.03v-.06h-.17s0,.06,0,.06h.17ZM94.33,46.67l-.06-.03-.12.2.06.03.12-.2ZM94.36,29.94l-.03-.06-.09.06v.06s.12-.06.12-.06ZM94.42,46.55l-.06-.03-.06.12h.06s.06-.09.06-.09ZM98.64,31.34c-.7.21-1.53.3-2.5.3-.04,0-.1,0-.19.03-.09.02-.15.03-.19.03-.08,0-.2-.01-.38-.03-.17-.02-.3-.03-.38-.03-.02,0-.02,0,0,.03,0,.02-.01.03-.03.03-.02,0-.03,0-.03-.03.02-.02.02-.03,0-.03-.29,0-.41,0-.35.03l-.03-.17c.04-.06.09-.08.15-.08.08,0,.19.06.35.18.1,0,.23-.01.39-.04.16-.03.29-.04.39-.04h.09c.06.02.1.03.12.03.08,0,.21-.02.39-.07.18-.05.33-.06.45-.04.06-.08.11-.12.15-.12.02,0,.05.02.1.04.05.03.08.04.1.04.04,0,.09-.01.16-.04.07-.03.11-.04.13-.04.04,0,.08.02.12.04.04.03.08.04.12.04.06,0,.15-.02.28-.07.13-.05.23-.06.31-.04v.06s.08.06.08.06l.03-.12.17.06ZM108.13,49.78l-.64.11-.09-.09h-.49s.93-.2.93-.2h-.58s-.06-.12-.06-.12l-.09.09-.03-.06c-.33-.04-.7,0-1.1.14l-.09-.06c-.12.06-.35.08-.7.08-.19,0-.49-.02-.9-.05-.41-.03-.71-.05-.9-.05-.62,0-1.08.09-1.37.28l-.09-.09c-.35.11-1.06.18-2.12.21l-.09-.09c-.45.05-.93.08-1.45.07l-.09.06c-.08.02-.53.05-1.37.1-.54.03-1,.02-1.36-.04.58-.05,1.4-.11,2.47-.15-.49-.06-.93-.09-1.34-.1-.78,0-1.43.09-1.98.3,1.12.24,2.36.37,3.71.38,1.08.01,2.71-.09,4.87-.29,2.16-.2,3.78-.3,4.87-.29l.06-.14ZM94.9,48.04v-.06h-.17s0,.06,0,.06h.17ZM94.89,45.8l-.06-.03-.03.09.03.03.06-.09ZM94.94,29.94l-.09.06v-.06s.06-.06.06-.06l.03.06ZM98.04,50.76c-.52.05-1.54.06-3.05.03h1.16c.19.01.5,0,.93-.04.41-.04.73-.03.96,0ZM95.15,42.61l-.06-.03-.09.11.06.03.09-.12ZM96.05,46.16c-.08-.08-.12-.16-.11-.23-.23.02-.37.16-.41.43,0,.04-.01.09-.03.15-.1.09-.23.24-.41.43.04.04.07.08.09.12-.04-.04-.08-.03-.12.03.21.21.36.32.43.32.1,0,.17-.07.23-.2-.02.02-.17.02-.46,0,.04-.1.11-.14.2-.14.08,0,.16.02.23.06-.04-.19.08-.51.36-.95ZM95.19,51.35h-.09v-.06h.09s0,.06,0,.06ZM100.72,29.21c-.31-.16-.87-.24-1.68-.25-.43,0-1.07.03-1.93.1-.86.07-1.51.1-1.93.1.23.04.58.04,1.05,0,.48-.04.83-.05,1.05-.05,2.03.02,3.18.05,3.45.09ZM95.52,53.21h-.23v-.06h.23s0,.06,0,.06ZM95.93,39.62l-.06-.03-.47.78.06.03.47-.78ZM108.05,48.76c-.17-.17-.55-.26-1.13-.27-.04,0-.4.02-1.07.05-.37.02-.66.01-.87,0l.26-.03c-.08,0-.58-.03-1.51-.07-.48-.02-.99-.03-1.51-.01-.64.01-1.14.05-1.51.1l.73.09-.06.09c-3.39-.11-5.37-.03-5.96.24h.44s.09-.02.09-.02v.03c.31,0,.77-.03,1.38-.09.61-.06,1.07-.09,1.38-.09.27,0,.46.03.58.09-.04,0-.52.06-1.45.19.31,0,1.24-.02,2.79-.06l-.32-.15c.27-.08.59-.11.96-.11.25,0,.53.02.84.07-.2.08-.48.12-.84.14.46,0,1.15-.02,2.06-.08.91-.06,1.6-.09,2.06-.08.52,0,1,.04,1.42.1l.09-.12h-.55c.25-.06.52-.09.81-.09.27,0,.57.04.9.09ZM96.35,51.91s-.14.02-.35.06c-.12.02-.29,0-.52-.03.23.02.44,0,.61-.08l.26.06ZM95.81,29.98v-.08h-.23s0,.08,0,.08h.23ZM97.81,53.14c-.1,0-.23.01-.41.04-.17.03-.31.04-.41.04-.06,0-.16-.01-.29-.03-.14-.02-.23-.03-.29-.03-.1,0-.19.03-.29.08l-.52-.06c.46,0,.73-.06.78-.2.02.04.03.08.03.12.1.02.56.03,1.39.04ZM95.78,29.69v-.09s-.14,0-.14,0v.09h.14ZM96.13,29.63l-.32.06v-.09s.32-.03.32-.03v.06ZM97.32,43.55s-.12.07-.23.14c.02.04-.03.11-.15.2-.12.09-.19.21-.21.33-.02.12-.04.26-.06.39l-.35.43c-.06.19-.16.45-.3.78v.15c.06,0,.12,0,.17-.03-.04-.31.16-.63.59-.96-.08-.02-.11-.08-.09-.17l.09.06c.04-.13.12-.26.23-.38.16-.41.26-.72.3-.96ZM96.9,51.37h-.73s0-.06,0-.06h.73v.06ZM98.86,29.48c-.31-.06-.74-.06-1.31-.01-.25.02-.7.06-1.34.13.1.02.98-.02,2.64-.12ZM101.26,28.31c-.62-.16-1.55-.25-2.79-.26-.62,0-1.32,0-2.09.04h.32c2.32.02,3.84.09,4.56.22ZM96.58,38.23l-.03-.03-.06.12h.06l.03-.09ZM96.7,38.06l-.06-.03-.09.12.06.06.09-.14ZM96.85,37.45l-.06-.03-.24.41.06.03.24-.41ZM97.08,37.45l-.06-.03-.26.49.06.03.26-.49ZM97.01,41.9h-.09s-.03.17-.03.17h.06l.06-.17ZM97.02,37.13h-.03s-.06.11-.06.11l.06.03.03-.15ZM97.07,41.72h-.06s-.06.17-.06.17h.09s.03-.17.03-.17ZM97.53,36.35l-.06-.03-.44.78.03.03.47-.78ZM97.52,36.7h-.06l-.41.69.06.03.41-.72ZM97.4,27.26v-.09s-.26,0-.26,0v.09h.26ZM97.28,41.41l-.03-.03-.09.17.06.03.06-.17ZM97.33,51.8l-.12.06v-.06s.09-.06.09-.06l.03.06ZM97.37,41.26l-.06-.03-.03.12h.03l.06-.09ZM97.66,40.83l-.06-.03-.24.43.03.03.26-.43ZM97.69,27.26v-.09s-.26,0-.26,0v.09s.26,0,.26,0ZM97.76,35.92l-.03-.03-.21.35.06.03.18-.35ZM97.85,28.63v-.06h-.23s0,.06,0,.06h.23ZM98.05,35.75l-.03-.03-.32.55.06.03.3-.55ZM101.96,27.42l-.03-.2c-.48-.08-.85-.12-1.1-.12-.23,0-.38.03-.44.08.16.04.39.13.7.27-.17-.02-.6-.08-1.28-.19-.54-.08-.98-.12-1.31-.13-.08,0-.19,0-.35.03-.15.02-.27.03-.35.03,1.24.01,2.1.08,2.58.2.87.22,1.25.33,1.16.33.06-.02.19-.11.41-.29ZM98.72,52.69h-.78c.1-.03.36-.02.78,0ZM98.29,41.85c-.04.06-.11.11-.2.14.02.02.03.05.03.09.1-.04.16-.12.18-.23ZM98.37,26.08s-.1-.09-.17-.15c-.04.02-.07.07-.09.14h.26ZM98.2,35.17l-.03-.03-.06.09.06.03.03-.09ZM108.18,50.5l-.64-.06.5-.14c-.17-.04-.37-.06-.58-.06-.27,0-.67.04-1.19.12-.52.08-.92.12-1.19.12-3.25-.03-5.22-.02-5.9.04.74-.03,1.85-.02,3.34.03-.37.06-1.78.1-4.24.14l-.09.12,3.63-.09c1.3-.03,2.51,0,3.63.06l-.79.05c.31-.02,1.46-.07,3.46-.17-.12.02-.22.03-.32.02-.14,0-.26-.02-.38-.06l.76-.11ZM98.35,38.71h-.06s-.06.09-.06.09l.06.03.06-.12ZM98.45,36.62l-.06-.03-.15.29h.06s.15-.26.15-.26ZM98.48,53.09h-.2s0-.06,0-.06h.2s0,.06,0,.06ZM99.18,40.29s-.08-.02-.12-.06c-.22.33-.46.81-.74,1.45.1-.06.18-.14.23-.26-.04,0-.06,0-.06-.03l.15-.12c.12-.25.3-.58.53-.98ZM100.14,30.22l-1.8-.02c.6-.03,1.2-.03,1.8.02ZM98.75,28.61v-.06h-.35s0,.06,0,.06h.35ZM98.63,49.32v-.06s-.14,0-.14,0v.06h.14ZM98.66,36.33h-.09v-.12h.09s0,.12,0,.12ZM98.7,38.08l-.06-.03-.03.09.03.03.06-.09ZM98.72,49.29v-.09h-.09s0,.09,0,.09h.09ZM99.01,35.67h-.06s-.27.52-.27.52h.06s.27-.52.27-.52ZM99.04,52.66h-.29s0-.06,0-.06h.29s0,.06,0,.06ZM99.11,50.6v-.06s-.26,0-.26,0v.06h.26ZM99.16,35.5l-.06-.03-.12.17.06.03.12-.17ZM99.34,31.29c-.06-.08-.13-.12-.2-.12-.04.02-.09.07-.15.14.08.02.19.01.35-.03ZM99.2,27.86v-.06h-.2s0,.06,0,.06h.2ZM99.14,37.27h-.06s-.03.09-.03.09l.03.03.06-.12ZM99.15,29.51v-.06h-.09v.06h.09ZM99.5,52.58c-.16.02-.27.03-.35.03.35,0,.54,0,.58-.02h-.23ZM99.29,37.01h-.06s-.03.09-.03.09l.03.03.06-.12ZM99.38,36.86h-.06l-.06.09.06.03.06-.12ZM101.37,28.17c-.91-.24-1.57-.36-1.97-.37.73.1,1.39.23,1.97.37ZM99.65,49.73v-.06h-.12s0,.06,0,.06h.12ZM99.67,37.1h-.06l-.06.12.06.03.06-.15ZM100.22,30.1v-.06s-.67-.04-.67-.04v.06s.67.03.67.03ZM99.91,29.52v-.06h-.35s0,.05,0,.05h.35ZM99.82,52.99l-.2.06v-.06l.21-.06v.06ZM99.96,30.51v-.06h-.2s0,.06,0,.06h.21ZM100.4,35.86h-.06s-.53.87-.53.87l.06.03.53-.89ZM100.37,29.78v-.06l-.46-.03v.06s.46.03.46.03ZM100.04,34.08l-.06-.03-.03.12h.06s.03-.09.03-.09ZM100.26,29.58v-.09s-.2,0-.2,0v.09h.2ZM100.22,33.76l-.03-.03-.09.17.06.03.06-.17ZM100.51,47.77v-.06h-.29s0,.06,0,.06h.29ZM100.69,49.66h-.29c.06,0,.14.03.26.09,0-.02,0-.05.03-.09ZM102,26.63s.05-.08.03-.12c-.25.04-.44.05-.55.05.08,0,.13.05.17.15v.12c-.33,0-.5-.07-.49-.21,0-.06.03-.11.09-.14-.08,0-.22-.03-.44-.09l-.21.2.09.03s-.12.02-.23,0c.23.06.73.22,1.51.48l.18-.23s-.03-.12-.14-.23ZM100.64,48.61v-.06l-.17-.03v.06l.17.03ZM100.84,52.62h-.32s0-.09,0-.09h.32s0,.09,0,.09ZM100.73,35.31l-.06-.03-.15.23.03.03.18-.23ZM100.84,49.22v-.06h-.09s0,.06,0,.06h.09ZM105.29,49.14c.06,0-.3.02-1.08.05-.17,0-.43-.02-.75-.05-.33-.03-.56-.05-.7-.05-.04,0-.09,0-.16.03-.07.02-.12.03-.16.03h-1.6c2.5.05,3.98.05,4.44,0ZM101.1,52.62h-.12s0-.09,0-.09h.12s0,.09,0,.09ZM101.23,30.69h-.06s-.03.12-.03.12l.06.03.03-.14ZM101.25,52.62h-.09v-.06h.09s0,.06,0,.06ZM101.44,30.4h-.06l-.18.26.06.03.18-.29ZM101.36,49.66v-.06h-.12s0,.06,0,.06h.12ZM101.42,52.48h-.09s0-.09,0-.09h.09s0,.09,0,.09ZM101.56,49.66l-.08-.06v.06s.08.03.08.03v-.03ZM102.11,49.67c-.1,0-.24-.01-.43-.03.13.06.21.09.23.09.04,0,.05,0,.04-.03,0-.02,0-.03.04-.03h.12ZM102.72,33.49c-.06.21-.28.87-.66,1.97h-.14s.03-.09.03-.09l-.06-.06c-.02.06-.06.1-.12.12.02-.08.09-.21.21-.41.04-.1.1-.26.18-.49.2-.44.38-.79.56-1.04ZM102.07,51.21v-.06h-.26s0,.05,0,.05h.26ZM103.27,30.54c-.79,1.43-1.18,2.17-1.18,2.23,0,.04.02.07.06.09.26-.52.63-1.29,1.12-2.31ZM102.22,27.56h-.06l-.06.14h.06s.06-.14.06-.14ZM102.42,51.21v-.06h-.26s0,.06,0,.06h.26ZM102.28,27.48l-.03-.03-.06.12h.06l.03-.09ZM102.36,28.35l-.06-.03-.09.14.06.03.09-.14ZM102.4,30.41h-.03s-.06.08-.06.08l.06.03.03-.11ZM102.51,28.15l-.06-.03-.12.14.06.06.12-.17ZM102.47,31.78l-.06.09-.06-.03.06-.09.06.03ZM102.51,30.79l-.06-.03-.09.14.06.03.09-.14ZM102.75,30.3s-.03-.06-.03-.12l-.27.43c.02.1.05.14.09.12.06-.12.13-.26.21-.43ZM103.05,52.67h-.58s0-.06,0-.06h.58v.06ZM102.47,35.18c.12-.37.2-.55.24-.55.02.13,0,.24-.06.32-.12.12-.18.19-.18.23ZM102.63,27.45l-.06-.03-.09.17.06.03.09-.17ZM102.71,51.21v-.06h-.2s0,.06,0,.06h.2ZM102.86,27.69v-.15s-.14,0-.14,0v.14s.14,0,.14,0ZM102.93,29.75c-.12.23-.18.39-.18.46,0,.02,0,.03.03.03.04-.12.09-.28.15-.49ZM107.27,51.16l-.06-.09c-2.05.1-3.53.13-4.42.11.39.06,1.07.08,2.06.05.02-.06.04-.09.06-.09.04,0,.08.03.12.09.08,0,.45-.02,1.1-.08.45-.04.81-.04,1.1-.02l.03.03ZM103.07,33.93c-.02.06-.06.12-.12.2l.06.18c.04-.15.06-.28.06-.38ZM103.33,30.48v-.09h-.09s0,.08,0,.08h.09ZM103.43,29.03v-.09s-.14,0-.14,0v.09s.14,0,.14,0ZM103.47,27.23v-.06s-.09,0-.09,0v.06s.09,0,.09,0ZM103.47,27.08v-.06h-.09s0,.06,0,.06h.09ZM103.66,25.86v-.2c-.08.08-.12.14-.12.2h.12ZM103.81,31.91c-.12.13-.18.26-.18.38,0,.04.02.09.06.15.1-.19.15-.34.15-.43,0-.04,0-.07-.03-.09ZM103.99,48.03v-.09h-.12s0,.09,0,.09h.12ZM103.99,31.59c-.04-.08-.06-.14-.06-.18,0-.33.18-.84.54-1.53,0,.25,0,.45.02.58.14-.12.25-.27.32-.46l.15-.03c0,.1-.06.21-.16.33-.11.13-.16.21-.16.25-.04.12-.09.28-.15.49-.16.39-.32.57-.5.55ZM104.06,30.08h-.06s-.06.2-.06.2h.06l.06-.2ZM104.38,52.74h-.44v-.06h.44v.06ZM104.59,52.74h-.14v-.06h.15s0,.06,0,.06ZM104.85,52.33v.06l-.12-.06v-.03l.12.03ZM105.11,52.37v-.09s-.15,0-.15,0v.09h.15ZM105.83,49.64v-.09s-.17,0-.17,0v.09s.17,0,.17,0ZM107.81,52.33c-.08.02-.19.03-.35.03.04-.02.13-.05.26-.08-.08-.06-.21-.08-.41-.06-.02.04,0,.1.03.17-.06-.14-.13-.19-.2-.18-.18.08-.25.11-.23.11-.02,0-.06-.02-.12-.06-.04-.04-.09-.02-.15.06l-.06-.09c.08.08-.1.12-.52.11v-.14c.41-.02.99-.07,1.75-.16v.29ZM106.59,52.44l-.32.03v-.06s.32-.03.32-.03v.06ZM107.23,52.39c-.27.05-.46.08-.58.08.06-.08.25-.1.58-.08ZM107.39,50.93h-.14s0-.09,0-.09h.14s0,.09,0,.09ZM107.67,52.56h-.15v-.06h.15v.06ZM108.16,49.23v-.03l-.09.03v.06l.09-.06ZM109.37,47.32c-.13,0-.54-.02-1.22-.07l.43.24h.09s.07-.03.09-.03c.08,0,.17.03.29.09.14,0,.24-.08.32-.23ZM108.25,49.29h-.06l-.03.09.03.03.06-.12ZM108.39,49.08l-.06-.03-.03.09.03.03.06-.09ZM108.62,50.04v-.06h-.17s0,.06,0,.06h.17ZM108.59,50.36v.06s-.12-.06-.12-.06l.03-.03.09.03ZM108.79,50.54l-.09-.12-.06.06.09.09.06-.03Z"/>
</svg>